<svg id="Layer_1" data-name="Layer 1" xmlns="http://www.w3.org/2000/svg" viewBox="0 0 22.54 32.46"><defs><style>.cls-1{fill:#fff;}</style></defs><title>avocado_wcss</title><path class="cls-1" d="M23.44,14.86,21.79,12.2c-3-8.12-7.57-7.76-7.57-7.76v.65h0a4.44,4.44,0,0,1,2.36.8c1.26.8,3.08,2.59,4.55,6.54l0,.06,1.66,2.66a29,29,0,0,1,1.7,9.18h0c0,7-3.48,11-10.34,11.91v.66C31.2,34.63,23.44,14.86,23.44,14.86Z" transform="translate(-2.66 -4.44)"/><path class="cls-1" d="M3.31,24.33h0A28.57,28.57,0,0,1,5,15.15l1.65-2.66,0-.06C8.16,8.48,10,6.69,11.24,5.89a4.44,4.44,0,0,1,2.36-.8h.05V4.44S9.1,4.08,6.09,12.2L4.43,14.86s-7.76,19.77,9.22,22v-.66C6.79,35.3,3.31,31.29,3.31,24.33Z" transform="translate(-2.66 -4.44)"/><path class="cls-1" d="M14,34.5a10.33,10.33,0,0,0,6.53-3c1.5-1.65,2.29-4,2.36-7.11h0a27,27,0,0,0-1.36-8.5l-1.59-2.69L19.84,13c-1.3-3.74-2.92-5.25-3.78-5.82a3.28,3.28,0,0,0-1.42-.58H13.23a3.28,3.28,0,0,0-1.42.58C11,7.76,9.33,9.27,8,13L8,13.23,6.37,15.92A27,27,0,0,0,5,24.42H5c.07,3.07.87,5.46,2.36,7.11a10.33,10.33,0,0,0,6.54,3H14Zm-6.06-11a8.13,8.13,0,0,1,.63-3.16,6.63,6.63,0,0,1,5.4-3.87,6.63,6.63,0,0,1,5.39,3.87A8.14,8.14,0,0,1,20,23.53c0,3.82-3.2,6.92-6.36,7S7.91,27.35,7.91,23.53Z" transform="translate(-2.66 -4.44)"/></svg>