<svg id="Group_1688" data-name="Group 1688" xmlns="http://www.w3.org/2000/svg" width="28.358" height="40.829" viewBox="0 0 28.358 40.829">
  <path id="Path_2817" data-name="Path 2817" d="M137.609,172.633l-2.079-3.343c-3.8-10.213-9.52-9.76-9.52-9.76v.815l.064-.005a5.594,5.594,0,0,1,2.967,1.008c1.592,1.011,3.879,3.259,5.726,8.225l.029.077L136.876,173a36.283,36.283,0,0,1,2.145,11.546h0c0,8.761-4.377,13.805-13.01,14.993v.82C147.369,197.509,137.609,172.633,137.609,172.633Z" transform="translate(-111.477 -159.527)" fill="#fff"/>
  <path id="Path_2818" data-name="Path 2818" d="M115.27,184.543h0A36.32,36.32,0,0,1,117.414,173l2.081-3.347.028-.077c1.847-4.966,4.133-7.214,5.726-8.225a5.6,5.6,0,0,1,2.967-1.008l.064.005v-.815s-5.723-.453-9.52,9.76l-2.078,3.343s-9.761,24.876,11.6,27.723v-.82C119.647,198.348,115.27,193.3,115.27,184.543Z" transform="translate(-114.456 -159.527)" fill="#fff"/>
  <path id="Path_2819" data-name="Path 2819" d="M128.067,196.782c3.63-.474,6.4-1.73,8.219-3.738,1.886-2.076,2.886-5.083,2.971-8.939h0a34.157,34.157,0,0,0-1.708-10.691l-2-3.389-.094-.27c-1.63-4.708-3.673-6.61-4.746-7.326a4.034,4.034,0,0,0-1.792-.73l-.883.006-.883-.006a4.04,4.04,0,0,0-1.793.73c-1.073.716-3.116,2.618-4.746,7.326l-.094.27-2,3.389A34.157,34.157,0,0,0,116.8,184.1h0c.087,3.855,1.087,6.863,2.971,8.939,1.824,2.009,4.589,3.264,8.218,3.738v.011l.038-.006.038.006Zm-7.619-13.8a10.187,10.187,0,0,1,.8-3.98,8.329,8.329,0,0,1,6.785-4.862A8.328,8.328,0,0,1,134.816,179a10.188,10.188,0,0,1,.8,3.98c0,4.808-4.015,8.7-7.99,8.739C123.657,191.689,120.448,187.792,120.448,182.984Z" transform="translate(-113.852 -158.966)" fill="#fff"/>
</svg>
