<svg id="Group_3810" data-name="Group 3810" xmlns="http://www.w3.org/2000/svg" width="59.119" height="47.781" viewBox="0 0 59.119 47.781">
  <g id="Group_3805" data-name="Group 3805" transform="translate(11.949)">
    <path id="Path_6082" data-name="Path 6082" d="M933.485,266.115h-.828a37.213,37.213,0,0,1-1.386-8.071q.053-.868.054-1.756c0-9.186-4.367-16.977-10.416-19.691a6.009,6.009,0,0,0,.088-1.029c0-2.935-2.1-5.323-4.675-5.323s-4.677,2.389-4.677,5.323a6.129,6.129,0,0,0,.071.919c-6.177,2.611-10.667,10.488-10.667,19.8q0,.887.055,1.756a25.627,25.627,0,0,1-.987,8.071h-.958a.662.662,0,0,0-.66.659v.987a.662.662,0,0,0,.66.659h10.954a6.51,6.51,0,0,0,12.637,0h10.734a.662.662,0,0,0,.66-.659v-.987A.662.662,0,0,0,933.485,266.115Zm-14.7-30.243a11.229,11.229,0,0,0-4.931-.059q-.008-.121-.007-.245c0-1.724,1.111-3.128,2.475-3.128s2.475,1.4,2.475,3.128C918.8,235.67,918.793,235.772,918.785,235.872Z" transform="translate(-898.499 -230.244)" fill="#00bf6f"/>
  </g>
  <g id="Group_3806" data-name="Group 3806" transform="translate(50.947 26.032)">
    <path id="Path_6083" data-name="Path 6083" d="M930.888,250.94l-1.384,1.806a10.764,10.764,0,0,1,5.656,10.222,10.524,10.524,0,0,1-5.147,7.918l1.448,1.8a12.644,12.644,0,0,0,6.161-9.5A12.931,12.931,0,0,0,930.888,250.94Z" transform="translate(-929.504 -250.94)" fill="#00bf6f"/>
  </g>
  <g id="Group_3807" data-name="Group 3807" transform="translate(48.537 29.704)">
    <path id="Path_6084" data-name="Path 6084" d="M928.57,253.859l-.982,1.282a7.885,7.885,0,0,1,.5,11.985l1.011,1.259a9.48,9.48,0,0,0-.532-14.525Z" transform="translate(-927.588 -253.859)" fill="#00bf6f"/>
  </g>
  <g id="Group_3808" data-name="Group 3808" transform="translate(0 26.032)">
    <path id="Path_6085" data-name="Path 6085" d="M891.515,262.969a10.764,10.764,0,0,1,5.656-10.222l-1.384-1.806a12.931,12.931,0,0,0-6.734,12.25,12.644,12.644,0,0,0,6.161,9.5l1.448-1.8A10.525,10.525,0,0,1,891.515,262.969Z" transform="translate(-889 -250.94)" fill="#00bf6f"/>
  </g>
  <g id="Group_3809" data-name="Group 3809" transform="translate(5.934 29.704)">
    <path id="Path_6086" data-name="Path 6086" d="M898.365,255.141l-.982-1.282a9.48,9.48,0,0,0-.532,14.525l1.011-1.259a7.885,7.885,0,0,1,.5-11.985Z" transform="translate(-893.718 -253.859)" fill="#00bf6f"/>
  </g>
</svg>
