<svg id="Group_2675" data-name="Group 2675" xmlns="http://www.w3.org/2000/svg" width="37.106" height="35.106" viewBox="0 0 37.106 35.106">
  <path id="Path_4448" data-name="Path 4448" d="M6254.314-6268.367v-7.9A13.7,13.7,0,0,1,6268-6289.947a13.7,13.7,0,0,1,13.683,13.683v7.9h2v-7.9A15.7,15.7,0,0,0,6268-6291.948a15.7,15.7,0,0,0-15.683,15.684v7.9Z" transform="translate(-6249.445 6291.948)" fill="#8bc53f"/>
  <path id="Path_4449" data-name="Path 4449" d="M6254.9-6268.43h0v-10.007h0a4.871,4.871,0,0,0-4.87,4.871v.268A4.87,4.87,0,0,0,6254.9-6268.43Z" transform="translate(-6250.029 6295.406)" fill="#8bc53f"/>
  <path id="Path_4450" data-name="Path 4450" d="M6275.7-6268.43h0v-10.007h0a4.871,4.871,0,0,1,4.87,4.871v.268A4.87,4.87,0,0,1,6275.7-6268.43Z" transform="translate(-6243.46 6295.406)" fill="#8bc53f"/>
  <g id="Group_2674" data-name="Group 2674" transform="translate(20.094 24.896)">
    <path id="Path_4451" data-name="Path 4451" d="M6266.083-6262.6l-.054-1.249,5.57-.239a8.65,8.65,0,0,0,8.032-6.47l.414-1.567,1.208.319-.411,1.568a9.9,9.9,0,0,1-9.19,7.4Z" transform="translate(-6266.029 6272.125)" fill="#8bc53f"/>
  </g>
  <path id="Path_4452" data-name="Path 4452" d="M6267.485-6263.415h-1.258a1.425,1.425,0,0,1-1.425-1.425h0a1.425,1.425,0,0,1,1.425-1.425h1.258a1.426,1.426,0,0,1,1.426,1.425h0A1.426,1.426,0,0,1,6267.485-6263.415Z" transform="translate(-6246.249 6298.521)" fill="#8bc53f"/>
</svg>
