<svg id="Group_3900" data-name="Group 3900" xmlns="http://www.w3.org/2000/svg" xmlns:xlink="http://www.w3.org/1999/xlink" width="99.009" height="69.794" viewBox="0 0 99.009 69.794">
  <defs>
    <clipPath id="clip-path">
      <path id="Path_6114" data-name="Path 6114" d="M371.419,336.391l-.937,2.313c.175-.434-.692-1.172-2.357-2.026l.937-2.313C370.727,335.219,371.594,335.957,371.419,336.391Z" transform="translate(-368.125 -334.365)" fill="#d19012"/>
    </clipPath>
    <clipPath id="clip-path-2">
      <path id="Path_6122" data-name="Path 6122" d="M378.71,338.6l-.937,2.313a.9.9,0,0,1-.478.454c-1.218.592-3.971.152-7.18-1.147l.937-2.313c3.209,1.3,5.962,1.74,7.18,1.147A.9.9,0,0,0,378.71,338.6Z" transform="translate(-370.115 -337.911)" fill="#d19012"/>
    </clipPath>
    <clipPath id="clip-path-3">
      <path id="Path_6135" data-name="Path 6135" d="M368.605,338.619l-.937,2.313c.195-.48-.931-1.406-3.108-2.522l.937-2.313C367.674,337.213,368.8,338.138,368.605,338.619Z" transform="translate(-364.56 -336.097)" fill="#d19012"/>
    </clipPath>
    <clipPath id="clip-path-4">
      <path id="Path_6147" data-name="Path 6147" d="M376.191,341.313l-.937,2.313a1.177,1.177,0,0,1-.619.587c-1.771.86-6.233-.253-11.778-2.884l.937-2.313c5.547,2.631,10.007,3.745,11.778,2.884A1.177,1.177,0,0,0,376.191,341.313Z" transform="translate(-362.857 -339.016)" fill="#d19012"/>
    </clipPath>
    <clipPath id="clip-path-5">
      <path id="Path_6173" data-name="Path 6173" d="M411.306,353.511l-2.858,6.831a5.172,5.172,0,0,1-2.86,2.615c-8.339,3.714-30.54-1.436-49.577-11.5-15.684-8.293-24.336-17.335-22.242-22.343l2.858-6.831c-2.094,5.007,6.558,14.05,22.242,22.343,19.037,10.065,41.237,15.216,49.576,11.5A5.171,5.171,0,0,0,411.306,353.511Z" transform="translate(-333.459 -322.282)" fill="none"/>
    </clipPath>
    <clipPath id="clip-path-6">
      <path id="Path_6176" data-name="Path 6176" d="M386.343,306.8l2.428,5.65c3.049,7.094-2.21,17.31-14.4,25.882-16.029,11.266-37.971,15.435-49.011,9.305a11.833,11.833,0,0,1-5.372-5.612l-2.429-5.65a11.845,11.845,0,0,0,5.373,5.614c11.04,6.128,32.983,1.961,49.011-9.307C384.133,324.111,389.392,313.9,386.343,306.8Z" transform="translate(-317.554 -306.801)" fill="none"/>
    </clipPath>
    <clipPath id="clip-path-7">
      <path id="Path_6188" data-name="Path 6188" d="M350.755,315.015l1.644,3.733a1.548,1.548,0,0,0-.535-.611L350.22,314.4A1.539,1.539,0,0,1,350.755,315.015Z" transform="translate(-350.22 -314.404)" fill="#d19012"/>
    </clipPath>
    <clipPath id="clip-path-8">
      <path id="Path_6192" data-name="Path 6192" d="M343.758,319.946l1.643,3.733a2.167,2.167,0,0,0-.747-.852l-1.644-3.733A2.174,2.174,0,0,1,343.758,319.946Z" transform="translate(-343.01 -319.094)" fill="#d19012"/>
    </clipPath>
    <clipPath id="clip-path-9">
      <path id="Path_6198" data-name="Path 6198" d="M355.969,313.819l1.644,3.733c.777,1.767-.12,3.69-2.646,5.336l-1.644-3.734C355.85,317.509,356.748,315.585,355.969,313.819Z" transform="translate(-353.323 -313.819)" fill="#d19012"/>
    </clipPath>
    <clipPath id="clip-path-10">
      <path id="Path_6203" data-name="Path 6203" d="M354.855,318.06l1.644,3.734c-2.467,1.6-5.333,2.239-7.475,1.654l-1.644-3.733C349.522,320.3,352.389,319.666,354.855,318.06Z" transform="translate(-347.38 -318.06)" fill="#d19012"/>
    </clipPath>
    <clipPath id="clip-path-11">
      <path id="Path_6206" data-name="Path 6206" d="M350.455,319.709l1.644,3.733c.692,1.571-.558,3.638-3.338,5.446-3.58,2.328-7.616,2.682-10.732,1.024l-1.644-3.733c3.116,1.658,7.152,1.3,10.732-1.025C349.9,323.347,351.147,321.279,350.455,319.709Z" transform="translate(-336.385 -319.709)" fill="#d19012"/>
    </clipPath>
  </defs>
  <g id="Group_3857" data-name="Group 3857" transform="translate(20.853 24.09)">
    <g id="Group_3824" data-name="Group 3824" transform="translate(10.977 4.19)">
      <g id="Group_3823" data-name="Group 3823" style="isolation: isolate">
        <g id="Group_3822" data-name="Group 3822">
          <path id="Path_6099" data-name="Path 6099" d="M383.56,332.545c14.932,7.9,21.74,16.659,15.2,19.572s-23.952-1.127-38.883-9.021-21.744-16.661-15.2-19.574S368.624,324.648,383.56,332.545Z" transform="translate(-342.186 -322.575)" fill="#eda215"/>
        </g>
      </g>
    </g>
    <g id="Group_3851" data-name="Group 3851" transform="translate(21.891 11.562)">
      <g id="Group_3850" data-name="Group 3850" style="isolation: isolate">
        <g id="Group_3825" data-name="Group 3825" transform="translate(21.611 3.951)">
          <path id="Path_6100" data-name="Path 6100" d="M371.48,331.577l-.937,2.313-2.5,1.214.937-2.313Z" transform="translate(-368.044 -331.577)" fill="#d19012"/>
        </g>
        <g id="Group_3826" data-name="Group 3826" transform="translate(26.533 6.503)">
          <path id="Path_6101" data-name="Path 6101" d="M375.449,333.606l-.937,2.313-2.555,1.242.937-2.313Z" transform="translate(-371.957 -333.606)" fill="#d19012"/>
        </g>
        <g id="Group_3827" data-name="Group 3827" transform="translate(16.14 4.6)">
          <path id="Path_6102" data-name="Path 6102" d="M370.2,334.95l-.937,2.313-5.573-2.857.937-2.313Z" transform="translate(-363.694 -332.093)" fill="#d19012"/>
        </g>
        <g id="Group_3830" data-name="Group 3830" transform="translate(21.713 7.458)" style="isolation: isolate">
          <path id="Path_6103" data-name="Path 6103" d="M371.419,336.391l-.937,2.313c.175-.434-.692-1.172-2.357-2.026l.937-2.313C370.727,335.219,371.594,335.957,371.419,336.391Z" transform="translate(-368.125 -334.365)" fill="#d19012"/>
          <g id="Group_3829" data-name="Group 3829" clip-path="url(#clip-path)">
            <g id="Group_3828" data-name="Group 3828" style="isolation: isolate">
              <path id="Path_6104" data-name="Path 6104" d="M370.936,335.984,370,338.3c.005-.013.009-.026.013-.039l.937-2.313c0,.013-.008.026-.013.039Z" transform="translate(-367.642 -333.958)" fill="#d19012"/>
              <path id="Path_6105" data-name="Path 6105" d="M370.946,335.962l-.937,2.313a.317.317,0,0,0,.009-.084l.938-2.313a.377.377,0,0,1-.01.084Z" transform="translate(-367.639 -333.975)" fill="#d19012"/>
              <path id="Path_6106" data-name="Path 6106" d="M370.957,335.9l-.938,2.313a.363.363,0,0,0-.015-.1l.938-2.313a.49.49,0,0,1,.015.1Z" transform="translate(-367.641 -333.996)" fill="#d19012"/>
              <path id="Path_6107" data-name="Path 6107" d="M370.955,335.828l-.938,2.313a.6.6,0,0,0-.06-.145l.937-2.313a.664.664,0,0,1,.062.145Z" transform="translate(-367.653 -334.025)" fill="#d19012"/>
              <path id="Path_6108" data-name="Path 6108" d="M371.035,335.825l-.937,2.313a2.506,2.506,0,0,0-.694-.693l.937-2.313a2.506,2.506,0,0,1,.694.693Z" transform="translate(-367.795 -334.167)" fill="#d19012"/>
              <path id="Path_6109" data-name="Path 6109" d="M370.417,335.185l-.937,2.313c-.111-.083-.234-.169-.369-.257l.937-2.313c.135.088.258.174.369.257Z" transform="translate(-367.871 -334.22)" fill="#d19012"/>
              <path id="Path_6110" data-name="Path 6110" d="M370.121,334.974l-.937,2.313c-.112-.073-.23-.147-.357-.223l.937-2.313c.127.075.247.15.357.223Z" transform="translate(-367.944 -334.266)" fill="#d19012"/>
              <path id="Path_6111" data-name="Path 6111" d="M369.842,334.8l-.937,2.313c-.12-.072-.247-.145-.38-.218l.937-2.313c.133.073.26.146.38.218Z" transform="translate(-368.022 -334.31)" fill="#d19012"/>
              <path id="Path_6112" data-name="Path 6112" d="M369.549,334.625l-.937,2.313c-.135-.075-.277-.151-.425-.228l.937-2.313c.148.077.291.152.425.228Z" transform="translate(-368.109 -334.357)" fill="#d19012"/>
              <path id="Path_6113" data-name="Path 6113" d="M369.14,334.405l-.937,2.313-.078-.04.937-2.313.078.04Z" transform="translate(-368.125 -334.365)" fill="#d19012"/>
            </g>
          </g>
        </g>
        <g id="Group_3831" data-name="Group 3831" transform="translate(13.767 4.6)">
          <path id="Path_6115" data-name="Path 6115" d="M365.118,332.093l-.937,2.313-2.373,1.153.937-2.313Z" transform="translate(-361.808 -332.093)" fill="#d19012"/>
        </g>
        <g id="Group_3834" data-name="Group 3834" transform="translate(24.216 11.918)" style="isolation: isolate">
          <path id="Path_6116" data-name="Path 6116" d="M378.71,338.6l-.937,2.313a.9.9,0,0,1-.478.454c-1.218.592-3.971.152-7.18-1.147l.937-2.313c3.209,1.3,5.962,1.74,7.18,1.147A.9.9,0,0,0,378.71,338.6Z" transform="translate(-370.115 -337.911)" fill="#d19012"/>
          <g id="Group_3833" data-name="Group 3833" clip-path="url(#clip-path-2)">
            <g id="Group_3832" data-name="Group 3832" style="isolation: isolate">
              <path id="Path_6117" data-name="Path 6117" d="M378.193,338.462l-.937,2.313a.9.9,0,0,1-.478.454c-.883.429-2.572.316-4.658-.274l.937-2.313c2.085.59,3.775.7,4.658.274a.9.9,0,0,0,.478-.454Z" transform="translate(-369.598 -337.769)" fill="#d19012"/>
              <path id="Path_6118" data-name="Path 6118" d="M373.235,338.659l-.937,2.313c-.283-.079-.574-.169-.869-.265l.937-2.313c.3.1.586.186.869.265Z" transform="translate(-369.776 -337.786)" fill="#d19012"/>
              <path id="Path_6119" data-name="Path 6119" d="M372.52,338.447l-.937,2.313c-.247-.08-.5-.169-.752-.26l.937-2.313c.254.092.506.18.752.26Z" transform="translate(-369.93 -337.84)" fill="#d19012"/>
              <path id="Path_6120" data-name="Path 6120" d="M371.912,338.242l-.937,2.313c-.231-.084-.467-.175-.7-.268l.937-2.313c.238.093.473.184.7.268Z" transform="translate(-370.075 -337.895)" fill="#d19012"/>
              <path id="Path_6121" data-name="Path 6121" d="M371.248,337.99l-.937,2.313-.2-.079.937-2.313.2.079Z" transform="translate(-370.115 -337.911)" fill="#d19012"/>
            </g>
          </g>
        </g>
        <g id="Group_3835" data-name="Group 3835" transform="translate(11.656 6.779)">
          <path id="Path_6123" data-name="Path 6123" d="M366.64,336.683,365.7,339l-5.573-2.857.937-2.313Z" transform="translate(-360.13 -333.825)" fill="#d19012"/>
        </g>
        <g id="Group_3838" data-name="Group 3838" transform="translate(17.229 9.636)" style="isolation: isolate">
          <path id="Path_6124" data-name="Path 6124" d="M368.605,338.619l-.937,2.313c.195-.48-.931-1.406-3.108-2.522l.937-2.313C367.674,337.213,368.8,338.138,368.605,338.619Z" transform="translate(-364.56 -336.097)" fill="#d19012"/>
          <g id="Group_3837" data-name="Group 3837" clip-path="url(#clip-path-3)">
            <g id="Group_3836" data-name="Group 3836" style="isolation: isolate">
              <path id="Path_6125" data-name="Path 6125" d="M367.968,338.11l-.937,2.313a.19.19,0,0,0,.011-.038l.937-2.313a.189.189,0,0,1-.011.038Z" transform="translate(-363.923 -335.588)" fill="#d19012"/>
              <path id="Path_6126" data-name="Path 6126" d="M367.977,338.089l-.937,2.313a.3.3,0,0,0,.01-.083l.937-2.313a.3.3,0,0,1-.01.083Z" transform="translate(-363.921 -335.605)" fill="#d19012"/>
              <path id="Path_6127" data-name="Path 6127" d="M367.988,338.027l-.937,2.313a.448.448,0,0,0-.016-.1l.937-2.313a.448.448,0,0,1,.016.1Z" transform="translate(-363.922 -335.626)" fill="#d19012"/>
              <path id="Path_6128" data-name="Path 6128" d="M367.985,337.954l-.937,2.313a.687.687,0,0,0-.064-.151l.937-2.312a.654.654,0,0,1,.064.15Z" transform="translate(-363.935 -335.657)" fill="#d19012"/>
              <path id="Path_6129" data-name="Path 6129" d="M368.091,337.973l-.937,2.312a3.047,3.047,0,0,0-.83-.821l.937-2.313a3.029,3.029,0,0,1,.83.823Z" transform="translate(-364.105 -335.826)" fill="#d19012"/>
              <path id="Path_6130" data-name="Path 6130" d="M367.36,337.219l-.937,2.313c-.145-.107-.306-.219-.482-.335l.937-2.313c.176.116.337.228.482.335Z" transform="translate(-364.204 -335.894)" fill="#d19012"/>
              <path id="Path_6131" data-name="Path 6131" d="M366.978,336.946l-.937,2.313c-.151-.1-.313-.2-.486-.3l.937-2.313q.259.155.486.3Z" transform="translate(-364.303 -335.956)" fill="#d19012"/>
              <path id="Path_6132" data-name="Path 6132" d="M366.6,336.706l-.937,2.313c-.166-.1-.343-.2-.53-.3l.937-2.313c.186.1.363.205.53.3Z" transform="translate(-364.412 -336.018)" fill="#d19012"/>
              <path id="Path_6133" data-name="Path 6133" d="M366.2,336.469l-.937,2.313c-.192-.106-.395-.215-.608-.325l.937-2.313c.213.109.415.219.608.325Z" transform="translate(-364.537 -336.085)" fill="#d19012"/>
              <path id="Path_6134" data-name="Path 6134" d="M365.612,336.156l-.937,2.313-.114-.059.937-2.313.114.059Z" transform="translate(-364.56 -336.097)" fill="#d19012"/>
            </g>
          </g>
        </g>
        <g id="Group_3839" data-name="Group 3839" transform="translate(9.102 6.779)">
          <path id="Path_6136" data-name="Path 6136" d="M361.591,333.825l-.937,2.313L358.1,337.38l.937-2.313Z" transform="translate(-358.099 -333.825)" fill="#d19012"/>
        </g>
        <g id="Group_3840" data-name="Group 3840" transform="translate(0 5.609)">
          <path id="Path_6137" data-name="Path 6137" d="M358.654,336.41l-.937,2.313-6.854-3.514.937-2.313Z" transform="translate(-350.863 -332.895)" fill="#d19012"/>
        </g>
        <g id="Group_3841" data-name="Group 3841" transform="translate(10.072 10.773)">
          <path id="Path_6138" data-name="Path 6138" d="M361.572,337.906l-.937,2.313-1.764-.9.937-2.313Z" transform="translate(-358.871 -337.001)" fill="#d19012"/>
        </g>
        <g id="Group_3844" data-name="Group 3844" transform="translate(15.087 13.308)" style="isolation: isolate">
          <path id="Path_6139" data-name="Path 6139" d="M376.191,341.313l-.937,2.313a1.177,1.177,0,0,1-.619.587c-1.771.86-6.233-.253-11.778-2.884l.937-2.313c5.547,2.631,10.007,3.745,11.778,2.884A1.177,1.177,0,0,0,376.191,341.313Z" transform="translate(-362.857 -339.016)" fill="#d19012"/>
          <g id="Group_3843" data-name="Group 3843" clip-path="url(#clip-path-4)">
            <g id="Group_3842" data-name="Group 3842" style="isolation: isolate">
              <path id="Path_6140" data-name="Path 6140" d="M374.852,340.842l-.937,2.313a1.177,1.177,0,0,1-.619.587c-.995.483-2.839.343-5.246-.337l.937-2.313c2.407.681,4.251.82,5.246.337a1.177,1.177,0,0,0,.619-.587Z" transform="translate(-361.518 -338.545)" fill="#d19012"/>
              <path id="Path_6141" data-name="Path 6141" d="M369.224,341.113l-.937,2.313q-.557-.158-1.153-.353l.937-2.313q.6.194,1.153.353Z" transform="translate(-361.755 -338.566)" fill="#d19012"/>
              <path id="Path_6142" data-name="Path 6142" d="M368.289,340.836l-.937,2.313q-.521-.172-1.068-.371l.937-2.313q.547.2,1.068.371Z" transform="translate(-361.973 -338.642)" fill="#d19012"/>
              <path id="Path_6143" data-name="Path 6143" d="M367.444,340.55l-.937,2.313q-.532-.194-1.087-.414l.937-2.313q.555.221,1.087.414Z" transform="translate(-362.196 -338.727)" fill="#d19012"/>
              <path id="Path_6144" data-name="Path 6144" d="M366.593,340.233l-.937,2.313q-.564-.223-1.15-.473l.937-2.313q.585.249,1.15.473Z" transform="translate(-362.432 -338.824)" fill="#d19012"/>
              <path id="Path_6145" data-name="Path 6145" d="M365.7,339.873l-.937,2.313q-.611-.26-1.244-.55l.937-2.313q.632.289,1.244.55Z" transform="translate(-362.687 -338.937)" fill="#d19012"/>
              <path id="Path_6146" data-name="Path 6146" d="M364.624,339.4l-.937,2.313c-.273-.125-.551-.253-.83-.386l.937-2.313q.421.2.83.386Z" transform="translate(-362.857 -339.016)" fill="#d19012"/>
            </g>
          </g>
        </g>
        <g id="Group_3845" data-name="Group 3845" transform="translate(4.368 10.331)">
          <path id="Path_6148" data-name="Path 6148" d="M358.492,338.3l-.937,2.313-3.219-1.65.937-2.313Z" transform="translate(-354.336 -336.65)" fill="#d19012"/>
        </g>
        <g id="Group_3846" data-name="Group 3846" transform="translate(7.587 10.773)">
          <path id="Path_6149" data-name="Path 6149" d="M360.317,337l-.937,2.313-2.485,1.208.937-2.313Z" transform="translate(-356.895 -337.001)" fill="#d19012"/>
        </g>
        <g id="Group_3847" data-name="Group 3847" transform="translate(0.937)">
          <path id="Path_6150" data-name="Path 6150" d="M375.824,340.354c3.122,1.88,4.151,3.543,2.649,4.274-1.771.86-6.231-.253-11.778-2.884l-2.522,1.226-3.214-1.648,2.486-1.209-1.763-.9-2.485,1.209-3.219-1.65,2.485-1.209-6.854-3.514,11.538-5.609L370,331.95l2.5-1.214,3.219,1.65-2.5,1.214,1.765.906,2.5-1.215,3.214,1.648-2.555,1.241c4.512,2.561,6.4,4.573,4.863,5.321C381.786,342.094,379.032,341.653,375.824,340.354Zm-9.542-1.04c2.552,1.309,4.616,1.891,5.441,1.489.774-.376-.333-1.421-2.887-2.731l-5.572-2.858-2.555,1.241,5.572,2.858Zm1.465-6.278-2.372,1.153,5.572,2.857c2.009,1.03,3.747,1.46,4.488,1.1s-.107-1.224-2.114-2.253l-5.573-2.858Z" transform="translate(-351.608 -328.436)" fill="#ffc22a"/>
        </g>
        <g id="Group_3848" data-name="Group 3848" transform="translate(12.565 13.308)">
          <path id="Path_6151" data-name="Path 6151" d="M364.311,339.016l-.937,2.313-2.522,1.226.937-2.313Z" transform="translate(-360.852 -339.016)" fill="#d19012"/>
        </g>
        <g id="Group_3849" data-name="Group 3849" transform="translate(9.351 12.886)">
          <path id="Path_6152" data-name="Path 6152" d="M362.448,340.329l-.937,2.313-3.213-1.648.937-2.313Z" transform="translate(-358.297 -338.681)" fill="#d19012"/>
        </g>
      </g>
    </g>
    <g id="Group_3856" data-name="Group 3856">
      <g id="Group_3855" data-name="Group 3855" style="isolation: isolate">
        <path id="Path_6153" data-name="Path 6153" d="M388.482,331.956c-19.044-10.068-41.242-15.22-49.58-11.505s.338,14.889,19.381,24.958,41.237,15.216,49.576,11.5S407.519,342.021,388.482,331.956Zm11.942,21.02c-6.542,2.914-23.952-1.127-38.883-9.021s-21.744-16.661-15.2-19.574,23.951,1.127,38.887,9.024S406.964,350.062,400.424,352.975Z" transform="translate(-332.873 -319.244)" fill="#f8bd2a"/>
        <g id="Group_3854" data-name="Group 3854" transform="translate(0 3.821)" style="isolation: isolate">
          <g id="Group_3853" data-name="Group 3853" clip-path="url(#clip-path-5)">
            <g id="Group_3852" data-name="Group 3852" transform="translate(0)" style="isolation: isolate">
              <path id="Path_6154" data-name="Path 6154" d="M401.979,347.11l-2.858,6.831a5.172,5.172,0,0,1-2.86,2.615c-5.051,2.249-15.19,1.247-26.628-2.131l2.858-6.831c11.439,3.377,21.576,4.38,26.627,2.131a5.171,5.171,0,0,0,2.862-2.615Z" transform="translate(-324.132 -315.881)" fill="#816316"/>
              <path id="Path_6155" data-name="Path 6155" d="M373.416,347.789l-2.858,6.831q-2.228-.658-4.513-1.434l2.858-6.831q2.281.775,4.513,1.434Z" transform="translate(-325.058 -316.075)" fill="#866717"/>
              <path id="Path_6156" data-name="Path 6156" d="M369.661,346.626l-2.858,6.831q-1.84-.625-3.7-1.322l2.858-6.831q1.858.7,3.7,1.322Z" transform="translate(-325.816 -316.346)" fill="#8b6a18"/>
              <path id="Path_6157" data-name="Path 6157" d="M366.622,345.563l-2.858,6.831q-1.609-.606-3.226-1.262L363.4,344.3q1.615.657,3.226,1.262Z" transform="translate(-326.477 -316.605)" fill="#906e18"/>
              <path id="Path_6158" data-name="Path 6158" d="M364,344.557l-2.858,6.831q-1.487-.6-2.971-1.25l2.858-6.831q1.483.647,2.971,1.25Z" transform="translate(-327.086 -316.861)" fill="#957219"/>
              <path id="Path_6159" data-name="Path 6159" d="M361.61,343.566l-2.858,6.831q-1.409-.613-2.81-1.264L358.8,342.3q1.4.651,2.811,1.264Z" transform="translate(-327.662 -317.12)" fill="#9a761a"/>
              <path id="Path_6160" data-name="Path 6160" d="M359.353,342.568,356.5,349.4q-1.36-.63-2.707-1.3l2.858-6.831q1.347.664,2.706,1.3Z" transform="translate(-328.217 -317.386)" fill="#9f7a1b"/>
              <path id="Path_6161" data-name="Path 6161" d="M357.194,341.55l-2.858,6.831q-1.341-.662-2.667-1.357l2.858-6.831q1.325.694,2.667,1.357Z" transform="translate(-328.764 -317.664)" fill="#a47d1c"/>
              <path id="Path_6162" data-name="Path 6162" d="M355.074,340.488l-2.858,6.831-.355-.186q-1.183-.626-2.311-1.255l2.858-6.831q1.128.63,2.311,1.255l.355.186Z" transform="translate(-329.31 -317.96)" fill="#a9811d"/>
              <path id="Path_6163" data-name="Path 6163" d="M352.961,339.366,350.1,346.2q-1.389-.775-2.694-1.556l2.857-6.831q1.306.779,2.7,1.556Z" transform="translate(-329.862 -318.279)" fill="#ae851d"/>
              <path id="Path_6164" data-name="Path 6164" d="M350.85,338.173,347.993,345q-1.481-.885-2.85-1.771L348,336.4q1.368.887,2.849,1.771Z" transform="translate(-330.447 -318.642)" fill="#b3891e"/>
              <path id="Path_6165" data-name="Path 6165" d="M348.7,336.88l-2.858,6.831q-1.809-1.17-3.416-2.333l2.858-6.831q1.606,1.162,3.416,2.333Z" transform="translate(-331.147 -319.12)" fill="#b88d1f"/>
              <path id="Path_6166" data-name="Path 6166" d="M346.384,335.442l-2.858,6.831a55.787,55.787,0,0,1-5.365-4.367l2.858-6.831a55.624,55.624,0,0,0,5.365,4.367Z" transform="translate(-332.247 -320.015)" fill="#bd9020"/>
              <path id="Path_6167" data-name="Path 6167" d="M341.549,331.622l-2.858,6.831a33.8,33.8,0,0,1-2.58-2.669l2.858-6.831a33.8,33.8,0,0,0,2.58,2.669Z" transform="translate(-332.775 -320.562)" fill="#c29421"/>
              <path id="Path_6168" data-name="Path 6168" d="M339.5,329.734l-2.858,6.831a17.422,17.422,0,0,1-2.575-3.811l2.858-6.831a17.423,17.423,0,0,0,2.575,3.811Z" transform="translate(-333.303 -321.343)" fill="#bd9020"/>
              <path id="Path_6169" data-name="Path 6169" d="M337.052,326.3l-2.858,6.831a8.381,8.381,0,0,1-.635-1.833l2.858-6.831a8.359,8.359,0,0,0,.635,1.833Z" transform="translate(-333.433 -321.719)" fill="#b88d1f"/>
              <path id="Path_6170" data-name="Path 6170" d="M336.443,324.743l-2.858,6.831a5.324,5.324,0,0,1-.121-1.351l2.857-6.831a5.386,5.386,0,0,0,.122,1.351Z" transform="translate(-333.459 -321.996)" fill="#b3891e"/>
              <path id="Path_6171" data-name="Path 6171" d="M336.32,323.613l-2.857,6.831a4.1,4.1,0,0,1,.187-1.077l2.858-6.831a4.161,4.161,0,0,0-.189,1.077Z" transform="translate(-333.458 -322.217)" fill="#ae851d"/>
              <path id="Path_6172" data-name="Path 6172" d="M336.47,322.6l-2.858,6.831c.034-.108.073-.215.117-.319l2.858-6.831c-.044.1-.083.211-.117.319Z" transform="translate(-333.42 -322.282)" fill="#a9811d"/>
            </g>
          </g>
        </g>
      </g>
    </g>
    <path id="Path_6174" data-name="Path 6174" d="M344.032,325.327c6.541-2.913,23.952,1.127,38.887,9.025,11.207,5.924,17.837,12.339,17.683,16.4,2.858-3.74-3.986-11.307-17.042-18.21-14.935-7.9-32.346-11.937-38.887-9.024a3.6,3.6,0,0,0-2.483,3.168A4.62,4.62,0,0,1,344.032,325.327Z" transform="translate(-331.208 -318.385)" fill="#d19012"/>
  </g>
  <g id="Group_3899" data-name="Group 3899">
    <g id="Group_3858" data-name="Group 3858" transform="translate(7.995 15.319)" opacity="0.64" style="mix-blend-mode: multiply;isolation: isolate">
      <ellipse id="Ellipse_424" data-name="Ellipse 424" cx="14.586" cy="42.71" rx="14.586" ry="42.71" transform="translate(0 27.842) rotate(-72.638)" fill="#fff" opacity="0" style="mix-blend-mode: multiply;isolation: isolate"/>
      <ellipse id="Ellipse_425" data-name="Ellipse 425" cx="14.536" cy="42.45" rx="14.536" ry="42.45" transform="translate(0.127 27.813) rotate(-72.638)" fill="#fcfcfc" opacity="0.01" style="mix-blend-mode: multiply;isolation: isolate"/>
      <ellipse id="Ellipse_426" data-name="Ellipse 426" cx="14.487" cy="42.189" rx="14.487" ry="42.189" transform="translate(0.255 27.784) rotate(-72.638)" fill="#fafafa" opacity="0.02" style="mix-blend-mode: multiply;isolation: isolate"/>
      <ellipse id="Ellipse_427" data-name="Ellipse 427" cx="14.437" cy="41.929" rx="14.437" ry="41.929" transform="translate(0.382 27.755) rotate(-72.638)" fill="#f7f7f7" opacity="0.03" style="mix-blend-mode: multiply;isolation: isolate"/>
      <ellipse id="Ellipse_428" data-name="Ellipse 428" cx="14.388" cy="41.668" rx="14.388" ry="41.668" transform="translate(0.51 27.726) rotate(-72.638)" fill="#f5f5f5" opacity="0.04" style="mix-blend-mode: multiply;isolation: isolate"/>
      <ellipse id="Ellipse_429" data-name="Ellipse 429" cx="14.339" cy="41.408" rx="14.339" ry="41.408" transform="translate(0.637 27.697) rotate(-72.638)" fill="#f2f2f2" opacity="0.05" style="mix-blend-mode: multiply;isolation: isolate"/>
      <ellipse id="Ellipse_430" data-name="Ellipse 430" cx="14.289" cy="41.147" rx="14.289" ry="41.147" transform="translate(0.765 27.667) rotate(-72.638)" fill="#f0f0f0" opacity="0.059" style="mix-blend-mode: multiply;isolation: isolate"/>
      <ellipse id="Ellipse_431" data-name="Ellipse 431" cx="14.24" cy="40.887" rx="14.24" ry="40.887" transform="translate(0.892 27.638) rotate(-72.638)" fill="#ededed" opacity="0.069" style="mix-blend-mode: multiply;isolation: isolate"/>
      <ellipse id="Ellipse_432" data-name="Ellipse 432" cx="14.19" cy="40.626" rx="14.19" ry="40.626" transform="translate(1.019 27.609) rotate(-72.638)" fill="#ebebeb" opacity="0.079" style="mix-blend-mode: multiply;isolation: isolate"/>
      <ellipse id="Ellipse_433" data-name="Ellipse 433" cx="14.141" cy="40.366" rx="14.141" ry="40.366" transform="translate(1.147 27.58) rotate(-72.638)" fill="#e8e8e8" opacity="0.089" style="mix-blend-mode: multiply;isolation: isolate"/>
      <ellipse id="Ellipse_434" data-name="Ellipse 434" cx="14.091" cy="40.106" rx="14.091" ry="40.106" transform="translate(1.274 27.551) rotate(-72.638)" fill="#e6e6e6" opacity="0.099" style="mix-blend-mode: multiply;isolation: isolate"/>
      <ellipse id="Ellipse_435" data-name="Ellipse 435" cx="14.042" cy="39.845" rx="14.042" ry="39.845" transform="translate(1.402 27.522) rotate(-72.638)" fill="#e3e3e3" opacity="0.109" style="mix-blend-mode: multiply;isolation: isolate"/>
      <ellipse id="Ellipse_436" data-name="Ellipse 436" cx="13.992" cy="39.585" rx="13.992" ry="39.585" transform="translate(1.529 27.492) rotate(-72.638)" fill="#e1e1e1" opacity="0.119" style="mix-blend-mode: multiply;isolation: isolate"/>
      <ellipse id="Ellipse_437" data-name="Ellipse 437" cx="13.943" cy="39.324" rx="13.943" ry="39.324" transform="translate(1.657 27.463) rotate(-72.638)" fill="#dedede" opacity="0.129" style="mix-blend-mode: multiply;isolation: isolate"/>
      <ellipse id="Ellipse_438" data-name="Ellipse 438" cx="13.893" cy="39.064" rx="13.893" ry="39.064" transform="translate(1.784 27.434) rotate(-72.638)" fill="#dcdcdc" opacity="0.139" style="mix-blend-mode: multiply;isolation: isolate"/>
      <ellipse id="Ellipse_439" data-name="Ellipse 439" cx="13.844" cy="38.803" rx="13.844" ry="38.803" transform="translate(1.911 27.405) rotate(-72.638)" fill="#d9d9d9" opacity="0.149" style="mix-blend-mode: multiply;isolation: isolate"/>
      <ellipse id="Ellipse_440" data-name="Ellipse 440" cx="13.795" cy="38.543" rx="13.795" ry="38.543" transform="translate(2.039 27.376) rotate(-72.638)" fill="#d7d7d7" opacity="0.158" style="mix-blend-mode: multiply;isolation: isolate"/>
      <ellipse id="Ellipse_441" data-name="Ellipse 441" cx="13.745" cy="38.282" rx="13.745" ry="38.282" transform="translate(2.166 27.347) rotate(-72.638)" fill="#d4d4d4" opacity="0.168" style="mix-blend-mode: multiply;isolation: isolate"/>
      <ellipse id="Ellipse_442" data-name="Ellipse 442" cx="13.696" cy="38.022" rx="13.696" ry="38.022" transform="translate(2.294 27.317) rotate(-72.638)" fill="#d2d2d2" opacity="0.178" style="mix-blend-mode: multiply;isolation: isolate"/>
      <ellipse id="Ellipse_443" data-name="Ellipse 443" cx="13.646" cy="37.761" rx="13.646" ry="37.761" transform="translate(2.421 27.288) rotate(-72.638)" fill="#cfcfcf" opacity="0.188" style="mix-blend-mode: multiply;isolation: isolate"/>
      <ellipse id="Ellipse_444" data-name="Ellipse 444" cx="13.597" cy="37.501" rx="13.597" ry="37.501" transform="translate(2.548 27.259) rotate(-72.638)" fill="#cdcdcd" opacity="0.198" style="mix-blend-mode: multiply;isolation: isolate"/>
      <ellipse id="Ellipse_445" data-name="Ellipse 445" cx="13.547" cy="37.24" rx="13.547" ry="37.24" transform="translate(2.676 27.23) rotate(-72.638)" fill="#cacaca" opacity="0.208" style="mix-blend-mode: multiply;isolation: isolate"/>
      <ellipse id="Ellipse_446" data-name="Ellipse 446" cx="13.498" cy="36.98" rx="13.498" ry="36.98" transform="translate(2.803 27.201) rotate(-72.638)" fill="#c7c7c7" opacity="0.218" style="mix-blend-mode: multiply;isolation: isolate"/>
      <ellipse id="Ellipse_447" data-name="Ellipse 447" cx="13.448" cy="36.719" rx="13.448" ry="36.719" transform="translate(2.931 27.172) rotate(-72.638)" fill="#c5c5c5" opacity="0.228" style="mix-blend-mode: multiply;isolation: isolate"/>
      <ellipse id="Ellipse_448" data-name="Ellipse 448" cx="13.399" cy="36.459" rx="13.399" ry="36.459" transform="translate(3.058 27.142) rotate(-72.638)" fill="#c2c2c2" opacity="0.238" style="mix-blend-mode: multiply;isolation: isolate"/>
      <ellipse id="Ellipse_449" data-name="Ellipse 449" cx="13.35" cy="36.198" rx="13.35" ry="36.198" transform="translate(3.186 27.113) rotate(-72.638)" fill="silver" opacity="0.248" style="mix-blend-mode: multiply;isolation: isolate"/>
      <ellipse id="Ellipse_450" data-name="Ellipse 450" cx="13.3" cy="35.938" rx="13.3" ry="35.938" transform="translate(3.313 27.084) rotate(-72.638)" fill="#bdbdbd" opacity="0.257" style="mix-blend-mode: multiply;isolation: isolate"/>
      <ellipse id="Ellipse_451" data-name="Ellipse 451" cx="13.251" cy="35.677" rx="13.251" ry="35.677" transform="translate(3.44 27.055) rotate(-72.638)" fill="#bbb" opacity="0.267" style="mix-blend-mode: multiply;isolation: isolate"/>
      <ellipse id="Ellipse_452" data-name="Ellipse 452" cx="13.201" cy="35.417" rx="13.201" ry="35.417" transform="translate(3.568 27.026) rotate(-72.638)" fill="#b8b8b8" opacity="0.277" style="mix-blend-mode: multiply;isolation: isolate"/>
      <ellipse id="Ellipse_453" data-name="Ellipse 453" cx="13.152" cy="35.156" rx="13.152" ry="35.156" transform="translate(3.695 26.997) rotate(-72.638)" fill="#b6b6b6" opacity="0.287" style="mix-blend-mode: multiply;isolation: isolate"/>
      <ellipse id="Ellipse_454" data-name="Ellipse 454" cx="13.102" cy="34.896" rx="13.102" ry="34.896" transform="translate(3.823 26.968) rotate(-72.638)" fill="#b3b3b3" opacity="0.297" style="mix-blend-mode: multiply;isolation: isolate"/>
      <ellipse id="Ellipse_455" data-name="Ellipse 455" cx="13.053" cy="34.635" rx="13.053" ry="34.635" transform="translate(3.95 26.938) rotate(-72.638)" fill="#b1b1b1" opacity="0.307" style="mix-blend-mode: multiply;isolation: isolate"/>
      <ellipse id="Ellipse_456" data-name="Ellipse 456" cx="13.003" cy="34.375" rx="13.003" ry="34.375" transform="translate(4.077 26.909) rotate(-72.638)" fill="#aeaeae" opacity="0.317" style="mix-blend-mode: multiply;isolation: isolate"/>
      <ellipse id="Ellipse_457" data-name="Ellipse 457" cx="12.954" cy="34.114" rx="12.954" ry="34.114" transform="translate(4.205 26.88) rotate(-72.638)" fill="#acacac" opacity="0.327" style="mix-blend-mode: multiply;isolation: isolate"/>
      <ellipse id="Ellipse_458" data-name="Ellipse 458" cx="12.905" cy="33.854" rx="12.905" ry="33.854" transform="translate(4.332 26.851) rotate(-72.638)" fill="#a9a9a9" opacity="0.337" style="mix-blend-mode: multiply;isolation: isolate"/>
      <ellipse id="Ellipse_459" data-name="Ellipse 459" cx="12.855" cy="33.593" rx="12.855" ry="33.593" transform="translate(4.46 26.822) rotate(-72.638)" fill="#a7a7a7" opacity="0.347" style="mix-blend-mode: multiply;isolation: isolate"/>
      <ellipse id="Ellipse_460" data-name="Ellipse 460" cx="12.806" cy="33.333" rx="12.806" ry="33.333" transform="translate(4.587 26.793) rotate(-72.638)" fill="#a4a4a4" opacity="0.356" style="mix-blend-mode: multiply;isolation: isolate"/>
      <ellipse id="Ellipse_461" data-name="Ellipse 461" cx="12.756" cy="33.072" rx="12.756" ry="33.072" transform="matrix(0.298, -0.954, 0.954, 0.298, 4.715, 26.763)" fill="#a2a2a2" opacity="0.366" style="mix-blend-mode: multiply;isolation: isolate"/>
      <ellipse id="Ellipse_462" data-name="Ellipse 462" cx="12.707" cy="32.812" rx="12.707" ry="32.812" transform="matrix(0.298, -0.954, 0.954, 0.298, 4.842, 26.734)" fill="#9f9f9f" opacity="0.376" style="mix-blend-mode: multiply;isolation: isolate"/>
      <ellipse id="Ellipse_463" data-name="Ellipse 463" cx="12.657" cy="32.551" rx="12.657" ry="32.551" transform="matrix(0.298, -0.954, 0.954, 0.298, 4.969, 26.705)" fill="#9d9d9d" opacity="0.386" style="mix-blend-mode: multiply;isolation: isolate"/>
      <ellipse id="Ellipse_464" data-name="Ellipse 464" cx="12.608" cy="32.291" rx="12.608" ry="32.291" transform="matrix(0.298, -0.954, 0.954, 0.298, 5.097, 26.676)" fill="#9a9a9a" opacity="0.396" style="mix-blend-mode: multiply;isolation: isolate"/>
      <ellipse id="Ellipse_465" data-name="Ellipse 465" cx="12.558" cy="32.031" rx="12.558" ry="32.031" transform="matrix(0.298, -0.954, 0.954, 0.298, 5.224, 26.647)" fill="#979797" opacity="0.406" style="mix-blend-mode: multiply;isolation: isolate"/>
      <ellipse id="Ellipse_466" data-name="Ellipse 466" cx="12.509" cy="31.77" rx="12.509" ry="31.77" transform="matrix(0.298, -0.954, 0.954, 0.298, 5.352, 26.618)" fill="#959595" opacity="0.416" style="mix-blend-mode: multiply;isolation: isolate"/>
      <ellipse id="Ellipse_467" data-name="Ellipse 467" cx="12.46" cy="31.51" rx="12.46" ry="31.51" transform="matrix(0.298, -0.954, 0.954, 0.298, 5.479, 26.588)" fill="#929292" opacity="0.426" style="mix-blend-mode: multiply;isolation: isolate"/>
      <ellipse id="Ellipse_468" data-name="Ellipse 468" cx="12.41" cy="31.249" rx="12.41" ry="31.249" transform="matrix(0.298, -0.954, 0.954, 0.298, 5.607, 26.559)" fill="#909090" opacity="0.436" style="mix-blend-mode: multiply;isolation: isolate"/>
      <ellipse id="Ellipse_469" data-name="Ellipse 469" cx="12.361" cy="30.989" rx="12.361" ry="30.989" transform="matrix(0.298, -0.954, 0.954, 0.298, 5.734, 26.53)" fill="#8d8d8d" opacity="0.446" style="mix-blend-mode: multiply;isolation: isolate"/>
      <ellipse id="Ellipse_470" data-name="Ellipse 470" cx="12.311" cy="30.728" rx="12.311" ry="30.728" transform="matrix(0.298, -0.954, 0.954, 0.298, 5.861, 26.501)" fill="#8b8b8b" opacity="0.455" style="mix-blend-mode: multiply;isolation: isolate"/>
      <ellipse id="Ellipse_471" data-name="Ellipse 471" cx="12.262" cy="30.468" rx="12.262" ry="30.468" transform="matrix(0.298, -0.954, 0.954, 0.298, 5.989, 26.472)" fill="#888" opacity="0.465" style="mix-blend-mode: multiply;isolation: isolate"/>
      <ellipse id="Ellipse_472" data-name="Ellipse 472" cx="12.212" cy="30.207" rx="12.212" ry="30.207" transform="translate(6.116 26.443) rotate(-72.638)" fill="#868686" opacity="0.475" style="mix-blend-mode: multiply;isolation: isolate"/>
      <ellipse id="Ellipse_473" data-name="Ellipse 473" cx="12.163" cy="29.947" rx="12.163" ry="29.947" transform="translate(6.244 26.413) rotate(-72.638)" fill="#838383" opacity="0.485" style="mix-blend-mode: multiply;isolation: isolate"/>
      <ellipse id="Ellipse_474" data-name="Ellipse 474" cx="12.113" cy="29.686" rx="12.113" ry="29.686" transform="translate(6.371 26.384) rotate(-72.638)" fill="#818181" opacity="0.495" style="mix-blend-mode: multiply;isolation: isolate"/>
      <ellipse id="Ellipse_475" data-name="Ellipse 475" cx="12.064" cy="29.426" rx="12.064" ry="29.426" transform="translate(6.498 26.355) rotate(-72.638)" fill="#7e7e7e" opacity="0.505" style="mix-blend-mode: multiply;isolation: isolate"/>
      <ellipse id="Ellipse_476" data-name="Ellipse 476" cx="12.015" cy="29.165" rx="12.015" ry="29.165" transform="translate(6.626 26.326) rotate(-72.638)" fill="#7c7c7c" opacity="0.515" style="mix-blend-mode: multiply;isolation: isolate"/>
      <ellipse id="Ellipse_477" data-name="Ellipse 477" cx="11.965" cy="28.905" rx="11.965" ry="28.905" transform="translate(6.753 26.297) rotate(-72.638)" fill="#797979" opacity="0.525" style="mix-blend-mode: multiply;isolation: isolate"/>
      <ellipse id="Ellipse_478" data-name="Ellipse 478" cx="11.916" cy="28.644" rx="11.916" ry="28.644" transform="translate(6.881 26.268) rotate(-72.638)" fill="#777" opacity="0.535" style="mix-blend-mode: multiply;isolation: isolate"/>
      <ellipse id="Ellipse_479" data-name="Ellipse 479" cx="11.866" cy="28.384" rx="11.866" ry="28.384" transform="translate(7.008 26.238) rotate(-72.638)" fill="#747474" opacity="0.545" style="mix-blend-mode: multiply;isolation: isolate"/>
      <ellipse id="Ellipse_480" data-name="Ellipse 480" cx="11.817" cy="28.123" rx="11.817" ry="28.123" transform="matrix(0.298, -0.954, 0.954, 0.298, 7.136, 26.209)" fill="#727272" opacity="0.554" style="mix-blend-mode: multiply;isolation: isolate"/>
      <ellipse id="Ellipse_481" data-name="Ellipse 481" cx="11.767" cy="27.863" rx="11.767" ry="27.863" transform="matrix(0.298, -0.954, 0.954, 0.298, 7.263, 26.18)" fill="#6f6f6f" opacity="0.564" style="mix-blend-mode: multiply;isolation: isolate"/>
      <ellipse id="Ellipse_482" data-name="Ellipse 482" cx="11.718" cy="27.602" rx="11.718" ry="27.602" transform="matrix(0.298, -0.954, 0.954, 0.298, 7.39, 26.151)" fill="#6d6d6d" opacity="0.574" style="mix-blend-mode: multiply;isolation: isolate"/>
      <ellipse id="Ellipse_483" data-name="Ellipse 483" cx="11.668" cy="27.342" rx="11.668" ry="27.342" transform="matrix(0.298, -0.954, 0.954, 0.298, 7.518, 26.122)" fill="#6a6a6a" opacity="0.584" style="mix-blend-mode: multiply;isolation: isolate"/>
      <ellipse id="Ellipse_484" data-name="Ellipse 484" cx="11.619" cy="27.081" rx="11.619" ry="27.081" transform="matrix(0.298, -0.954, 0.954, 0.298, 7.645, 26.093)" fill="#686868" opacity="0.594" style="mix-blend-mode: multiply;isolation: isolate"/>
      <ellipse id="Ellipse_485" data-name="Ellipse 485" cx="11.569" cy="26.821" rx="11.569" ry="26.821" transform="matrix(0.298, -0.954, 0.954, 0.298, 7.773, 26.063)" fill="#656565" opacity="0.604" style="mix-blend-mode: multiply;isolation: isolate"/>
      <ellipse id="Ellipse_486" data-name="Ellipse 486" cx="11.52" cy="26.56" rx="11.52" ry="26.56" transform="matrix(0.298, -0.954, 0.954, 0.298, 7.9, 26.034)" fill="#626262" opacity="0.614" style="mix-blend-mode: multiply;isolation: isolate"/>
      <ellipse id="Ellipse_487" data-name="Ellipse 487" cx="11.471" cy="26.3" rx="11.471" ry="26.3" transform="translate(8.028 26.005) rotate(-72.638)" fill="#606060" opacity="0.624" style="mix-blend-mode: multiply;isolation: isolate"/>
      <ellipse id="Ellipse_488" data-name="Ellipse 488" cx="11.421" cy="26.039" rx="11.421" ry="26.039" transform="translate(8.155 25.976) rotate(-72.638)" fill="#5d5d5d" opacity="0.634" style="mix-blend-mode: multiply;isolation: isolate"/>
      <ellipse id="Ellipse_489" data-name="Ellipse 489" cx="11.372" cy="25.779" rx="11.372" ry="25.779" transform="translate(8.282 25.947) rotate(-72.638)" fill="#5b5b5b" opacity="0.644" style="mix-blend-mode: multiply;isolation: isolate"/>
      <ellipse id="Ellipse_490" data-name="Ellipse 490" cx="11.322" cy="25.518" rx="11.322" ry="25.518" transform="translate(8.41 25.918) rotate(-72.638)" fill="#585858" opacity="0.653" style="mix-blend-mode: multiply;isolation: isolate"/>
      <ellipse id="Ellipse_491" data-name="Ellipse 491" cx="11.273" cy="25.258" rx="11.273" ry="25.258" transform="translate(8.537 25.889) rotate(-72.638)" fill="#565656" opacity="0.663" style="mix-blend-mode: multiply;isolation: isolate"/>
      <ellipse id="Ellipse_492" data-name="Ellipse 492" cx="11.223" cy="24.997" rx="11.223" ry="24.997" transform="translate(8.665 25.859) rotate(-72.638)" fill="#535353" opacity="0.673" style="mix-blend-mode: multiply;isolation: isolate"/>
      <ellipse id="Ellipse_493" data-name="Ellipse 493" cx="11.174" cy="24.737" rx="11.174" ry="24.737" transform="translate(8.792 25.83) rotate(-72.638)" fill="#515151" opacity="0.683" style="mix-blend-mode: multiply;isolation: isolate"/>
      <ellipse id="Ellipse_494" data-name="Ellipse 494" cx="11.124" cy="24.476" rx="11.124" ry="24.476" transform="translate(8.919 25.801) rotate(-72.638)" fill="#4e4e4e" opacity="0.693" style="mix-blend-mode: multiply;isolation: isolate"/>
      <ellipse id="Ellipse_495" data-name="Ellipse 495" cx="11.075" cy="24.216" rx="11.075" ry="24.216" transform="translate(9.047 25.772) rotate(-72.638)" fill="#4c4c4c" opacity="0.703" style="mix-blend-mode: multiply;isolation: isolate"/>
      <ellipse id="Ellipse_496" data-name="Ellipse 496" cx="11.026" cy="23.956" rx="11.026" ry="23.956" transform="translate(9.174 25.743) rotate(-72.638)" fill="#494949" opacity="0.713" style="mix-blend-mode: multiply;isolation: isolate"/>
      <ellipse id="Ellipse_497" data-name="Ellipse 497" cx="10.976" cy="23.695" rx="10.976" ry="23.695" transform="matrix(0.298, -0.954, 0.954, 0.298, 9.302, 25.714)" fill="#474747" opacity="0.723" style="mix-blend-mode: multiply;isolation: isolate"/>
      <ellipse id="Ellipse_498" data-name="Ellipse 498" cx="10.927" cy="23.435" rx="10.927" ry="23.435" transform="matrix(0.298, -0.954, 0.954, 0.298, 9.429, 25.684)" fill="#444" opacity="0.733" style="mix-blend-mode: multiply;isolation: isolate"/>
      <ellipse id="Ellipse_499" data-name="Ellipse 499" cx="10.877" cy="23.174" rx="10.877" ry="23.174" transform="matrix(0.298, -0.954, 0.954, 0.298, 9.557, 25.655)" fill="#424242" opacity="0.743" style="mix-blend-mode: multiply;isolation: isolate"/>
      <ellipse id="Ellipse_500" data-name="Ellipse 500" cx="10.828" cy="22.914" rx="10.828" ry="22.914" transform="matrix(0.298, -0.954, 0.954, 0.298, 9.684, 25.626)" fill="#3f3f3f" opacity="0.752" style="mix-blend-mode: multiply;isolation: isolate"/>
      <ellipse id="Ellipse_501" data-name="Ellipse 501" cx="10.778" cy="22.653" rx="10.778" ry="22.653" transform="translate(9.811 25.597) rotate(-72.638)" fill="#3d3d3d" opacity="0.762" style="mix-blend-mode: multiply;isolation: isolate"/>
      <ellipse id="Ellipse_502" data-name="Ellipse 502" cx="10.729" cy="22.393" rx="10.729" ry="22.393" transform="translate(9.939 25.568) rotate(-72.638)" fill="#3a3a3a" opacity="0.772" style="mix-blend-mode: multiply;isolation: isolate"/>
      <ellipse id="Ellipse_503" data-name="Ellipse 503" cx="10.679" cy="22.132" rx="10.679" ry="22.132" transform="translate(10.066 25.539) rotate(-72.638)" fill="#383838" opacity="0.782" style="mix-blend-mode: multiply;isolation: isolate"/>
      <ellipse id="Ellipse_504" data-name="Ellipse 504" cx="10.63" cy="21.872" rx="10.63" ry="21.872" transform="translate(10.194 25.509) rotate(-72.638)" fill="#353535" opacity="0.792" style="mix-blend-mode: multiply;isolation: isolate"/>
      <ellipse id="Ellipse_505" data-name="Ellipse 505" cx="10.581" cy="21.611" rx="10.581" ry="21.611" transform="translate(10.321 25.48) rotate(-72.638)" fill="#323232" opacity="0.802" style="mix-blend-mode: multiply;isolation: isolate"/>
      <ellipse id="Ellipse_506" data-name="Ellipse 506" cx="10.531" cy="21.351" rx="10.531" ry="21.351" transform="translate(10.449 25.451) rotate(-72.638)" fill="#303030" opacity="0.812" style="mix-blend-mode: multiply;isolation: isolate"/>
      <ellipse id="Ellipse_507" data-name="Ellipse 507" cx="10.482" cy="21.09" rx="10.482" ry="21.09" transform="matrix(0.298, -0.954, 0.954, 0.298, 10.576, 25.422)" fill="#2d2d2d" opacity="0.822" style="mix-blend-mode: multiply;isolation: isolate"/>
      <ellipse id="Ellipse_508" data-name="Ellipse 508" cx="10.432" cy="20.83" rx="10.432" ry="20.83" transform="matrix(0.298, -0.954, 0.954, 0.298, 10.703, 25.393)" fill="#2b2b2b" opacity="0.832" style="mix-blend-mode: multiply;isolation: isolate"/>
      <ellipse id="Ellipse_509" data-name="Ellipse 509" cx="10.383" cy="20.569" rx="10.383" ry="20.569" transform="matrix(0.298, -0.954, 0.954, 0.298, 10.831, 25.364)" fill="#282828" opacity="0.842" style="mix-blend-mode: multiply;isolation: isolate"/>
      <ellipse id="Ellipse_510" data-name="Ellipse 510" cx="10.333" cy="20.309" rx="10.333" ry="20.309" transform="matrix(0.298, -0.954, 0.954, 0.298, 10.958, 25.334)" fill="#262626" opacity="0.851" style="mix-blend-mode: multiply;isolation: isolate"/>
      <ellipse id="Ellipse_511" data-name="Ellipse 511" cx="10.284" cy="20.048" rx="10.284" ry="20.048" transform="translate(11.086 25.305) rotate(-72.638)" fill="#232323" opacity="0.861" style="mix-blend-mode: multiply;isolation: isolate"/>
      <ellipse id="Ellipse_512" data-name="Ellipse 512" cx="10.234" cy="19.788" rx="10.234" ry="19.788" transform="translate(11.213 25.276) rotate(-72.638)" fill="#212121" opacity="0.871" style="mix-blend-mode: multiply;isolation: isolate"/>
      <ellipse id="Ellipse_513" data-name="Ellipse 513" cx="10.185" cy="19.527" rx="10.185" ry="19.527" transform="translate(11.34 25.247) rotate(-72.638)" fill="#1e1e1e" opacity="0.881" style="mix-blend-mode: multiply;isolation: isolate"/>
      <ellipse id="Ellipse_514" data-name="Ellipse 514" cx="10.136" cy="19.267" rx="10.136" ry="19.267" transform="translate(11.468 25.218) rotate(-72.638)" fill="#1c1c1c" opacity="0.891" style="mix-blend-mode: multiply;isolation: isolate"/>
      <ellipse id="Ellipse_515" data-name="Ellipse 515" cx="10.086" cy="19.006" rx="10.086" ry="19.006" transform="translate(11.595 25.189) rotate(-72.638)" fill="#191919" opacity="0.901" style="mix-blend-mode: multiply;isolation: isolate"/>
      <ellipse id="Ellipse_516" data-name="Ellipse 516" cx="10.037" cy="18.746" rx="10.037" ry="18.746" transform="matrix(0.298, -0.954, 0.954, 0.298, 11.723, 25.159)" fill="#171717" opacity="0.911" style="mix-blend-mode: multiply;isolation: isolate"/>
      <ellipse id="Ellipse_517" data-name="Ellipse 517" cx="9.987" cy="18.485" rx="9.987" ry="18.485" transform="matrix(0.298, -0.954, 0.954, 0.298, 11.85, 25.13)" fill="#141414" opacity="0.921" style="mix-blend-mode: multiply;isolation: isolate"/>
      <ellipse id="Ellipse_518" data-name="Ellipse 518" cx="9.938" cy="18.225" rx="9.938" ry="18.225" transform="translate(11.978 25.101) rotate(-72.638)" fill="#121212" opacity="0.931" style="mix-blend-mode: multiply;isolation: isolate"/>
      <ellipse id="Ellipse_519" data-name="Ellipse 519" cx="9.888" cy="17.964" rx="9.888" ry="17.964" transform="translate(12.105 25.072) rotate(-72.638)" fill="#0f0f0f" opacity="0.941" style="mix-blend-mode: multiply;isolation: isolate"/>
      <ellipse id="Ellipse_520" data-name="Ellipse 520" cx="9.839" cy="17.704" rx="9.839" ry="17.704" transform="translate(12.232 25.043) rotate(-72.638)" fill="#0d0d0d" opacity="0.95" style="mix-blend-mode: multiply;isolation: isolate"/>
      <ellipse id="Ellipse_521" data-name="Ellipse 521" cx="9.789" cy="17.443" rx="9.789" ry="17.443" transform="matrix(0.298, -0.954, 0.954, 0.298, 12.36, 25.014)" fill="#0a0a0a" opacity="0.96" style="mix-blend-mode: multiply;isolation: isolate"/>
      <ellipse id="Ellipse_522" data-name="Ellipse 522" cx="9.74" cy="17.183" rx="9.74" ry="17.183" transform="matrix(0.298, -0.954, 0.954, 0.298, 12.487, 24.984)" fill="#080808" opacity="0.97" style="mix-blend-mode: multiply;isolation: isolate"/>
      <ellipse id="Ellipse_523" data-name="Ellipse 523" cx="9.691" cy="16.922" rx="9.691" ry="16.922" transform="translate(12.615 24.955) rotate(-72.638)" fill="#050505" opacity="0.98" style="mix-blend-mode: multiply;isolation: isolate"/>
      <ellipse id="Ellipse_524" data-name="Ellipse 524" cx="9.641" cy="16.662" rx="9.641" ry="16.662" transform="translate(12.742 24.926) rotate(-72.638)" fill="#030303" opacity="0.99" style="mix-blend-mode: multiply;isolation: isolate"/>
      <ellipse id="Ellipse_525" data-name="Ellipse 525" cx="9.592" cy="16.401" rx="9.592" ry="16.401" transform="matrix(0.298, -0.954, 0.954, 0.298, 12.87, 24.897)" style="mix-blend-mode: multiply;isolation: isolate"/>
    </g>
    <g id="Group_3898" data-name="Group 3898">
      <g id="Group_3864" data-name="Group 3864">
        <g id="Group_3863" data-name="Group 3863" style="isolation: isolate">
          <g id="Group_3861" data-name="Group 3861" transform="translate(0.847 8.439)" style="isolation: isolate">
            <g id="Group_3860" data-name="Group 3860" clip-path="url(#clip-path-6)">
              <g id="Group_3859" data-name="Group 3859" style="isolation: isolate">
                <path id="Path_6175" data-name="Path 6175" d="M386.343,306.8l2.429,5.65c3.048,7.094-2.211,17.31-14.406,25.882-16.029,11.266-37.971,15.435-49.011,9.305a11.833,11.833,0,0,1-5.372-5.612l-2.429-5.65a11.845,11.845,0,0,0,5.373,5.614c11.04,6.128,32.983,1.961,49.011-9.307,12.195-8.572,17.454-18.788,14.4-25.882Z" transform="translate(-317.554 -306.801)" fill="#816316"/>
              </g>
            </g>
          </g>
          <g id="Group_3862" data-name="Group 3862">
            <path id="Path_6177" data-name="Path 6177" d="M381.145,302.918c11.04,6.129,6.992,20.231-9.032,31.495s-37.971,15.435-49.011,9.307-6.995-20.232,9.034-31.5S370.106,296.79,381.145,302.918Z" transform="translate(-316.88 -300.092)" fill="#f8bd2a"/>
          </g>
        </g>
      </g>
      <g id="Group_3867" data-name="Group 3867" transform="translate(7.601 5.009)">
        <g id="Group_3866" data-name="Group 3866" style="isolation: isolate">
          <g id="Group_3865" data-name="Group 3865">
            <path id="Path_6178" data-name="Path 6178" d="M373.328,306.292c8.66,4.807,5.484,15.867-7.084,24.7s-29.783,12.107-38.442,7.3-5.487-15.869,7.085-24.706S364.669,301.484,373.328,306.292Z" transform="translate(-322.923 -304.074)" fill="#eda215"/>
          </g>
        </g>
      </g>
      <path id="Path_6179" data-name="Path 6179" d="M336.049,315.8c12.568-8.835,29.782-12.1,38.44-7.3a10.136,10.136,0,0,1,3.265,2.771,9.067,9.067,0,0,0-4.428-4.981c-8.659-4.807-25.872-1.54-38.44,7.3-10.549,7.416-14.476,16.4-10.351,21.935C322.652,329.989,326.806,322.294,336.049,315.8Z" transform="translate(-315.322 -299.065)" fill="#d19012"/>
      <g id="Group_3897" data-name="Group 3897" transform="translate(15.307 9.742)">
        <g id="Group_3896" data-name="Group 3896" style="isolation: isolate">
          <g id="Group_3868" data-name="Group 3868" transform="translate(29.986 1.17)">
            <path id="Path_6180" data-name="Path 6180" d="M357.944,308.768l1.644,3.734-5.055,3.287-1.644-3.734Z" transform="translate(-352.889 -308.768)" fill="#d19012"/>
          </g>
          <g id="Group_3869" data-name="Group 3869" transform="translate(19.025 6.234)">
            <path id="Path_6181" data-name="Path 6181" d="M348.974,312.793l1.644,3.734-4.8,3.122-1.644-3.734Z" transform="translate(-344.175 -312.793)" fill="#d19012"/>
          </g>
          <g id="Group_3870" data-name="Group 3870" transform="translate(9.585 12.134)">
            <path id="Path_6182" data-name="Path 6182" d="M341.839,317.484l1.644,3.734-5.169,3.362-1.644-3.734Z" transform="translate(-336.67 -317.484)" fill="#d19012"/>
          </g>
          <g id="Group_3871" data-name="Group 3871" transform="translate(23.824 6.234)">
            <path id="Path_6183" data-name="Path 6183" d="M350.8,314.819l1.644,3.734-2.805-2.026-1.644-3.734Z" transform="translate(-347.99 -312.793)" fill="#d19012"/>
          </g>
          <g id="Group_3872" data-name="Group 3872" transform="translate(32.381 2.98)">
            <path id="Path_6184" data-name="Path 6184" d="M359.962,310.206l1.644,3.734-5.169,3.362-1.644-3.734Z" transform="translate(-354.793 -310.206)" fill="#d19012"/>
          </g>
          <g id="Group_3873" data-name="Group 3873" transform="translate(1.571 15.979)">
            <path id="Path_6185" data-name="Path 6185" d="M333.75,323.035l1.644,3.734-3.452-2.494-1.644-3.734Z" transform="translate(-330.298 -320.541)" fill="#d19012"/>
          </g>
          <g id="Group_3876" data-name="Group 3876" transform="translate(26.629 8.26)" style="isolation: isolate">
            <path id="Path_6186" data-name="Path 6186" d="M350.755,315.015l1.644,3.733a1.548,1.548,0,0,0-.535-.611L350.22,314.4A1.539,1.539,0,0,1,350.755,315.015Z" transform="translate(-350.22 -314.404)" fill="#d19012"/>
            <g id="Group_3875" data-name="Group 3875" clip-path="url(#clip-path-7)">
              <g id="Group_3874" data-name="Group 3874" style="isolation: isolate">
                <path id="Path_6187" data-name="Path 6187" d="M350.755,315.015l1.644,3.733a1.548,1.548,0,0,0-.535-.611L350.22,314.4a1.539,1.539,0,0,1,.535.611Z" transform="translate(-350.22 -314.404)" fill="#d19012"/>
              </g>
            </g>
          </g>
          <g id="Group_3877" data-name="Group 3877" transform="translate(14.754 12.134)">
            <path id="Path_6189" data-name="Path 6189" d="M343.585,319.509l1.644,3.734-2.805-2.026-1.644-3.734Z" transform="translate(-340.779 -317.484)" fill="#d19012"/>
          </g>
          <g id="Group_3880" data-name="Group 3880" transform="translate(17.56 14.159)" style="isolation: isolate">
            <path id="Path_6190" data-name="Path 6190" d="M343.758,319.946l1.643,3.733a2.167,2.167,0,0,0-.747-.852l-1.644-3.733A2.174,2.174,0,0,1,343.758,319.946Z" transform="translate(-343.01 -319.094)" fill="#d19012"/>
            <g id="Group_3879" data-name="Group 3879" clip-path="url(#clip-path-8)">
              <g id="Group_3878" data-name="Group 3878" style="isolation: isolate">
                <path id="Path_6191" data-name="Path 6191" d="M343.758,319.946l1.643,3.733a2.167,2.167,0,0,0-.747-.852l-1.644-3.733a2.174,2.174,0,0,1,.748.852Z" transform="translate(-343.01 -319.094)" fill="#d19012"/>
              </g>
            </g>
          </g>
          <g id="Group_3881" data-name="Group 3881" transform="translate(6.641 19.642)">
            <path id="Path_6193" data-name="Path 6193" d="M335.22,324.093l1.644,3.734-.891-.64-1.644-3.734Z" transform="translate(-334.329 -323.453)" fill="#d19012"/>
          </g>
          <g id="Group_3882" data-name="Group 3882" transform="translate(1.618 19.642)">
            <path id="Path_6194" data-name="Path 6194" d="M335.359,323.453,337,327.186l-5.023,3.268-1.644-3.734Z" transform="translate(-330.336 -323.453)" fill="#d19012"/>
          </g>
          <g id="Group_3883" data-name="Group 3883" transform="translate(0 21.741)">
            <path id="Path_6195" data-name="Path 6195" d="M330.668,326.29l1.644,3.734-1.618-1.169-1.644-3.734Z" transform="translate(-329.05 -325.121)" fill="#d19012"/>
          </g>
          <g id="Group_3886" data-name="Group 3886" transform="translate(30.532 7.524)" style="isolation: isolate">
            <path id="Path_6196" data-name="Path 6196" d="M355.969,313.819l1.644,3.733c.777,1.767-.12,3.69-2.646,5.336l-1.644-3.734C355.85,317.509,356.748,315.585,355.969,313.819Z" transform="translate(-353.323 -313.819)" fill="#d19012"/>
            <g id="Group_3885" data-name="Group 3885" clip-path="url(#clip-path-9)">
              <g id="Group_3884" data-name="Group 3884" style="isolation: isolate">
                <path id="Path_6197" data-name="Path 6197" d="M355.969,313.819l1.644,3.733c.777,1.767-.12,3.69-2.646,5.336l-1.644-3.734c2.527-1.644,3.425-3.568,2.646-5.334Z" transform="translate(-353.323 -313.819)" fill="#d19012"/>
              </g>
            </g>
          </g>
          <g id="Group_3887" data-name="Group 3887" transform="translate(2.505 23.553)">
            <path id="Path_6199" data-name="Path 6199" d="M332.659,327.731l1.644,3.734-1.618-1.169-1.644-3.734Z" transform="translate(-331.041 -326.562)" fill="#d19012"/>
          </g>
          <g id="Group_3888" data-name="Group 3888" transform="translate(4.123 21.403)">
            <path id="Path_6200" data-name="Path 6200" d="M337.431,324.853l1.644,3.734-5.1,3.318-1.644-3.734Z" transform="translate(-332.328 -324.853)" fill="#d19012"/>
          </g>
          <g id="Group_3891" data-name="Group 3891" transform="translate(23.056 12.859)" style="isolation: isolate">
            <path id="Path_6201" data-name="Path 6201" d="M354.855,318.06l1.644,3.734c-2.467,1.6-5.333,2.239-7.475,1.654l-1.644-3.733C349.522,320.3,352.389,319.666,354.855,318.06Z" transform="translate(-347.38 -318.06)" fill="#d19012"/>
            <g id="Group_3890" data-name="Group 3890" clip-path="url(#clip-path-10)">
              <g id="Group_3889" data-name="Group 3889" style="isolation: isolate">
                <path id="Path_6202" data-name="Path 6202" d="M354.855,318.06l1.644,3.734c-2.467,1.6-5.333,2.239-7.475,1.654l-1.644-3.733c2.142.585,5.009-.049,7.475-1.655Z" transform="translate(-347.38 -318.06)" fill="#d19012"/>
              </g>
            </g>
          </g>
          <g id="Group_3894" data-name="Group 3894" transform="translate(9.227 14.933)" style="isolation: isolate">
            <path id="Path_6204" data-name="Path 6204" d="M350.455,319.709l1.644,3.733c.692,1.571-.558,3.638-3.338,5.446-3.58,2.328-7.616,2.682-10.732,1.024l-1.644-3.733c3.116,1.658,7.152,1.3,10.732-1.025C349.9,323.347,351.147,321.279,350.455,319.709Z" transform="translate(-336.385 -319.709)" fill="#d19012"/>
            <g id="Group_3893" data-name="Group 3893" clip-path="url(#clip-path-11)">
              <g id="Group_3892" data-name="Group 3892" style="isolation: isolate">
                <path id="Path_6205" data-name="Path 6205" d="M350.455,319.709l1.644,3.733c.692,1.571-.558,3.638-3.338,5.446-3.58,2.328-7.616,2.682-10.732,1.024l-1.644-3.733c3.116,1.658,7.152,1.3,10.732-1.025,2.78-1.807,4.03-3.875,3.338-5.445Z" transform="translate(-336.385 -319.709)" fill="#d19012"/>
              </g>
            </g>
          </g>
          <g id="Group_3895" data-name="Group 3895" transform="translate(0)">
            <path id="Path_6207" data-name="Path 6207" d="M359.581,320.7c-2.467,1.606-5.333,2.24-7.475,1.655,1.148,1.607-.063,3.89-3.1,5.864-3.58,2.33-7.616,2.683-10.732,1.025l-5.1,3.318-1.619-1.169,5.028-3.27-.892-.64-5.022,3.268-1.618-1.17,5.023-3.268-3.453-2.493,23.345-15.184,3.451,2.494,5.053-3.289,1.621,1.171-5.055,3.287.891.64,5.053-3.289,1.621,1.171-5.17,3.362C363.331,316.233,362.686,318.676,359.581,320.7Zm-13.422,4.454c1.57-1.021,1.738-2.225.45-3.153l-2.806-2.025-5.168,3.362,2.8,2.025a3.747,3.747,0,0,0,.351.223,4.2,4.2,0,0,0,4.368-.431Zm8.81-6.319c1.5-.975,1.724-2,.709-2.733l-2.8-2.026-4.8,3.122,2.8,2.025a2.313,2.313,0,0,0,.234.15,3.843,3.843,0,0,0,3.855-.537Z" transform="translate(-329.05 -307.837)" fill="#ffc22a"/>
          </g>
        </g>
      </g>
    </g>
  </g>
</svg>
