<svg xmlns="http://www.w3.org/2000/svg" width="38.72" height="38.72" viewBox="0 0 38.72 38.72">
  <g id="Group_3688" data-name="Group 3688" transform="translate(1500.279 -2257.998)">
    <rect id="Rectangle_88" data-name="Rectangle 88" width="38.72" height="38.72" rx="3.536" transform="translate(-1500.279 2257.998)" fill="#666"/>
    <g id="Group_495" data-name="Group 495" transform="translate(-1491.059 2264.293)">
      <g id="Group_493" data-name="Group 493" transform="translate(1.527 4.574)">
        <path id="Path_1103" data-name="Path 1103" d="M-1707.109,1956.327h.067a2.792,2.792,0,0,0,2.483,2.533h10.38a2.791,2.791,0,0,0,2.483-2.533h.067l2.109-19.332h-19.7Zm12.469-16.989h2.086l-1.438,16.509h-2.087Zm-5.716,0h2.077v16.509h-2.077Zm-3.6,0,1.56,16.509h-2.089l-1.56-16.509Z" transform="translate(1709.218 -1936.995)" fill="#fff"/>
      </g>
      <g id="Group_494" data-name="Group 494" transform="translate(0 0)">
        <path id="Path_1104" data-name="Path 1104" d="M-1689.342,1935.816h-8.427a1.69,1.69,0,0,0,.219-.836,1.564,1.564,0,0,0-1.506-1.618,1.565,1.565,0,0,0-1.507,1.618,1.693,1.693,0,0,0,.219.836h-8.842a1.3,1.3,0,0,0-1.246,1.338v.112h22.336v-.112A1.3,1.3,0,0,0-1689.342,1935.816Z" transform="translate(1710.431 -1933.362)" fill="#fff"/>
      </g>
    </g>
  </g>
</svg>
