<svg xmlns="http://www.w3.org/2000/svg" width="38.72" height="38.72" viewBox="0 0 38.72 38.72">
  <g id="Group_3687" data-name="Group 3687" transform="translate(1573.862 -2257.998)">
    <rect id="Rectangle_89" data-name="Rectangle 89" width="38.72" height="38.72" rx="3.536" transform="translate(-1573.862 2257.998)" fill="#007822"/>
    <g id="Group_496" data-name="Group 496" transform="translate(-1569.135 2262.111)">
      <path id="Path_1105" data-name="Path 1105" d="M-1746.491,1957.964h18.433v-22.54h-13.714a.658.658,0,0,1-.658-.657.658.658,0,0,1,.658-.658h14.371a.658.658,0,0,1,.658.658v23.854a.658.658,0,0,1-.658.658h-19.749a.658.658,0,0,1-.657-.658v-15.373a.658.658,0,0,1,.657-.657.658.658,0,0,1,.659.657Z" transform="translate(1751.827 -1930.987)" fill="#fffffe" fill-rule="evenodd"/>
      <path id="Path_1106" data-name="Path 1106" d="M-1735.74,1947.443l-4.279-1.446,3.386-3.388,1.435,4.248a.431.431,0,0,1,.013.312.441.441,0,0,1-.557.276Zm-5.018-1.949,3.625-3.625-7.828-7.827-3.625,3.625,7.829,7.827Zm-8.452-8.45-1.042-1.042a2.556,2.556,0,0,1-.748-1.813,2.555,2.555,0,0,1,.748-1.812,2.556,2.556,0,0,1,1.813-.748,2.556,2.556,0,0,1,1.812.748l1.042,1.042Z" transform="translate(1751 -1931.629)" fill="#fffffe"/>
    </g>
  </g>
</svg>
