<svg id="Group_5121" data-name="Group 5121" xmlns="http://www.w3.org/2000/svg" width="72.151" height="72.154" viewBox="0 0 72.151 72.154">
  <g id="Group_5104" data-name="Group 5104" transform="translate(10.798 66.346)">
    <g id="Group_5103" data-name="Group 5103">
      <path id="Path_7808" data-name="Path 7808" d="M13508.676-530.775l-2.123-2.989a1.41,1.41,0,0,0-1.965-.334,1.409,1.409,0,0,0-.332,1.966l2.121,2.989a1.408,1.408,0,0,0,1.15.593,1.409,1.409,0,0,0,.814-.26A1.412,1.412,0,0,0,13508.676-530.775Z" transform="translate(-13503.995 534.357)" fill="#fff"/>
    </g>
  </g>
  <g id="Group_5106" data-name="Group 5106" transform="translate(0 22.048)">
    <g id="Group_5105" data-name="Group 5105">
      <path id="Path_7809" data-name="Path 7809" d="M13527.105-521.331l-2.309-11a20.742,20.742,0,0,0-8.775-13.029l-4.93-3.315a4.96,4.96,0,0,0-6.287.642v-16.982a4.687,4.687,0,0,0-3.7-4.605,4.7,4.7,0,0,0-3.975.925,4.692,4.692,0,0,0-1.764,3.68v21.851a13.658,13.658,0,0,0,2.531,7.944l2.514,3.54a1.405,1.405,0,0,0,1.15.594,1.408,1.408,0,0,0,.814-.259,1.411,1.411,0,0,0,.334-1.966l-2.514-3.54a10.851,10.851,0,0,1-2.012-6.313v-21.851a1.892,1.892,0,0,1,.709-1.481,1.886,1.886,0,0,1,1.6-.372,1.886,1.886,0,0,1,1.488,1.853v17.336a9.855,9.855,0,0,0,2.539,6.612c.072.084.143.167.221.248.936.992,2.035,2.16,3.07,3.262l1.451,1.544.016.014c1.24,1.321,2.156,2.3,2.174,2.315a1.409,1.409,0,0,0,1.992.063,1.408,1.408,0,0,0,.064-1.992c-.027-.028-1.676-1.784-3.561-3.786l-3.232-3.438-.023-.028a2.379,2.379,0,0,1,.047-3.116,2.132,2.132,0,0,1,2.775-.354l4.93,3.315a17.947,17.947,0,0,1,7.59,11.269l2.309,11a1.412,1.412,0,0,0,1.379,1.121,1.451,1.451,0,0,0,.291-.03A1.409,1.409,0,0,0,13527.105-521.331Z" transform="translate(-13495.371 569.738)" fill="#fff"/>
    </g>
  </g>
  <g id="Group_5108" data-name="Group 5108" transform="translate(7.874 62.229)">
    <g id="Group_5107" data-name="Group 5107">
      <path id="Path_7810" data-name="Path 7810" d="M13504.225-537.043l-.01-.013a1.408,1.408,0,0,0-1.965-.328,1.407,1.407,0,0,0-.328,1.966l.008.013a1.408,1.408,0,0,0,1.148.591,1.4,1.4,0,0,0,.818-.263A1.411,1.411,0,0,0,13504.225-537.043Z" transform="translate(-13501.659 537.646)" fill="#fff"/>
    </g>
  </g>
  <g id="Group_5110" data-name="Group 5110" transform="translate(40.385 22.048)">
    <g id="Group_5109" data-name="Group 5109">
      <path id="Path_7811" data-name="Path 7811" d="M13557.627-568.7a4.694,4.694,0,0,0-3.975-.927,4.689,4.689,0,0,0-3.7,4.605v16.982a4.958,4.958,0,0,0-6.285-.642l-4.93,3.315a20.745,20.745,0,0,0-8.777,13.029l-2.309,11a1.409,1.409,0,0,0,1.088,1.669,1.465,1.465,0,0,0,.291.03,1.409,1.409,0,0,0,1.379-1.121l2.309-11a17.943,17.943,0,0,1,7.592-11.269l4.93-3.315a2.133,2.133,0,0,1,2.775.354,2.382,2.382,0,0,1,.049,3.114l-.027.03-6.791,7.224a1.408,1.408,0,0,0,.063,1.992,1.409,1.409,0,0,0,1.992-.063c.02-.02,5.777-6.143,6.713-7.134.078-.081.148-.164.217-.248a9.838,9.838,0,0,0,2.541-6.612v-17.336a1.886,1.886,0,0,1,1.488-1.853,1.887,1.887,0,0,1,1.6.372,1.887,1.887,0,0,1,.711,1.481v21.851a10.839,10.839,0,0,1-2.014,6.313l-10.646,15a1.41,1.41,0,0,0,.334,1.964,1.4,1.4,0,0,0,.814.26,1.408,1.408,0,0,0,1.15-.593l10.646-15a13.641,13.641,0,0,0,2.533-7.944v-21.851A4.689,4.689,0,0,0,13557.627-568.7Z" transform="translate(-13527.626 569.738)" fill="#fff"/>
    </g>
  </g>
  <g id="Group_5112" data-name="Group 5112" transform="translate(13.16 7.61)">
    <g id="Group_5111" data-name="Group 5111">
      <path id="Path_7812" data-name="Path 7812" d="M13546.646-561.87l-2.508-.6v-.45a6.306,6.306,0,0,0,2.7-5.169v-3.259a6.314,6.314,0,0,0-6.307-6.308,6.281,6.281,0,0,0-4.092,1.514,8.244,8.244,0,0,0-7.623-5.13,8.242,8.242,0,0,0-7.627,5.141,6.283,6.283,0,0,0-4.105-1.525,6.315,6.315,0,0,0-6.309,6.308v3.259a6.3,6.3,0,0,0,2.7,5.167v.451l-2.508.6a6.6,6.6,0,0,0-5.084,6.442v2.632a1.409,1.409,0,0,0,1.408,1.41h6.477c-.01.17-.018.342-.018.516v5.067a1.408,1.408,0,0,0,1.41,1.409h8.471a1.408,1.408,0,0,0,1.408-1.409,1.409,1.409,0,0,0-1.408-1.41h-1.457v-2.912a1.409,1.409,0,0,0-1.408-1.409,1.411,1.411,0,0,0-1.41,1.409v2.914h-2.787v-3.659a5.836,5.836,0,0,1,4.49-5.692l3.867-.927,2.588,5.887a1.408,1.408,0,0,0,1.291.843h0a1.411,1.411,0,0,0,1.289-.841l2.586-5.88,3.855.92a5.835,5.835,0,0,1,4.492,5.693v3.655h-2.789v-2.914a1.409,1.409,0,0,0-1.408-1.409,1.409,1.409,0,0,0-1.41,1.409v2.914h-1.6a1.408,1.408,0,0,0-1.408,1.409,1.409,1.409,0,0,0,1.408,1.41h8.613a1.409,1.409,0,0,0,1.408-1.41v-5.063c0-.174-.006-.348-.016-.52h6.492a1.41,1.41,0,0,0,1.41-1.41v-2.632A6.6,6.6,0,0,0,13546.646-561.87Zm-6.117-12.965a3.5,3.5,0,0,1,3.482,3.259h-1.961a10.273,10.273,0,0,1-4.725-1.152A3.492,3.492,0,0,1,13540.529-574.835Zm-3.49,6.543c0-.069.008-.138.008-.207v-1.255a13.092,13.092,0,0,0,5,1h1.967v.671a3.492,3.492,0,0,1-3.488,3.488,3.494,3.494,0,0,1-3.49-3.488Zm-13.639-4.747h0a5.42,5.42,0,0,1,5.414-5.413,5.422,5.422,0,0,1,5.344,4.552l-2.373-1.394a1.408,1.408,0,0,0-1.793.309,6.065,6.065,0,0,1-4.664,2.177h-1.928v-.233Zm-6.318-1.8a3.492,3.492,0,0,1,3.2,2.107,10.267,10.267,0,0,1-4.725,1.152h-1.959A3.494,3.494,0,0,1,13517.082-574.835Zm-3.49,6.078h1.967a13.093,13.093,0,0,0,5.012-1v1.669a3.492,3.492,0,0,1-3.488,3.488,3.493,3.493,0,0,1-3.49-3.488v-.671Zm6.807,9.454a8.634,8.634,0,0,0-5.986,5.1h-5.713v-1.223a3.791,3.791,0,0,1,2.92-3.7l3.59-.856a1.409,1.409,0,0,0,1.082-1.371v-.473a6.335,6.335,0,0,0,.791.05,6.265,6.265,0,0,0,.785-.05v.4l0,.063a1.4,1.4,0,0,0,.643,1.186,1.414,1.414,0,0,0,.5.2l2.1.5Zm3.934-2.189a6.75,6.75,0,0,0-1.131-.381l-2.516-.6v-.44a6.252,6.252,0,0,0,1.219-1.116,8.311,8.311,0,0,0,2.428,2.43v.108Zm6.119,2.071-1.648,3.751-1.652-3.761v-1.005a8.17,8.17,0,0,0,1.664.17,8.307,8.307,0,0,0,1.637-.164Zm-1.637-3.665a5.42,5.42,0,0,1-5.414-5.413v-1.489h1.928a8.88,8.88,0,0,0,5.988-2.312l2.9,1.706v2.3A5.416,5.416,0,0,1,13528.814-563.085Zm4.455,1.6v-.1a8.294,8.294,0,0,0,2.445-2.437,6.361,6.361,0,0,0,1.211,1.1v.44l-2.518.6A6.735,6.735,0,0,0,13533.27-561.486Zm15.643,7.282h-5.732a8.642,8.642,0,0,0-5.992-5.1l-.707-.169,2.113-.507a1.4,1.4,0,0,0,.508-.2,1.408,1.408,0,0,0,.643-1.184v-.466a6.265,6.265,0,0,0,.785.05,6.383,6.383,0,0,0,.791-.05v.473a1.409,1.409,0,0,0,1.082,1.371l3.588.856a3.794,3.794,0,0,1,2.922,3.7v1.223Z" transform="translate(-13505.881 581.269)" fill="#fff"/>
    </g>
  </g>
  <g id="Group_5114" data-name="Group 5114" transform="translate(34.666 41.667)">
    <g id="Group_5113" data-name="Group 5113">
      <path id="Path_7813" data-name="Path 7813" d="M13525.462-553.656a1.414,1.414,0,0,0-1-.412,1.409,1.409,0,0,0-.994.412,1.406,1.406,0,0,0-.414,1,1.408,1.408,0,0,0,.414,1,1.41,1.41,0,0,0,.994.413,1.415,1.415,0,0,0,1-.413,1.417,1.417,0,0,0,.414-1A1.414,1.414,0,0,0,13525.462-553.656Z" transform="translate(-13523.058 554.068)" fill="#fff"/>
    </g>
  </g>
  <g id="Group_5116" data-name="Group 5116" transform="translate(34.665)">
    <g id="Group_5115" data-name="Group 5115">
      <path id="Path_7814" data-name="Path 7814" d="M13524.466-587.347a1.409,1.409,0,0,0-1.41,1.409v2.11a1.409,1.409,0,0,0,1.41,1.409,1.409,1.409,0,0,0,1.408-1.409v-2.11A1.409,1.409,0,0,0,13524.466-587.347Z" transform="translate(-13523.056 587.347)" fill="#fff"/>
    </g>
  </g>
  <g id="Group_5118" data-name="Group 5118" transform="translate(27 2.707)">
    <g id="Group_5117" data-name="Group 5117">
      <path id="Path_7815" data-name="Path 7815" d="M13520.819-583.3l-1.479-1.476a1.411,1.411,0,0,0-1.994,0,1.412,1.412,0,0,0,0,1.993l1.48,1.477a1.4,1.4,0,0,0,.994.412,1.407,1.407,0,0,0,1-.413A1.412,1.412,0,0,0,13520.819-583.3Z" transform="translate(-13516.936 585.185)" fill="#fff"/>
    </g>
  </g>
  <g id="Group_5120" data-name="Group 5120" transform="translate(40.831 2.743)">
    <g id="Group_5119" data-name="Group 5119">
      <path id="Path_7816" data-name="Path 7816" d="M13531.854-584.743a1.407,1.407,0,0,0-1.992,0l-1.469,1.469a1.411,1.411,0,0,0,0,1.993,1.41,1.41,0,0,0,1,.412,1.4,1.4,0,0,0,1-.413l1.469-1.469A1.409,1.409,0,0,0,13531.854-584.743Z" transform="translate(-13527.981 585.156)" fill="#fff"/>
    </g>
  </g>
</svg>
