<svg xmlns="http://www.w3.org/2000/svg" width="65.605" height="62.604" viewBox="0 0 65.605 62.604">
  <g id="Group_5084" data-name="Group 5084" transform="translate(0 0)">
    <path id="Path_7795" data-name="Path 7795" d="M13046.439-830.333a16.771,16.771,0,0,1-6.684-1.381l-10.115-4.4a38.363,38.363,0,0,0-11.5-3l-3.322-.333a1.068,1.068,0,0,1-.963-1.063v-10.42a1.065,1.065,0,0,1,.213-.641c.248-.333,6.2-8.11,15.3-6.086a38.629,38.629,0,0,1,11.785,4.848,11.914,11.914,0,0,0,6.285,1.758h10.115a4.854,4.854,0,0,1,4.133,2.306l8.711-10.038a9.244,9.244,0,0,1,7.346-3.636h.65a1.067,1.067,0,0,1,.9.484,1.065,1.065,0,0,1,.082,1.014l-7.879,17.907a14.034,14.034,0,0,1-9.381,7.913l-1.387.346-8.064,3.225A16.76,16.76,0,0,1,13046.439-830.333ZM13016-841.471l2.357.235a40.556,40.556,0,0,1,12.141,3.164l10.113,4.4a14.707,14.707,0,0,0,11.26.167l8.131-3.252a1.1,1.1,0,0,1,.139-.044l1.457-.365a11.89,11.89,0,0,0,7.943-6.7l7.186-16.332a7.143,7.143,0,0,0-4.662,2.766l-9.65,11.122c0,.041,0,.083,0,.125a4.864,4.864,0,0,1-4.859,4.858h-14.111a17.017,17.017,0,0,0-5.389.874l-.393-1-.332-1.017.055-.018a19.128,19.128,0,0,1,6.059-.982h14.111a2.724,2.724,0,0,0,2.721-2.721,2.722,2.722,0,0,0-2.721-2.719h-10.115a14.031,14.031,0,0,1-7.412-2.08,36.5,36.5,0,0,0-11.121-4.578c-6.889-1.526-11.844,3.759-12.908,5.02v9.074Z" transform="translate(-13013.857 892.937)" fill="#fff"/>
    <path id="Path_7796" data-name="Path 7796" d="M13048.837-859.4a12.555,12.555,0,0,1-5.518-1.523,1.075,1.075,0,0,1-.528-.6c-.083-.232-1.993-5.727,1.043-9.79,2.205-2.954,6.355-4.285,12.337-3.952a1.069,1.069,0,0,1,1.009,1.014c.021.424.461,10.446-4.648,13.781A6.6,6.6,0,0,1,13048.837-859.4Zm-4.154-3.239c2.809,1.317,5.053,1.446,6.681.384,3.03-1.979,3.686-7.854,3.7-10.911-4.688-.115-7.879.942-9.518,3.134C13043.6-867.421,13044.354-863.829,13044.683-862.641Z" transform="translate(-13006.733 889.685)" fill="#fff"/>
    <path id="Path_7797" data-name="Path 7797" d="M13036.531-870.517a10.006,10.006,0,0,1-5.993-1.8c-3.236-2.371-4.724-6.889-4.421-13.423a1.068,1.068,0,0,1,1-1.018c.462-.026,11.409-.61,15.091,4.919,1.716,2.573,1.575,5.943-.416,10.019a1.067,1.067,0,0,1-.592.535A14.785,14.785,0,0,1,13036.531-870.517Zm4.306-1.775h0Zm-12.615-12.365c-.094,5.234,1.109,8.8,3.581,10.611,2.958,2.167,7,1.247,8.267.876,1.454-3.153,1.576-5.671.365-7.489C13038.184-884.036,13031.581-884.7,13028.222-884.657Z" transform="translate(-13010.776 886.792)" fill="#fff"/>
    <path id="Path_7798" data-name="Path 7798" d="M13043.574-844.515c-.033,0-.066,0-.1-.005a1.067,1.067,0,0,1-.965-1.118c.061-1.258.17-2.452.316-3.581.443-7.566.215-25.185-10.926-30.06a1.068,1.068,0,0,1-.551-1.409,1.07,1.07,0,0,1,1.408-.55c6.564,2.871,10.693,10.022,11.941,20.678.111.955.2,1.9.258,2.813,2.934-7.413,7.422-10.033,7.688-10.183a1.071,1.071,0,0,1,1.457.407,1.07,1.07,0,0,1-.4,1.455c-.113.065-7,4.2-8.723,16.933-.133,2.18-.322,3.568-.34,3.7A1.069,1.069,0,0,1,13043.574-844.515Z" transform="translate(-13009.472 888.169)" fill="#fff"/>
  </g>
</svg>
