<svg xmlns="http://www.w3.org/2000/svg" xmlns:xlink="http://www.w3.org/1999/xlink" width="120.657" height="120.657" viewBox="0 0 120.657 120.657">
  <defs>
    <filter id="Ellipse_528" x="0" y="0" width="120.657" height="120.657" filterUnits="userSpaceOnUse">
      <feOffset dx="2" dy="2" input="SourceAlpha"/>
      <feGaussianBlur stdDeviation="2.5" result="blur"/>
      <feFlood flood-opacity="0.549"/>
      <feComposite operator="in" in2="blur"/>
      <feComposite in="SourceGraphic"/>
    </filter>
  </defs>
  <g id="Group_3922" data-name="Group 3922" transform="translate(-756.686 -534.108)">
    <g transform="matrix(1, 0, 0, 1, 756.69, 534.11)" filter="url(#Ellipse_528)">
      <circle id="Ellipse_528-2" data-name="Ellipse 528" cx="52.829" cy="52.829" r="52.829" transform="translate(5.5 5.5)" fill="#fff"/>
    </g>
    <g id="Group_3913" data-name="Group 3913" transform="translate(793.484 559.84)">
      <path id="Path_6225" data-name="Path 6225" d="M665.949,465.57l-3.285-5.233c-6.175-16.388-15.649-15.2-15.006-15.25l.006,1.28.1-.008a8.754,8.754,0,0,1,4.663,1.56c2.508,1.575,6.112,5.087,9.042,12.868l.045.12,3.288,5.238a56.977,56.977,0,0,1,3.445,18.1h0c.06,13.748-6.773,21.693-20.311,23.616l.006,1.288C681.438,504.537,665.949,465.57,665.949,465.57Z" transform="translate(-626.25 -445.085)" fill="#00973a"/>
      <path id="Path_6226" data-name="Path 6226" d="M631.909,484.432h0a57.006,57.006,0,0,1,3.284-18.133l3.241-5.267.044-.121c2.863-7.806,6.435-11.349,8.928-12.947a8.77,8.77,0,0,1,4.649-1.6l.1.008-.005-1.28s-8.986-.669-14.871,15.382l-3.238,5.262s-15.143,39.1,18.392,43.421l-.005-1.288C638.873,506.063,631.969,498.179,631.909,484.432Z" transform="translate(-630.632 -445.085)" fill="#00973a"/>
      <path id="Path_6227" data-name="Path 6227" d="M651.845,503.445c5.693-.769,10.024-2.757,12.871-5.922,2.945-3.272,4.492-8,4.6-14.047h0a53.549,53.549,0,0,0-2.756-16.764l-3.166-5.3-.148-.424c-2.591-7.377-5.811-10.347-7.5-11.461a6.35,6.35,0,0,0-2.818-1.135l-1.386.018-1.386-.005a6.356,6.356,0,0,0-2.807,1.158c-1.678,1.13-4.87,4.128-7.4,11.528l-.145.425-3.12,5.331a53.6,53.6,0,0,0-2.606,16.788h0c.162,6.049,1.752,10.761,4.724,14.006,2.877,3.14,7.222,5.089,12.92,5.807v.019l.059-.009.059.009Zm-12.052-21.6a15.977,15.977,0,0,1,1.225-6.251,11.244,11.244,0,0,1,21.294-.094,15.987,15.987,0,0,1,1.28,6.24c.034,7.543-6.24,13.686-12.476,13.768C644.888,495.484,639.826,489.39,639.792,481.848Z" transform="translate(-629.746 -444.234)" fill="#00973a"/>
    </g>
  </g>
</svg>
