<svg id="Group_5086" data-name="Group 5086" xmlns="http://www.w3.org/2000/svg" width="98.969" height="62.603" viewBox="0 0 98.969 62.603">
  <g id="Group_5085" data-name="Group 5085">
    <path id="Path_7799" data-name="Path 7799" d="M13590.5-857.156l-2.562-10.25a1.552,1.552,0,0,0,1.229-1.515v-1.653a6.516,6.516,0,0,0-6.51-6.508h-11.674v-3.409a3.2,3.2,0,0,0-3.2-3.2h-59.506a3.2,3.2,0,0,0-3.2,3.2v28.1a1.55,1.55,0,0,0,1.551,1.55,1.549,1.549,0,0,0,1.547-1.55v-28.1a.1.1,0,0,1,.1-.1h59.506a.1.1,0,0,1,.1.1v28.1a1.55,1.55,0,0,0,1.551,1.55,1.549,1.549,0,0,0,1.549-1.55v-1.757h18.289a5.071,5.071,0,0,1,4.814,3.513h-4.818a1.549,1.549,0,0,0-1.549,1.549v3.307a4.86,4.86,0,0,0,4.855,4.854h1.756v6.819h-4.053a9.828,9.828,0,0,0-9.273-6.612,9.828,9.828,0,0,0-9.275,6.612h-.746v-11.674a1.549,1.549,0,0,0-1.549-1.549,1.549,1.549,0,0,0-1.551,1.549v11.674h-32.148a9.832,9.832,0,0,0-9.275-6.612,9.83,9.83,0,0,0-9.275,6.612h-8.908a.1.1,0,0,1-.1-.1v-3.409h6.715a1.549,1.549,0,0,0,1.551-1.549,1.55,1.55,0,0,0-1.551-1.55h-14.875a1.551,1.551,0,0,0-1.551,1.55,1.551,1.551,0,0,0,1.551,1.549h5.063v3.409a3.2,3.2,0,0,0,3.2,3.2h8.371c0,.035,0,.069,0,.1a9.825,9.825,0,0,0,9.814,9.815,9.826,9.826,0,0,0,9.814-9.815c0-.034,0-.068,0-.1h34.922c0,.035,0,.069,0,.1a9.826,9.826,0,0,0,9.814,9.815,9.823,9.823,0,0,0,9.813-9.815c0-.034,0-.068,0-.1h5.066a1.55,1.55,0,0,0,1.549-1.55v-16.528A8.175,8.175,0,0,0,13590.5-857.156Zm-19.518-16.828h11.674a3.414,3.414,0,0,1,3.41,3.409v.1h-15.084Zm0,16.735v-10.124h13.77l2.531,10.124Zm-44.523,33.058a6.724,6.724,0,0,1-6.717-6.715,6.723,6.723,0,0,1,6.717-6.715,6.723,6.723,0,0,1,6.715,6.715A6.723,6.723,0,0,1,13526.463-824.191Zm54.545,0a6.722,6.722,0,0,1-6.715-6.715,6.721,6.721,0,0,1,6.715-6.715,6.723,6.723,0,0,1,6.715,6.715A6.723,6.723,0,0,1,13581.008-824.191Zm13.326-19.835h-1.756a1.759,1.759,0,0,1-1.758-1.757v-1.755h3.514v3.512Z" transform="translate(-13498.465 883.695)" fill="#fff"/>
  </g>
</svg>
