<svg xmlns="http://www.w3.org/2000/svg" width="62.554" height="62.603" viewBox="0 0 62.554 62.603">
  <path id="Path_7805" data-name="Path 7805" d="M13076.3-618.129a25.108,25.108,0,0,0-2.182-4.967.935.935,0,0,0-.989-.417,25.063,25.063,0,0,0-5.082,1.9c-3.6,1.8-6.122,4.2-7.283,6.946a13.438,13.438,0,0,0-.418,8.167,26.085,26.085,0,0,0-4.891-4.256,37.9,37.9,0,0,0-4.25-6.513.917.917,0,0,0-1.424,1.156,36.913,36.913,0,0,1,3.385,4.978l-8.354-1.629-7.937-10.825a12.924,12.924,0,0,1,2.313.235,15.838,15.838,0,0,1,7.164,3.692.918.918,0,0,0,1.19-1.4,17.638,17.638,0,0,0-8-4.1c-4.2-.823-9.1.257-14.175,3.123a36.652,36.652,0,0,0-6.413,4.58.972.972,0,0,0-.108,1.26,37.4,37.4,0,0,0,4.114,6.457,28.637,28.637,0,0,0,4.334,4.456q-.64.537-1.244,1.125a21.115,21.115,0,0,0-4.875,7.292,21.189,21.189,0,0,0-1.5,7.628,21.074,21.074,0,0,0,3.639,12.112,21.169,21.169,0,0,0,9.593,7.768.918.918,0,0,0,.689-1.7,19.393,19.393,0,0,1-3.968-2.181,10.334,10.334,0,0,0-1.557-7.233c-.292-.453.578-2.231,1.1-3.294a17.13,17.13,0,0,0,1.348-3.292,2.511,2.511,0,0,0-.893-2.75,6.785,6.785,0,0,0-2.18-.967,4.7,4.7,0,0,1-1.2-.468,12.185,12.185,0,0,1-1.553-2.527,15.7,15.7,0,0,0-1.677-2.755,19.509,19.509,0,0,1,5.789-7.628,16.048,16.048,0,0,0,7.728,2.871c-3.239,2.512-4.289,5.718-2.79,8.8,1.75,3.6,5.353,3.022,8.53,2.517.55-.088,1.118-.179,1.664-.247.2-.025.265.03.307.066.7.619.675,3.576.66,5.734-.021,2.986-.039,5.807,1.072,7.254a2.8,2.8,0,0,0,2.3,1.116,4.62,4.62,0,0,0,1.811-.409c2.767-1.184,5.641-4.749,5.2-7.57-.384-2.467-.637-4.1-.039-5.409.553-1.216,1.889-2.34,4.521-3.776a19.283,19.283,0,0,1,.457,4.411,19.234,19.234,0,0,1-5.818,13.629,19.476,19.476,0,0,1-15.685,5.4.918.918,0,0,0-.2,1.824,21.321,21.321,0,0,0,17.167-5.917,21.066,21.066,0,0,0,6.372-14.919,21.2,21.2,0,0,0-9.636-17.99c1.212-.864,2.115-1.611,2.615-2.045a24.419,24.419,0,0,1,5.612,5.624,24.184,24.184,0,0,1,4.229,18.145,24.371,24.371,0,0,1-27.986,20.05,24.184,24.184,0,0,1-15.821-9.839,24.18,24.18,0,0,1-4.23-18.145.918.918,0,0,0-1.81-.3,26,26,0,0,0,4.549,19.512,26.012,26.012,0,0,0,17.016,10.581,26.53,26.53,0,0,0,4.319.356,25.993,25.993,0,0,0,15.192-4.9,26,26,0,0,0,10.58-17.014,26,26,0,0,0-1.816-14.712,26.477,26.477,0,0,0,4.229-1.667c3.6-1.8,6.122-4.2,7.281-6.946S13077.519-614.29,13076.3-618.129Zm-53.229,25.217a11.452,11.452,0,0,0,2,3.078,5.286,5.286,0,0,0,1.836.816c1.793.551,2,.821,1.83,1.53a16.083,16.083,0,0,1-1.213,2.919c-.947,1.937-1.842,3.767-.994,5.09a8.727,8.727,0,0,1,1.389,4.866,19.544,19.544,0,0,1-5.651-19.776C13022.53-593.929,13022.814-593.392,13023.067-592.913Zm44.372-18.022-2.606-6.315a17.131,17.131,0,0,1,3.992-2.708,24.629,24.629,0,0,1,2.9-1.219Zm5.975-9.532a24.513,24.513,0,0,1,1.146,2.932,17.494,17.494,0,0,1,.832,4.421l-6.109,2.52Zm-10.966,6.511a8.755,8.755,0,0,1,1.025-1.78l2.967,7.189-2.663,6.367a24.632,24.632,0,0,1-1.188-3.02C13061.839-607.572,13061.206-611.016,13062.448-613.956Zm5.877,11.178a24.436,24.436,0,0,1-2.807,1.188l2.763-6.606,7.033-2.9a8.815,8.815,0,0,1-.613,2.319C13073.458-605.839,13070.548-603.892,13068.325-602.778Zm-33.069-.522c-.324-.063-.645-.14-.96-.229l10.15-7.44,8.357,1.629C13049.76-606.941,13042.351-601.91,13035.256-603.3Zm-9.277-5.738a35.764,35.764,0,0,1-4.676-6.443l10.637,2.075Zm1.88-12.235,4.449,6.069-10.705-2.086A36.166,36.166,0,0,1,13027.858-621.273Zm7.1,6.587-5.395-7.36a20.664,20.664,0,0,1,5.125-1.419l7.464,10.179Zm-.571,1.757,7.606,1.483-9.762,7.155a18.985,18.985,0,0,1-4.947-3.431Zm24.885,17.91c-3.3,1.762-4.924,3.145-5.693,4.833-.825,1.812-.521,3.757-.1,6.449.247,1.588-1.64,4.544-4.112,5.6-.914.392-1.566.346-1.937-.138-.729-.949-.708-3.819-.693-6.125.021-3.19.042-5.946-1.276-7.117a2.156,2.156,0,0,0-1.751-.517c-.576.071-1.16.165-1.727.255-3.371.537-5.493.752-6.592-1.508-1.781-3.659,1.823-6.369,3.457-7.365a5.844,5.844,0,0,0,.926-.707,26.676,26.676,0,0,0,11-4.285A19.465,19.465,0,0,1,13059.274-595.02Z" transform="translate(-13014.684 625.425)" fill="#fff"/>
</svg>
