<svg id="Group_5082" data-name="Group 5082" xmlns="http://www.w3.org/2000/svg" width="108.374" height="59.524" viewBox="0 0 108.374 59.524">
  <g id="Group_5081" data-name="Group 5081">
    <g id="Group_5067" data-name="Group 5067" transform="translate(36.12 12.653)">
      <path id="Path_7775" data-name="Path 7775" d="M13044.516-1125.949a8.98,8.98,0,0,0,.481-1.66,9.109,9.109,0,0,1,1.412-3.969c.078-.1.188-.214.249-.287.126-.147.311-.3.445-.44a2.014,2.014,0,0,1,.2-.194c.221-.182.45-.333.682-.491l.225-.141a1.914,1.914,0,0,1,.368-.174,5.049,5.049,0,0,1,.679-.179,3.658,3.658,0,0,1,.373-.064c.185,0,.373-.011.559-.006s.37.05.554.075c.117.035.243.06.362.109a5.3,5.3,0,0,1,.651.26,2,2,0,0,1,.344.218c.053.042.208.169.208.169.208.185.418.363.613.57a2.062,2.062,0,0,1,.175.217c.115.154.281.332.387.492.052.08.147.207.213.314a9.118,9.118,0,0,1,.916,4.113,11.681,11.681,0,0,0,.68,3.081,8.216,8.216,0,0,0,.337-1.762,16.753,16.753,0,0,1,.4-2.748,12.667,12.667,0,0,0-.937-3.5,4.378,4.378,0,0,0-.6-1l-.135-.156a2.057,2.057,0,0,0-.143-.168,3.069,3.069,0,0,0-.413-.448,7.086,7.086,0,0,0-.929-.715c-.1-.06-.181-.1-.287-.164a3.992,3.992,0,0,0-1.232-.483,1.189,1.189,0,0,1-.231-.042l-.029-.005c0-.109.011-.215.015-.325.008-.133.019-.276.028-.418.023-.291.044-.59.052-.88h0a1.279,1.279,0,0,0-.33-.983l-.041-.03c-.014-.006-.023-.013-.033-.018a.2.2,0,0,0-.108-.04,1.676,1.676,0,0,0-.214-.046,1.852,1.852,0,0,0-.219.019.229.229,0,0,0-.114.028l-.032.014-.046.024a1.284,1.284,0,0,0-.446.935h0c-.03.289-.045.59-.059.879-.007.144-.015.287-.021.419-.012.109-.019.217-.027.324h-.03a1.129,1.129,0,0,1-.232.014,4.018,4.018,0,0,0-1.284.329c-.112.046-.2.08-.306.126a7.312,7.312,0,0,0-1.008.6,3.026,3.026,0,0,0-.466.395c-.056.047-.111.1-.162.149l-.153.139a4.349,4.349,0,0,0-.719.919,12.306,12.306,0,0,0-1.248,2.931c.007.021.021.049.029.07A12.02,12.02,0,0,1,13044.516-1125.949Z" transform="translate(-13043.881 1137.872)" fill="#fff"/>
    </g>
    <g id="Group_5068" data-name="Group 5068" transform="translate(36.046 9.088)">
      <path id="Path_7776" data-name="Path 7776" d="M13048.965-1136.648c0-.045-.014-.089-.02-.133l-.043-.263a3.839,3.839,0,0,0-.291-.875l-.037-.061a2.722,2.722,0,0,0-.193-.4,5.977,5.977,0,0,0-.332-.532,2.621,2.621,0,0,0-.2-.286c-.084-.086-.17-.171-.262-.253-.1-.105-.211-.188-.334-.293l-.23-.194a2.614,2.614,0,0,0-.258-.159,2.9,2.9,0,0,0-.5-.254c-.145-.054-.295-.118-.441-.178a4.185,4.185,0,0,0-.895-.188h-.053a2.166,2.166,0,0,0-.492.052c-.186.05-.234.131-.262.2a.083.083,0,0,0-.006.03.188.188,0,0,0-.156.094,1.206,1.206,0,0,0-.139.7,3.154,3.154,0,0,0,.1.6,2.52,2.52,0,0,0,.084.293l.121.279.092.213a1.248,1.248,0,0,0,.111.224l.168.3a1.665,1.665,0,0,0,.193.291,4.118,4.118,0,0,1,.246.333,2.879,2.879,0,0,0,.26.273c.061.058.125.118.2.177l.238.161c.111.073.217.155.311.212a4.068,4.068,0,0,0,1.367.581c.09.015.16.036.254.056.15.026.287.06.449.078a5.8,5.8,0,0,0,.781.044h.227a8.67,8.67,0,0,0-.035-.953Zm-1.273-.149c-.027,0-.051-.008-.078-.013l-.152-.026a3.135,3.135,0,0,1-.383-.11,2.7,2.7,0,0,1-.34-.138c-.115-.046-.221-.108-.332-.164a2.108,2.108,0,0,1-.352-.259c-.066-.055-.125-.119-.187-.177a3.485,3.485,0,0,1-.516-.7,1.616,1.616,0,0,1-.119-.264c-.035-.1-.082-.187-.109-.287l-.082-.3h0c-.016-.066-.041-.129-.057-.192s-.033-.123-.053-.179l-.01-.024a2.723,2.723,0,0,0,.264.075c.174.063.359.1.531.163l.256.1c.043.017.086.033.127.051l.117.065.16.091.086.05.078.065.166.135a.591.591,0,0,1,.074.064c.092.105.205.2.3.308l.084.113a2.046,2.046,0,0,1,.164.254,2.276,2.276,0,0,1,.137.268c.039.09.084.182.117.283a2.862,2.862,0,0,1,.125.431l.043.233.008.058c0,.023,0,.007,0,.012l0,.006,0,.011h0l-.016,0Z" transform="translate(-13043.82 1140.719)" fill="#fff"/>
    </g>
    <g id="Group_5069" data-name="Group 5069" transform="translate(66.982 7.384)">
      <path id="Path_7777" data-name="Path 7777" d="M13073.009-1141.817a.191.191,0,0,0-.171-.07.118.118,0,0,0-.012-.029.335.335,0,0,0-.294-.16,2.3,2.3,0,0,0-.5.023l-.054.01a4.3,4.3,0,0,0-.873.327c-.138.084-.279.172-.417.248a3.031,3.031,0,0,0-.464.332,2.6,2.6,0,0,0-.233.2l-.206.233c-.1.124-.2.223-.29.346-.078.095-.155.2-.225.3a2.4,2.4,0,0,0-.161.318,5.638,5.638,0,0,0-.253.589,3.022,3.022,0,0,0-.135.433l-.025.068a3.8,3.8,0,0,0-.159.928l0,.272c0,.045,0,.09,0,.136l0,.169a8.331,8.331,0,0,0,.11.968l.229-.035a6.112,6.112,0,0,0,.78-.164c.161-.044.293-.1.441-.148.092-.035.158-.068.247-.1a4.183,4.183,0,0,0,1.288-.8c.088-.071.183-.172.283-.262l.216-.2c.062-.07.116-.14.169-.208a2.6,2.6,0,0,0,.219-.314c.064-.143.136-.266.2-.373a1.77,1.77,0,0,0,.152-.324l.122-.328a1.216,1.216,0,0,0,.077-.243l.061-.229.078-.3a2.316,2.316,0,0,0,.04-.308,3.052,3.052,0,0,0,.011-.619A1.212,1.212,0,0,0,13073.009-1141.817Zm-.777.781a1.313,1.313,0,0,0-.028.2c-.007.07-.023.141-.029.217h0l-.038.339c-.015.113-.05.219-.073.328a1.51,1.51,0,0,1-.085.305,3.637,3.637,0,0,1-.443.838c-.059.073-.109.151-.172.222a2.3,2.3,0,0,1-.338.339c-.112.078-.216.161-.332.23a2.865,2.865,0,0,1-.343.205,3.535,3.535,0,0,1-.4.182l-.16.055c-.028.009-.054.019-.082.026l-.058.016-.015.005h0l0-.012,0-.008v-.078l.008-.258a3.059,3.059,0,0,1,.063-.487,2.985,2.985,0,0,1,.082-.326,1.96,1.96,0,0,1,.1-.311,1.763,1.763,0,0,1,.134-.3l.071-.135c.086-.134.192-.253.274-.383a.739.739,0,0,1,.071-.081l.156-.174.074-.083.083-.069.159-.124.116-.09c.04-.027.086-.05.129-.076l.259-.153c.176-.1.37-.168.549-.264.086-.036.184-.076.272-.124Z" transform="translate(-13068.529 1142.08)" fill="#fff"/>
    </g>
    <g id="Group_5070" data-name="Group 5070" transform="translate(60.446 11.374)">
      <path id="Path_7778" data-name="Path 7778" d="M13064.607-1124.3a11.607,11.607,0,0,0,.3-3.1,9.3,9.3,0,0,1,.44-4.276c.054-.118.135-.258.179-.344.088-.175.233-.375.332-.544a2.194,2.194,0,0,1,.15-.24c.175-.233.367-.438.557-.651l.188-.2a2.068,2.068,0,0,1,.324-.262,5.462,5.462,0,0,1,.629-.342,3.651,3.651,0,0,1,.354-.153c.183-.048.367-.1.552-.143s.379-.039.567-.059c.125.006.256,0,.384.02a5.2,5.2,0,0,1,.709.1,1.808,1.808,0,0,1,.394.133c.063.027.246.116.246.116.252.133.5.258.748.416a2.482,2.482,0,0,1,.226.173c.151.124.358.259.5.393.071.066.2.169.289.26a9.347,9.347,0,0,1,1.9,3.854,13.363,13.363,0,0,0,1.676,3.3c.2.315.388.617.562.916.028-.066.064-.13.089-.2.221-.59.449-1.11.675-1.57a12.251,12.251,0,0,1-1.492-2.9,13.645,13.645,0,0,0-2.229-4.549,4.474,4.474,0,0,0-.838-.846l-.172-.123c-.059-.048-.12-.09-.183-.132a3.058,3.058,0,0,0-.519-.344,7.528,7.528,0,0,0-1.092-.485c-.113-.034-.205-.059-.325-.091a4.137,4.137,0,0,0-1.339-.182,1.141,1.141,0,0,1-.238.015h-.03c-.022-.108-.042-.217-.064-.326-.025-.133-.048-.277-.072-.422-.049-.292-.1-.595-.164-.884h0a1.309,1.309,0,0,0-.565-.9l-.047-.02a.189.189,0,0,1-.036-.01.228.228,0,0,0-.118-.013,1.711,1.711,0,0,0-.224.006,1.942,1.942,0,0,0-.212.071.23.23,0,0,0-.106.054.178.178,0,0,1-.03.023l-.037.035a1.3,1.3,0,0,0-.216,1.036h0c.04.294.1.595.155.886.026.143.055.287.079.419.015.111.034.219.052.328l-.028.009a1.145,1.145,0,0,1-.23.07,4.136,4.136,0,0,0-1.19.636c-.1.074-.179.129-.272.2a7.307,7.307,0,0,0-.854.835,3.042,3.042,0,0,0-.367.5c-.044.06-.087.123-.125.187l-.117.174a4.512,4.512,0,0,0-.49,1.086,12.649,12.649,0,0,0-.531,3.282,16.153,16.153,0,0,1,.757,2.956A8.517,8.517,0,0,0,13064.607-1124.3Z" transform="translate(-13063.31 1138.894)" fill="#fff"/>
    </g>
    <g id="Group_5071" data-name="Group 5071" transform="translate(57.405 7.929)">
      <path id="Path_7779" data-name="Path 7779" d="M13066.777-1138.549c-.016-.042-.036-.084-.052-.125l-.106-.249a3.945,3.945,0,0,0-.5-.8l-.049-.053a3.081,3.081,0,0,0-.29-.349,5.529,5.529,0,0,0-.459-.447,2.064,2.064,0,0,0-.271-.233c-.1-.066-.21-.13-.319-.188-.127-.08-.256-.135-.4-.21l-.279-.136c-.095-.041-.2-.064-.293-.095a2.962,2.962,0,0,0-.554-.13c-.157-.019-.323-.045-.482-.07a4.276,4.276,0,0,0-.931.03l-.052.012a2.216,2.216,0,0,0-.476.17c-.173.095-.2.188-.211.26a.083.083,0,0,0,0,.031.188.188,0,0,0-.131.13,1.223,1.223,0,0,0,.033.73,3.2,3.2,0,0,0,.246.567,2.784,2.784,0,0,0,.153.269l.188.248.145.188a1.174,1.174,0,0,0,.163.2l.238.258a1.663,1.663,0,0,0,.263.24c.1.078.21.164.326.27a2.633,2.633,0,0,0,.322.208c.074.042.151.086.234.128l.278.1c.125.044.25.1.358.134a4.163,4.163,0,0,0,1.494.244c.095-.008.167,0,.267-.006.155-.01.3-.01.464-.031a5.976,5.976,0,0,0,.783-.145l.226-.055a8.146,8.146,0,0,0-.269-.937Zm-1.033.274h-.017l-.062.008c-.029,0-.059.005-.088.006l-.175.011a3.685,3.685,0,0,1-.453-.016,3.348,3.348,0,0,1-.41-.062c-.138-.02-.272-.06-.411-.091a2.356,2.356,0,0,1-.457-.192c-.088-.042-.169-.1-.253-.144a3.758,3.758,0,0,1-.756-.627,1.744,1.744,0,0,1-.2-.259c-.063-.1-.14-.184-.2-.287l-.171-.311h0c-.034-.069-.079-.131-.115-.2a1.908,1.908,0,0,0-.1-.183l-.018-.024c.105.01.213.01.311.011.209.021.423.012.631.036l.309.045c.051.007.1.011.153.021l.146.041.2.056.106.031.1.051.22.105a.764.764,0,0,1,.1.049c.129.093.277.165.413.259l.122.1a1.865,1.865,0,0,1,.249.237,2.119,2.119,0,0,1,.222.258,2.844,2.844,0,0,1,.207.281,3.45,3.45,0,0,1,.255.441l.109.245.023.061c.01.024,0,.008.006.014l0,.005,0,.014Z" transform="translate(-13060.881 1141.645)" fill="#fff"/>
    </g>
    <g id="Group_5072" data-name="Group 5072" transform="translate(86.541 18.872)">
      <path id="Path_7780" data-name="Path 7780" d="M13085.271-1132.75l-.274.091c-.126.04-.25.092-.356.12a3.4,3.4,0,0,1-.488.11,37.823,37.823,0,0,1,5.8,20.159,38.074,38.074,0,0,1-1.412,10.244h1.494a39.606,39.606,0,0,0,1.367-10.244,39.283,39.283,0,0,0-5.834-20.636c-.022.012-.041.025-.062.038C13085.431-1132.829,13085.354-1132.787,13085.271-1132.75Z" transform="translate(-13084.151 1132.905)" fill="#fff"/>
    </g>
    <g id="Group_5073" data-name="Group 5073" transform="translate(14.77)">
      <path id="Path_7781" data-name="Path 7781" d="M13029.689-1098.225a38.123,38.123,0,0,1-1.412-10.244,38.1,38.1,0,0,1,38.061-38.06,38.025,38.025,0,0,1,30.627,15.5l.043-.042a2.853,2.853,0,0,1,.293-.333,5.582,5.582,0,0,1,.465-.425,2.262,2.262,0,0,1,.26-.21,39.48,39.48,0,0,0-31.687-15.936,39.552,39.552,0,0,0-39.508,39.509,39.52,39.52,0,0,0,1.365,10.244h1.494Z" transform="translate(-13026.83 1147.978)" fill="#fff"/>
    </g>
    <g id="Group_5074" data-name="Group 5074" transform="translate(22.091 15.049)">
      <path id="Path_7782" data-name="Path 7782" d="M13047.788-1122.444a11.308,11.308,0,0,1-.451-2.975c.014-.361.01-.692,0-1.012a12.02,12.02,0,0,0-.605-3.611c-.008-.021-.022-.049-.029-.07a3.983,3.983,0,0,0-.454-.914l-.112-.156a1.561,1.561,0,0,0-.12-.169,2.791,2.791,0,0,0-.351-.453,6.929,6.929,0,0,0-.81-.744c-.088-.063-.16-.111-.256-.175a3.763,3.763,0,0,0-1.114-.552,1.1,1.1,0,0,1-.212-.058l-.027-.007c.014-.1.027-.2.04-.3.018-.123.039-.255.061-.389.044-.269.09-.547.119-.819h0a1.212,1.212,0,0,0-.229-.947l-.036-.031-.028-.019a.193.193,0,0,0-.1-.046,1.851,1.851,0,0,0-.2-.061,1.857,1.857,0,0,0-.205,0,.211.211,0,0,0-.109.015l-.033.011-.042.019a1.2,1.2,0,0,0-.494.839h0c-.052.268-.09.548-.126.818-.019.134-.035.268-.054.391-.02.1-.034.2-.052.3h-.028a1.136,1.136,0,0,1-.219-.006,3.76,3.76,0,0,0-1.227.2c-.109.034-.194.059-.3.094a6.59,6.59,0,0,0-.99.476,2.781,2.781,0,0,0-.468.331,1.9,1.9,0,0,0-.164.126l-.155.118a4.167,4.167,0,0,0-.746.8,12.539,12.539,0,0,0-1.922,4.247,11.347,11.347,0,0,1-1.3,2.716,9.4,9.4,0,0,0-1.576,3.968l1.55.184a6.934,6.934,0,0,1,1.274-3.416,12.326,12.326,0,0,0,1.447-3.079,8.58,8.58,0,0,1,1.643-3.6c.08-.087.193-.184.258-.247.127-.128.314-.257.45-.376a2,2,0,0,1,.2-.165c.221-.151.449-.274.677-.4,0,0,.166-.086.223-.114a1.815,1.815,0,0,1,.357-.133,4.786,4.786,0,0,1,.649-.113,3.47,3.47,0,0,1,.354-.029c.174.012.35.019.522.038s.344.078.512.116a3.085,3.085,0,0,1,.329.13,4.848,4.848,0,0,1,.59.3,1.724,1.724,0,0,1,.3.232c.046.043.181.174.181.174.181.19.361.373.529.582a2.281,2.281,0,0,1,.146.218c.095.153.234.331.32.49.043.079.121.205.175.312a8.554,8.554,0,0,1,.524,3.92,12.3,12.3,0,0,0,.489,3.367,7.714,7.714,0,0,1,.3,3.285l1.538.183A10.4,10.4,0,0,0,13047.788-1122.444Z" transform="translate(-13032.676 1135.959)" fill="#fff"/>
    </g>
    <g id="Group_5075" data-name="Group 5075" transform="translate(26.226 26.473)">
      <path id="Path_7783" data-name="Path 7783" d="M13043.551-1122.464a3.813,3.813,0,0,0-3.208-4.328,3.811,3.811,0,0,0-4.327,3.208,3.778,3.778,0,0,0,.045,1.3l1.426.169a2.462,2.462,0,0,1-.158-1.273,2.484,2.484,0,0,1,2.818-2.09,2.484,2.484,0,0,1,2.09,2.82,2.448,2.448,0,0,1-.436,1.059l1.423.169A3.738,3.738,0,0,0,13043.551-1122.464Z" transform="translate(-13035.979 1126.834)" fill="#fff"/>
    </g>
    <g id="Group_5076" data-name="Group 5076" transform="translate(46.139 13.574)">
      <path id="Path_7784" data-name="Path 7784" d="M13068.094-1123.367c-.209-.451-.418-.909-.605-1.372a8.517,8.517,0,0,1-.541-1.8,16.153,16.153,0,0,0-.757-2.956,12.792,12.792,0,0,0-.919-1.991,4.629,4.629,0,0,0-.743-.975l-.159-.148a2.112,2.112,0,0,0-.17-.159,3.084,3.084,0,0,0-.484-.421,7.662,7.662,0,0,0-1.051-.64c-.111-.05-.2-.088-.32-.138a4.224,4.224,0,0,0-1.344-.362,1.3,1.3,0,0,1-.247-.018l-.031,0c-.008-.114-.013-.227-.022-.342-.008-.139-.013-.289-.018-.439-.011-.306-.023-.621-.05-.925h0a1.35,1.35,0,0,0-.46-.989l-.045-.026-.034-.015a.243.243,0,0,0-.121-.03,1.7,1.7,0,0,0-.229-.022,1.635,1.635,0,0,0-.225.045.236.236,0,0,0-.117.041c-.009.005-.019.011-.032.018l-.044.031a1.349,1.349,0,0,0-.359,1.029h0c0,.306.022.621.042.925.008.152.018.3.024.441,0,.115.007.228.01.342l-.029.005a1.2,1.2,0,0,1-.245.041,4.274,4.274,0,0,0-1.3.492c-.113.063-.2.108-.306.169a7.816,7.816,0,0,0-.984.739,3.238,3.238,0,0,0-.441.467c-.053.056-.1.113-.151.174l-.145.163a4.683,4.683,0,0,0-.645,1.044,12.749,12.749,0,0,0-.786,2.339,16.753,16.753,0,0,0-.4,2.748,8.216,8.216,0,0,1-.337,1.762c-.146.507-.319,1.01-.493,1.505a9.544,9.544,0,0,0-.758,5.31l1.913.229a6.862,6.862,0,0,1-.252-.766,7.385,7.385,0,0,1,.632-4.237,13.791,13.791,0,0,0,.914-3.7,9.6,9.6,0,0,1,1.018-4.312c.069-.113.172-.244.229-.328.112-.168.29-.351.412-.511a2.285,2.285,0,0,1,.186-.227c.211-.214.433-.4.654-.591,0,0,.164-.131.22-.174a2.075,2.075,0,0,1,.365-.225,5.507,5.507,0,0,1,.689-.266c.124-.049.258-.074.381-.109.192-.024.388-.055.582-.073.2,0,.4.01.589.015a3.707,3.707,0,0,1,.391.071,5.7,5.7,0,0,1,.712.2,2.135,2.135,0,0,1,.384.188l.234.153c.241.169.482.331.711.525a2.377,2.377,0,0,1,.207.207c.139.146.331.313.461.468.063.078.177.2.26.3a9.593,9.593,0,0,1,1.432,4.191,13.9,13.9,0,0,0,1.275,3.593,7.392,7.392,0,0,1,1.042,4.154,7.571,7.571,0,0,1-.325,1.267l1.92-.229c.03-.136.068-.289.087-.4C13069.674-1119.946,13068.885-1121.663,13068.094-1123.367Z" transform="translate(-13051.883 1137.137)" fill="#fff"/>
    </g>
    <g id="Group_5077" data-name="Group 5077" transform="translate(50.578 26.535)">
      <path id="Path_7785" data-name="Path 7785" d="M13063.958-1122.727a4.273,4.273,0,0,0-4.473-4.053,4.272,4.272,0,0,0-4.053,4.471,4.242,4.242,0,0,0,1.595,3.1l1.945.233,3.616-.432A4.242,4.242,0,0,0,13063.958-1122.727Zm-4.127,2.985a2.782,2.782,0,0,1-2.911-2.639,2.781,2.781,0,0,1,2.639-2.912,2.782,2.782,0,0,1,2.912,2.639A2.782,2.782,0,0,1,13059.831-1119.742Z" transform="translate(-13055.428 1126.785)" fill="#fff"/>
    </g>
    <g id="Group_5078" data-name="Group 5078" transform="translate(83.861 15.182)">
      <path id="Path_7786" data-name="Path 7786" d="M13083.392-1134.463a2.945,2.945,0,0,0-.294.333l-.042.041-.009.009a3.9,3.9,0,0,0-.516.765l-.111.242c-.019.04-.039.08-.055.122l-.063.154a7.757,7.757,0,0,0-.291.909l.219.06a5.885,5.885,0,0,0,.763.168c.162.026.3.031.453.045.1.006.169,0,.261.015a4.563,4.563,0,0,0,.984-.084,3.379,3.379,0,0,0,.488-.11c.106-.029.23-.08.356-.12l.274-.091c.083-.038.16-.079.234-.118.021-.013.039-.025.062-.038a2.083,2.083,0,0,0,.262-.157c.114-.1.227-.182.326-.254a1.685,1.685,0,0,0,.266-.228l.242-.245a1.228,1.228,0,0,0,.166-.185l.146-.18.191-.237a2.662,2.662,0,0,0,.158-.26,3.1,3.1,0,0,0,.26-.547,1.168,1.168,0,0,0,.053-.715.18.18,0,0,0-.121-.131c0-.01,0-.02,0-.031-.006-.07-.031-.163-.2-.26a2.274,2.274,0,0,0-.457-.183l-.053-.012a4.185,4.185,0,0,0-.911-.059c-.158.02-.321.04-.474.054a3.061,3.061,0,0,0-.549.11c-.095.027-.194.046-.29.084l-.276.125c-.145.069-.272.119-.4.194-.109.054-.217.111-.319.173l-.012.01a2.363,2.363,0,0,0-.261.21A5.416,5.416,0,0,0,13083.392-1134.463Zm.924.561a1.668,1.668,0,0,1,.229-.2l.111-.086c.123-.08.259-.141.376-.22.028-.018.062-.026.092-.041l.2-.087.095-.042.095-.026.183-.044.132-.032c.045-.008.092-.01.138-.015l.275-.031c.188-.015.379,0,.564-.015.088,0,.184.005.277,0l-.016.02a1.886,1.886,0,0,0-.1.16c-.031.056-.072.11-.107.17h0l-.16.272c-.055.089-.125.167-.185.249a1.6,1.6,0,0,1-.189.225,3.394,3.394,0,0,1-.69.538c-.078.04-.15.086-.231.121a2.12,2.12,0,0,1-.413.158c-.123.024-.243.055-.368.069a2.785,2.785,0,0,1-.368.044,3.322,3.322,0,0,1-.4,0l-.156-.015-.078-.009-.054-.009h-.019l0-.013,0-.005s0,.01,0-.011l.023-.055.1-.214a3.053,3.053,0,0,1,.24-.387,2.294,2.294,0,0,1,.193-.243A1.67,1.67,0,0,1,13084.315-1133.9Z" transform="translate(-13082.011 1135.853)" fill="#fff"/>
    </g>
    <g id="Group_5079" data-name="Group 5079" transform="translate(70.244 16.565)">
      <path id="Path_7787" data-name="Path 7787" d="M13087.252-1123.088a13.337,13.337,0,0,0-.164-4.964,4.271,4.271,0,0,0-.408-1.093l-.105-.178a1.894,1.894,0,0,0-.107-.191,2.991,2.991,0,0,0-.326-.517,7.12,7.12,0,0,0-.781-.872c-.088-.076-.16-.135-.254-.214a4.047,4.047,0,0,0-1.123-.7,1.149,1.149,0,0,1-.219-.084l-.029-.01c.025-.106.051-.21.072-.318.033-.128.068-.267.105-.406.074-.281.15-.572.211-.856h0a1.283,1.283,0,0,0-.146-1.028l-.033-.036a.171.171,0,0,1-.029-.024.208.208,0,0,0-.1-.059,1.405,1.405,0,0,0-.2-.084,1.93,1.93,0,0,0-.217-.021.227.227,0,0,0-.119.005.149.149,0,0,1-.035.008l-.047.016a1.28,1.28,0,0,0-.611.839h0c-.08.279-.15.572-.215.854-.035.14-.068.281-.1.408-.031.105-.057.21-.086.314l-.029,0a1.164,1.164,0,0,1-.232-.029,4.033,4.033,0,0,0-1.32.089c-.121.025-.211.044-.324.07a7.33,7.33,0,0,0-1.1.4,3.129,3.129,0,0,0-.529.3,2.134,2.134,0,0,0-.187.118l-.176.108a4.338,4.338,0,0,0-.873.774,12.225,12.225,0,0,0-1.8,2.735,17.075,17.075,0,0,0-.676,1.57c-.023.066-.061.13-.088.2a13.013,13.013,0,0,1-1.568,2.549,9.22,9.22,0,0,0-2.141,4.519l1.7-.2a7.56,7.56,0,0,1,1.688-3.406,13.034,13.034,0,0,0,1.854-3.116,9.159,9.159,0,0,1,2.111-3.646c.1-.083.227-.175.3-.235.15-.121.361-.24.518-.352a2.04,2.04,0,0,1,.23-.155c.25-.138.5-.244.76-.358l.248-.1a1.821,1.821,0,0,1,.393-.1,5.127,5.127,0,0,1,.7-.053,3.394,3.394,0,0,1,.377.005c.182.031.369.057.549.095s.357.118.531.175a3.2,3.2,0,0,1,.338.173,5.371,5.371,0,0,1,.594.374,1.969,1.969,0,0,1,.3.277c.045.051.174.2.174.2.172.22.346.433.5.672a2,2,0,0,1,.129.245c.088.172.219.375.291.553.039.088.107.229.154.348a9.161,9.161,0,0,1,.15,4.21,10.484,10.484,0,0,0,.043,2.645l.77-.092.018,0,.746-.089A9.237,9.237,0,0,1,13087.252-1123.088Z" transform="translate(-13071.135 1134.748)" fill="#fff"/>
    </g>
    <g id="Group_5080" data-name="Group 5080" transform="translate(0 30.362)">
      <path id="Path_7788" data-name="Path 7788" d="M13122.639-1104.337h-19.363v-18.624a.762.762,0,0,0-.258-.573.768.768,0,0,0-.238-.135.749.749,0,0,0-.354-.054l-.985.118-.747.089-.018,0-.769.091-12.93,1.545-1.7.2-6.73.8-1.92.229-3.854.461-3.616.432-1.945-.233-3.985-.474-1.913-.229-8.644-1.032-1.538-.183-2.626-.314-1.423-.169-4.314-.516-1.426-.169-2.667-.319-1.55-.184-.522-.062-.745-.089a.757.757,0,0,0-.36.053.781.781,0,0,0-.241.135.77.77,0,0,0-.258.573v18.624h-19.2a.766.766,0,0,0-.765.767.765.765,0,0,0,.765.765l19.873,0,5.841,1.185h-12.738a.769.769,0,0,0-.767.768.767.767,0,0,0,.767.765h19.967a.62.62,0,0,0,.179-.03l7.475,1.516a19.718,19.718,0,0,0,11.556,4.038c.324,0,.5-.014.5-.014a.641.641,0,0,0,.082-.014.521.521,0,0,0,.083-.016.766.766,0,0,0,.106-.036.613.613,0,0,0,.081-.035.739.739,0,0,0,.091-.056.778.778,0,0,0,.076-.053l.008-.007.008.007a.72.72,0,0,0,.094.064.56.56,0,0,0,.071.045c.027.014.056.025.1.043a.806.806,0,0,0,.086.029c.028.008.058.013.109.021l.058.009s.178.014.5.014a19.716,19.716,0,0,0,11.437-3.949l7.933-1.61a.686.686,0,0,0,.209.035h19.966a.766.766,0,0,0,.766-.765.768.768,0,0,0-.766-.768h-12.792l5.861-1.188,20.017.006a.767.767,0,0,0,.768-.765A.768.768,0,0,0,13122.639-1104.337Zm-70.461-2.111c-.146-.272-.288-.555-.427-.841q-.073-.15-.144-.3l13.913,11a18.246,18.246,0,0,1-4.6-1.4,17.781,17.781,0,0,1-1.887-1c-.433-.265-.874-.562-1.309-.885A19.536,19.536,0,0,1,13052.178-1106.448Zm1.964,5.823-17.61-3.572v-4.953l13.541,2.559A22.865,22.865,0,0,0,13054.142-1100.625Zm-1.422-8.4a22.623,22.623,0,0,1,6.832,2.684c.533.326,1.056.68,1.551,1.054.415.314.814.646,1.189.985a16.78,16.78,0,0,1,4.341,6.273Zm12.6,5.32,3.048.576v4.576A18.6,18.6,0,0,0,13065.321-1103.708Zm-2.27-2.276a24.867,24.867,0,0,0-13.491-5.324h-.026a.732.732,0,0,0-.088.006l-.048,0a.9.9,0,0,0-.326.109.946.946,0,0,0-.254.213l-.013,0-.011.033a.878.878,0,0,0-.136.272.615.615,0,0,0-.019.065.856.856,0,0,0-.021.3.483.483,0,0,0,.011.068.8.8,0,0,0,.026.126c.158.478.334.965.548,1.515l-12.5-2.363a1.065,1.065,0,0,0-.177-.016v-4.386l31.838,4.488v5.9Zm-26.388-11.2a.705.705,0,0,0-.1-.006h-.03v-4.912l31.838,3.8v5.587Zm65.079-4.918v4.959l-31.84,4.487v-5.647Zm-31.84,19.031a1.372,1.372,0,0,0,.178-.016l2.415-.456a18.469,18.469,0,0,0-2.593,4.223Zm5.571-1.06c.37-.346.756-.674,1.141-.975.47-.368.964-.717,1.466-1.038a22.465,22.465,0,0,1,7.154-2.886l-13.911,11A16.83,16.83,0,0,1,13075.475-1104.128Zm10.875-3.464c-.073.155-.147.307-.221.457q-.214.434-.438.845a19.422,19.422,0,0,1-5.576,6.5c-.428.312-.885.612-1.354.893a17.656,17.656,0,0,1-1.988,1.023,18.358,18.358,0,0,1-4.334,1.282Zm1.462,1.157,13.932-2.633v4.872l-18,3.652A22.739,22.739,0,0,0,13087.812-1106.436Zm.881-2.013c.239-.6.435-1.141.607-1.668a.863.863,0,0,0,.031-.151l.007-.039a.908.908,0,0,0-.021-.3.384.384,0,0,0-.02-.064.847.847,0,0,0-.129-.268l-.044-.05a1.019,1.019,0,0,0-.261-.211.944.944,0,0,0-.336-.1l-.009.154-.032-.158a.642.642,0,0,0-.084,0,24.767,24.767,0,0,0-13.708,5.5l-4.791.91v-5.936a.946.946,0,0,0,.136-.009l31.7-4.467v4.388Z" transform="translate(-13015.032 1123.728)" fill="#fff"/>
    </g>
  </g>
</svg>
