<svg xmlns="http://www.w3.org/2000/svg" xmlns:xlink="http://www.w3.org/1999/xlink" width="120.657" height="120.657" viewBox="0 0 120.657 120.657">
  <defs>
    <filter id="Ellipse_527" x="0" y="0" width="120.657" height="120.657" filterUnits="userSpaceOnUse">
      <feOffset dx="2" dy="2" input="SourceAlpha"/>
      <feGaussianBlur stdDeviation="2.5" result="blur"/>
      <feFlood flood-opacity="0.549"/>
      <feComposite operator="in" in2="blur"/>
      <feComposite in="SourceGraphic"/>
    </filter>
  </defs>
  <g id="Group_3921" data-name="Group 3921" transform="translate(-616.753 -534.108)">
    <g transform="matrix(1, 0, 0, 1, 616.75, 534.11)" filter="url(#Ellipse_527)">
      <circle id="Ellipse_527-2" data-name="Ellipse 527" cx="52.829" cy="52.829" r="52.829" transform="translate(5.5 5.5)" fill="#fff"/>
    </g>
    <path id="Path_6216" data-name="Path 6216" d="M568.9,456.65H521.37a1.158,1.158,0,0,0-.263.053l-1.933-6.421a1.329,1.329,0,0,0-.1-.186,1.273,1.273,0,0,0-1.264-1.182H517.8l-6.289.028a1.285,1.285,0,0,0,.006,2.57h.006l5.327-.024,11.7,38.848a6.1,6.1,0,1,0,9.514,5.062,6.184,6.184,0,0,0-.108-1.064h17a6.191,6.191,0,0,0-.108,1.064,6.155,6.155,0,1,0,1.225-3.634H536.845a5.874,5.874,0,0,0-5.887-2.366l-1.352-4.487,32.366-.025a1.273,1.273,0,0,0,1.2-.884,1.186,1.186,0,0,0,.118-.253l6.85-25.266a1.232,1.232,0,0,0,.033-.477c0-.026.015-.048.015-.073A1.286,1.286,0,0,0,568.9,456.65ZM562.929,495.4a1.967,1.967,0,1,1-1.967-1.967A1.967,1.967,0,0,1,562.929,495.4Zm-29.06.015a1.967,1.967,0,1,1-1.967-1.967A1.968,1.968,0,0,1,533.869,495.414Zm-5-28.975a2.89,2.89,0,1,1,2.891,2.891A2.891,2.891,0,0,1,528.867,466.438Zm7.466,11.242a2.891,2.891,0,1,1,2.89-2.892A2.89,2.89,0,0,1,536.333,477.681Zm1.821-11.242a2.891,2.891,0,1,1,2.89,2.891A2.892,2.892,0,0,1,538.155,466.438Zm7.612,11.242a2.891,2.891,0,1,1,2.89-2.892A2.89,2.89,0,0,1,545.767,477.681Zm1.674-11.242a2.891,2.891,0,1,1,2.89,2.891A2.892,2.892,0,0,1,547.441,466.438Zm7.761,11.242a2.891,2.891,0,1,1,2.891-2.892A2.891,2.891,0,0,1,555.2,477.681Zm4.417-8.352a2.891,2.891,0,1,1,2.89-2.891A2.889,2.889,0,0,1,559.62,469.329Z" transform="translate(131.81 115.742)" fill="#662d91"/>
  </g>
</svg>
