<svg id="Group_5083" data-name="Group 5083" xmlns="http://www.w3.org/2000/svg" width="60.95" height="62.603" viewBox="0 0 60.95 62.603">
  <path id="Path_7789" data-name="Path 7789" d="M13560.318-1100.462l-6.385-10.64.572-4.888h.813a2.616,2.616,0,0,0,2.613-2.613v-2.994a2.615,2.615,0,0,0-2.613-2.612h-3.584v-3.457a.909.909,0,0,0-.2-.57h0l-3.166-3.979v-3.343a2,2,0,0,0-2-2h-3.686c-.025-.046-.049-.093-.072-.138a11.367,11.367,0,0,0-3.723-3.252,1.458,1.458,0,0,1-.666-1.231v-2.43a1.193,1.193,0,0,0,.664-1.067v-5.1a3.2,3.2,0,0,0-3.2-3.2h-3.484a3.2,3.2,0,0,0-3.2,3.2v5.1a1.193,1.193,0,0,0,.664,1.067v2.43a1.455,1.455,0,0,1-.668,1.231c-.332.215-.705.466-1.086.735,0-.071,0-.143,0-.214a4.9,4.9,0,0,0-4.891-4.891,4.9,4.9,0,0,0-4.891,4.891,4.943,4.943,0,0,0,.111,1.031c.109.521.213,1.005.307,1.456a3.5,3.5,0,0,0-3.387.585,3.489,3.489,0,0,0-1.27,2.359,3.468,3.468,0,0,0,.768,2.562,3.368,3.368,0,0,0,.529.525l2.729,2.2a7.712,7.712,0,0,0-2.611,5.5h-4.377l-.189-.359.084-.045c2.934-1.56,5.379-4.122,4.379-6s-4.49-1.282-7.422.278l-.086.045-1.23-2.318.084-.045a12.151,12.151,0,0,0,3.551-2.736c1.367-1.625,1.105-2.742.828-3.264s-1.059-1.362-3.168-1.138a12.169,12.169,0,0,0-4.254,1.416l-.086.045-.924-1.737a6.539,6.539,0,0,1-.777-3.1,6.618,6.618,0,0,1,3.516-5.856,6.59,6.59,0,0,1,5.049-.488,6.6,6.6,0,0,1,3.912,3.225l1.58,2.971a.917.917,0,0,0,1.24.379.917.917,0,0,0,.379-1.241l-1.58-2.971a8.469,8.469,0,0,0-11.441-3.5,8.451,8.451,0,0,0-4.488,7.476,8.475,8.475,0,0,0,.992,3.965l7.977,15h-3.736a2.615,2.615,0,0,0-2.613,2.612v2.994a2.616,2.616,0,0,0,2.613,2.613h.814l.572,4.888-6.387,10.64a2.634,2.634,0,0,0-.3,2,2.624,2.624,0,0,0,1.205,1.626,2.644,2.644,0,0,0,.99.352,2.662,2.662,0,0,0,.373.026,2.64,2.64,0,0,0,2.266-1.285l2.855-4.758.205,1.767a.917.917,0,0,0,.91.81.793.793,0,0,0,.107-.006.917.917,0,0,0,.8-1.017l-.484-4.129,6.553-10.917h29.221l6.551,10.917-1.15,9.839a2.293,2.293,0,0,1-2.277,2.026h-35.467a2.293,2.293,0,0,1-2.277-2.027l-.242-2.067a.915.915,0,0,0-1.018-.8.918.918,0,0,0-.8,1.017l.242,2.067a4.128,4.128,0,0,0,4.1,3.648h35.467a4.128,4.128,0,0,0,4.1-3.648l.873-7.476,2.855,4.759a2.644,2.644,0,0,0,3.629.906A2.643,2.643,0,0,0,13560.318-1100.462Zm-51.67-28.254c2.953-1.571,4.807-1.291,4.941-1.035s-.668,1.948-3.621,3.518c-.027.016-.057.031-.086.046l-1.32-2.484Zm-4.275-8.039a10.491,10.491,0,0,1,3.584-1.212c.912-.1,1.313.1,1.357.177s-.023.521-.611,1.223a10.5,10.5,0,0,1-3.01,2.3l-.086.045-1.32-2.484Zm48.016,23.079-1.389-2.314h1.658Zm-18.592-10.532v-3.136l2.891-3.635h10.322l1.906,2.4h-4.154a.917.917,0,0,0-.918.916.917.917,0,0,0,.918.918h5.139v2.539Zm12.738-11.35v2.746h-9.373v-2.746a.165.165,0,0,1,.164-.165h9.043A.166.166,0,0,1,13546.535-1135.559Zm-14.332-16.585h3.484a1.367,1.367,0,0,1,1.365,1.365v4.458h-6.215v-4.458A1.367,1.367,0,0,1,13532.2-1152.144Zm-2.209,12.737a3.281,3.281,0,0,0,1.508-2.772v-2.306h4.887v2.306a3.284,3.284,0,0,0,1.506,2.772,17.782,17.782,0,0,1,2.475,1.848h-3.043a2,2,0,0,0-2,2v3.342l-3.166,3.98a.915.915,0,0,0-.2.571v3.457h-1.217a7.712,7.712,0,0,0-2.611-5.5l1.105-.891,1.621-1.306a3.46,3.46,0,0,0,.527-.523,3.467,3.467,0,0,0,.771-2.565,3.473,3.473,0,0,0-1.271-2.36,3.468,3.468,0,0,0-2.564-.769c-.055.005-.107.012-.16.02C13528.662-1138.505,13529.285-1138.947,13529.994-1139.406Zm-3.186,4.748c.252-.357.482-1.519,1.7-1.643a1.662,1.662,0,0,1,1.225.367,1.656,1.656,0,0,1,.6,1.123,1.662,1.662,0,0,1-.623,1.474l-1.623,1.307c-.658.532-1.145.924-1.537,1.24-.166-.085-.336-.165-.51-.239Zm-3.781-8.825a3.061,3.061,0,0,1,3.059,3.056,3.171,3.171,0,0,1-.07.651l-.355,1.685-.006.026-1.379,6.522a7.9,7.9,0,0,0-1.248-.1,7.874,7.874,0,0,0-1.246.1l-.01-.053c-.32-1.51-.66-3.128-1.73-8.185a3.037,3.037,0,0,1-.068-.646A3.06,3.06,0,0,1,13523.027-1143.483Zm-6.937,9.893a1.667,1.667,0,0,1,.238-2.344,1.666,1.666,0,0,1,2.539.538l.383.743c.344,1.63.539,2.552.727,3.437l.039.186c-.174.074-.344.153-.51.239A41.709,41.709,0,0,1,13516.09-1133.591Zm6.938,3.782a5.893,5.893,0,0,1,5.881,5.6h-11.758A5.891,5.891,0,0,1,13523.027-1129.808Zm-15.244,13.818h1.658l-1.389,2.314Zm-4.7,17.306a.8.8,0,0,1-.809.386h0a.8.8,0,0,1-.3-.108.808.808,0,0,1-.369-.5.808.808,0,0,1,.092-.615l6.541-10.9h0l3.592-5.986c.012-.019.023-.039.035-.06l2-3.333a.8.8,0,0,1,.5-.369.831.831,0,0,1,.2-.025.814.814,0,0,1,.416.116.811.811,0,0,1,.277,1.112l-.937,1.563-.029.05Zm13.625-19.14.119-.2a2.634,2.634,0,0,0,.3-2,2.627,2.627,0,0,0-1.205-1.626,2.628,2.628,0,0,0-2-.3,2.623,2.623,0,0,0-1.627,1.206l-1.752,2.918h-5.42a.781.781,0,0,1-.779-.779v-2.994a.78.78,0,0,1,.779-.778h50.2a.779.779,0,0,1,.779.778v2.994a.78.78,0,0,1-.779.779h-5.418l-1.752-2.918a2.628,2.628,0,0,0-1.627-1.206,2.628,2.628,0,0,0-2,.3,2.627,2.627,0,0,0-1.205,1.626,2.634,2.634,0,0,0,.3,2l.117.2Zm41.455,19.526a.853.853,0,0,1-.811-.386l-12.17-20.281a.812.812,0,0,1,.277-1.113.811.811,0,0,1,1.113.278c.678,1.128,4.969,8.281,5.625,9.375l0,.006,6.541,10.9A.81.81,0,0,1,13558.166-1098.3Z" transform="translate(-13499.746 1153.978)" fill="#fff"/>
  <path id="Path_7790" data-name="Path 7790" d="M13517.51-1116.139v-3.034a2.453,2.453,0,0,0-2.449-2.449,2.451,2.451,0,0,0-2.449,2.449v3.034a2.452,2.452,0,0,0,2.449,2.45A2.454,2.454,0,0,0,13517.51-1116.139Zm-3.066,0v-3.034a.617.617,0,0,1,.617-.615.615.615,0,0,1,.613.615v3.034a.616.616,0,0,1-.613.616A.618.618,0,0,1,13514.443-1116.139Z" transform="translate(-13496.505 1162.134)" fill="#fff"/>
  <path id="Path_7791" data-name="Path 7791" d="M13522.269-1108.221v-3.034a2.452,2.452,0,0,0-2.449-2.45,2.452,2.452,0,0,0-2.449,2.45v3.034a2.451,2.451,0,0,0,2.449,2.449A2.451,2.451,0,0,0,13522.269-1108.221Zm-3.064,0v-3.034a.616.616,0,0,1,.615-.616.617.617,0,0,1,.615.616v3.034a.616.616,0,0,1-.615.615A.615.615,0,0,1,13519.2-1108.221Z" transform="translate(-13495.304 1164.129)" fill="#fff"/>
  <path id="Path_7792" data-name="Path 7792" d="M13527.027-1116.139v-3.034a2.451,2.451,0,0,0-2.449-2.449,2.452,2.452,0,0,0-2.449,2.449v3.034a2.453,2.453,0,0,0,2.449,2.45A2.452,2.452,0,0,0,13527.027-1116.139Zm-3.064,0v-3.034a.616.616,0,0,1,.615-.615.615.615,0,0,1,.615.615v3.034a.616.616,0,0,1-.615.616A.617.617,0,0,1,13523.963-1116.139Z" transform="translate(-13494.103 1162.134)" fill="#fff"/>
  <path id="Path_7793" data-name="Path 7793" d="M13531.789-1108.221v-3.034a2.454,2.454,0,0,0-2.451-2.45,2.451,2.451,0,0,0-2.447,2.45v3.034a2.45,2.45,0,0,0,2.447,2.449A2.452,2.452,0,0,0,13531.789-1108.221Zm-3.062,0v-3.034a.615.615,0,0,1,.611-.616.617.617,0,0,1,.617.616v3.034a.615.615,0,0,1-.617.615A.614.614,0,0,1,13528.727-1108.221Z" transform="translate(-13492.905 1164.129)" fill="#fff"/>
  <path id="Path_7794" data-name="Path 7794" d="M13536.55-1116.139v-3.034a2.452,2.452,0,0,0-2.449-2.449,2.451,2.451,0,0,0-2.449,2.449v3.034a2.452,2.452,0,0,0,2.449,2.45A2.453,2.453,0,0,0,13536.55-1116.139Zm-3.066,0v-3.034a.617.617,0,0,1,.617-.615.615.615,0,0,1,.613.615v3.034a.616.616,0,0,1-.613.616A.618.618,0,0,1,13533.483-1116.139Z" transform="translate(-13491.704 1162.134)" fill="#fff"/>
</svg>
