<svg xmlns="http://www.w3.org/2000/svg" width="70.705" height="38.834" viewBox="0 0 70.705 38.834">
  <g id="Group_5048" data-name="Group 5048" transform="translate(0 0)">
    <g id="Group_5047" data-name="Group 5047">
      <g id="Group_5033" data-name="Group 5033" transform="translate(23.565 8.255)">
        <path id="Path_7747" data-name="Path 7747" d="M13028.764-1959.044a5.625,5.625,0,0,0,.314-1.084,5.972,5.972,0,0,1,.922-2.589c.052-.065.124-.139.164-.187.082-.1.2-.2.29-.287a1.259,1.259,0,0,1,.13-.126c.144-.119.294-.217.444-.321l.146-.093a1.232,1.232,0,0,1,.24-.113,3.585,3.585,0,0,1,.443-.118c.08-.021.164-.028.242-.041.121,0,.243-.008.364,0s.242.032.362.049a2.121,2.121,0,0,1,.236.071,3.505,3.505,0,0,1,.425.17,1.271,1.271,0,0,1,.225.141l.136.11c.135.121.272.237.4.372a1.566,1.566,0,0,1,.114.141c.074.1.182.215.25.321.034.052.1.135.141.205a5.968,5.968,0,0,1,.6,2.683,7.6,7.6,0,0,0,.444,2.011,5.47,5.47,0,0,0,.22-1.149,10.875,10.875,0,0,1,.26-1.793,8.335,8.335,0,0,0-.611-2.285,2.926,2.926,0,0,0-.393-.652l-.09-.1c-.028-.038-.06-.074-.092-.109a2.032,2.032,0,0,0-.27-.293,4.965,4.965,0,0,0-.605-.467c-.064-.039-.117-.068-.188-.106a2.6,2.6,0,0,0-.8-.315.828.828,0,0,1-.15-.028l-.02,0c0-.07.008-.14.009-.211.006-.086.013-.179.02-.273.014-.189.029-.385.033-.575h0a.834.834,0,0,0-.215-.641l-.027-.02-.02-.011a.142.142,0,0,0-.073-.026.9.9,0,0,0-.139-.03,1.01,1.01,0,0,0-.143.012.134.134,0,0,0-.074.018l-.022.009-.029.016a.831.831,0,0,0-.291.61h0c-.019.188-.029.385-.038.573,0,.093-.01.187-.015.273s-.011.142-.017.212h-.02a.717.717,0,0,1-.153.009,2.621,2.621,0,0,0-.836.214c-.075.03-.131.052-.2.083a4.773,4.773,0,0,0-.656.389,2.052,2.052,0,0,0-.3.257c-.036.031-.072.063-.106.1l-.1.09a2.87,2.87,0,0,0-.47.6,8.123,8.123,0,0,0-.814,1.912c.006.015.015.033.02.047A7.809,7.809,0,0,1,13028.764-1959.044Z" transform="translate(-13028.351 1966.823)" fill="#fcde06"/>
      </g>
      <g id="Group_5034" data-name="Group 5034" transform="translate(23.517 5.928)">
        <path id="Path_7748" data-name="Path 7748" d="M13031.669-1966.026c0-.029-.01-.057-.013-.086l-.03-.172a2.45,2.45,0,0,0-.19-.571l-.021-.04a1.941,1.941,0,0,0-.126-.26,3.715,3.715,0,0,0-.219-.348,1.393,1.393,0,0,0-.133-.185,2.22,2.22,0,0,0-.17-.165c-.067-.069-.138-.123-.216-.191l-.153-.127a1.778,1.778,0,0,0-.167-.1,1.91,1.91,0,0,0-.325-.165c-.095-.035-.192-.078-.289-.116a2.652,2.652,0,0,0-.583-.123H13029a1.507,1.507,0,0,0-.32.034c-.122.034-.154.086-.171.13a.046.046,0,0,0,0,.02.118.118,0,0,0-.1.06.778.778,0,0,0-.091.458,2.066,2.066,0,0,0,.067.391,1.6,1.6,0,0,0,.055.19l.078.183.063.139a.722.722,0,0,0,.071.145l.108.2a1.066,1.066,0,0,0,.128.19c.049.063.1.133.16.217a1.591,1.591,0,0,0,.17.178c.039.038.08.076.126.115l.156.106c.073.047.142.1.2.138a2.676,2.676,0,0,0,.891.379c.06.009.1.022.167.036.1.018.187.039.293.05a3.979,3.979,0,0,0,.509.029h.149a5.787,5.787,0,0,0-.024-.622Zm-.832-.1a.368.368,0,0,1-.051-.009l-.1-.018a1.94,1.94,0,0,1-.251-.071,1.726,1.726,0,0,1-.22-.09c-.075-.03-.145-.07-.217-.106a1.475,1.475,0,0,1-.229-.169c-.043-.036-.081-.078-.123-.115a2.217,2.217,0,0,1-.335-.455,1.024,1.024,0,0,1-.079-.173c-.022-.061-.053-.121-.071-.187l-.053-.2h0c-.01-.044-.026-.084-.036-.125a.812.812,0,0,0-.036-.116l-.006-.015c.058.019.117.034.174.047.113.041.233.065.346.106l.167.068.083.033.075.044.105.059.057.032.05.043.108.088c.017.015.036.026.051.042.059.069.132.13.194.2l.055.074a.942.942,0,0,1,.106.167,1.168,1.168,0,0,1,.089.174,1.518,1.518,0,0,1,.077.184,2.058,2.058,0,0,1,.082.282l.028.152,0,.038c0,.015,0,0,0,.009v.011h0l-.01,0Z" transform="translate(-13028.312 1968.681)" fill="#fcde06"/>
      </g>
      <g id="Group_5035" data-name="Group 5035" transform="translate(43.7 4.817)">
        <path id="Path_7749" data-name="Path 7749" d="M13047.354-1969.4a.123.123,0,0,0-.111-.046.049.049,0,0,0-.007-.019c-.023-.041-.063-.09-.192-.105a1.53,1.53,0,0,0-.328.015l-.035.006a2.747,2.747,0,0,0-.568.214c-.09.054-.184.111-.273.161a1.859,1.859,0,0,0-.3.217,1.742,1.742,0,0,0-.154.13l-.135.151c-.068.082-.132.146-.187.227a2.293,2.293,0,0,0-.146.192,1.249,1.249,0,0,0-.105.208,3.56,3.56,0,0,0-.168.385,2.238,2.238,0,0,0-.087.283l-.017.044a2.55,2.55,0,0,0-.1.6l0,.178c0,.029,0,.059,0,.089l0,.11a5.188,5.188,0,0,0,.072.631l.15-.023a3.931,3.931,0,0,0,.507-.107c.105-.028.192-.063.287-.1.062-.024.1-.044.163-.062a2.724,2.724,0,0,0,.84-.52c.058-.046.119-.111.185-.17l.141-.13c.04-.046.076-.091.111-.136a1.877,1.877,0,0,0,.142-.205c.043-.093.09-.173.13-.243a1.1,1.1,0,0,0,.1-.211l.08-.214a.726.726,0,0,0,.05-.159l.039-.149.053-.2a1.742,1.742,0,0,0,.024-.2,1.924,1.924,0,0,0,.008-.4A.775.775,0,0,0,13047.354-1969.4Zm-.507.51a1.068,1.068,0,0,0-.019.132c0,.045-.015.091-.02.14h0l-.024.22c-.01.074-.032.144-.047.214a.914.914,0,0,1-.058.2,2.331,2.331,0,0,1-.287.546c-.039.048-.072.1-.112.144a1.613,1.613,0,0,1-.22.222c-.073.051-.143.1-.218.15a1.72,1.72,0,0,1-.224.134,2.068,2.068,0,0,1-.26.119l-.1.035a.513.513,0,0,1-.053.017l-.038.01-.01,0h0v-.064l0-.168a2.107,2.107,0,0,1,.043-.318,1.966,1.966,0,0,1,.053-.213,1.326,1.326,0,0,1,.067-.2,1.174,1.174,0,0,1,.088-.2l.046-.089c.057-.088.125-.165.179-.249.014-.02.032-.035.047-.054l.1-.113.048-.055.055-.044.1-.082.075-.059c.027-.017.057-.032.083-.05l.169-.1c.116-.064.242-.11.358-.173.057-.024.12-.05.179-.081Z" transform="translate(-13044.432 1969.569)" fill="#fcde06"/>
      </g>
      <g id="Group_5036" data-name="Group 5036" transform="translate(39.438 7.42)">
        <path id="Path_7750" data-name="Path 7750" d="M13041.874-1957.967a7.594,7.594,0,0,0,.2-2.02,6.092,6.092,0,0,1,.286-2.79c.036-.076.088-.168.116-.224.058-.115.153-.244.218-.356a1.783,1.783,0,0,1,.1-.156c.115-.151.24-.285.362-.424,0,0,.093-.1.125-.128a1.234,1.234,0,0,1,.21-.17,3.361,3.361,0,0,1,.411-.223c.074-.041.156-.067.23-.1.117-.03.24-.066.359-.093s.249-.026.371-.039a2.116,2.116,0,0,1,.25.014,3.354,3.354,0,0,1,.464.065,1.258,1.258,0,0,1,.257.086l.16.076c.164.086.327.169.486.272a1.277,1.277,0,0,1,.146.113c.1.081.234.169.328.257.047.042.128.11.188.169a6.092,6.092,0,0,1,1.241,2.514,8.688,8.688,0,0,0,1.093,2.151c.13.207.252.4.367.6.018-.044.04-.085.057-.128.144-.385.293-.725.44-1.025a8.052,8.052,0,0,1-.975-1.891,8.9,8.9,0,0,0-1.453-2.967,2.884,2.884,0,0,0-.547-.552l-.112-.08c-.038-.031-.078-.059-.117-.086a2.065,2.065,0,0,0-.341-.224,4.746,4.746,0,0,0-.712-.315c-.074-.022-.133-.039-.212-.06a2.648,2.648,0,0,0-.872-.118.935.935,0,0,1-.156.009h-.021c-.014-.071-.026-.141-.042-.213-.016-.086-.031-.18-.046-.275-.033-.19-.066-.387-.106-.576h0a.845.845,0,0,0-.369-.583l-.03-.013-.023-.006a.142.142,0,0,0-.077-.009,1.155,1.155,0,0,0-.146,0,.94.94,0,0,0-.138.048.136.136,0,0,0-.07.035l-.02.014-.024.022a.862.862,0,0,0-.142.676h0c.027.191.064.388.1.578.019.094.035.187.053.274.01.071.021.143.033.214l-.019,0a.763.763,0,0,1-.149.046,2.683,2.683,0,0,0-.777.415c-.066.048-.116.084-.178.13a4.918,4.918,0,0,0-.558.545,2.045,2.045,0,0,0-.239.329,1.345,1.345,0,0,0-.081.121l-.077.114a2.9,2.9,0,0,0-.318.709,8.072,8.072,0,0,0-.347,2.14,10.636,10.636,0,0,1,.493,1.929A5.462,5.462,0,0,0,13041.874-1957.967Z" transform="translate(-13041.027 1967.49)" fill="#fcde06"/>
      </g>
      <g id="Group_5037" data-name="Group 5037" transform="translate(37.452 5.172)">
        <path id="Path_7751" data-name="Path 7751" d="M13043.289-1967.264c-.011-.029-.023-.055-.034-.083l-.069-.163a2.509,2.509,0,0,0-.327-.52l-.032-.034a2,2,0,0,0-.188-.229,3.779,3.779,0,0,0-.3-.292,1.622,1.622,0,0,0-.176-.152c-.068-.042-.139-.084-.209-.123s-.165-.088-.261-.136l-.183-.089a1.771,1.771,0,0,0-.19-.062,2.047,2.047,0,0,0-.362-.085c-.1-.011-.209-.029-.313-.045a2.687,2.687,0,0,0-.608.02l-.034.008a1.5,1.5,0,0,0-.311.111c-.111.061-.129.123-.136.169a.077.077,0,0,0,0,.021.117.117,0,0,0-.085.084.778.778,0,0,0,.021.477,1.9,1.9,0,0,0,.16.369,1.5,1.5,0,0,0,.1.177l.122.162.095.123a.744.744,0,0,0,.105.128l.155.168a1.107,1.107,0,0,0,.173.156c.063.05.137.107.212.177a1.669,1.669,0,0,0,.21.135c.049.027.1.056.152.084l.183.066c.082.029.164.066.233.088a2.729,2.729,0,0,0,.976.16c.062-.005.108,0,.174-.005.1-.006.194-.006.3-.02a4.042,4.042,0,0,0,.512-.1l.146-.036a5.45,5.45,0,0,0-.174-.61Zm-.674.179h-.012l-.041,0a.4.4,0,0,1-.056,0l-.115.008a2.329,2.329,0,0,1-.3-.01,2.023,2.023,0,0,1-.267-.041c-.09-.013-.177-.038-.268-.059a1.465,1.465,0,0,1-.3-.125c-.057-.028-.11-.063-.166-.094a2.442,2.442,0,0,1-.491-.41,1,1,0,0,1-.134-.169c-.041-.063-.092-.12-.129-.187l-.111-.2h0c-.023-.045-.052-.085-.076-.128a.961.961,0,0,0-.068-.119l-.011-.015c.068.006.138.006.2.006.136.015.276.009.412.025l.2.029c.033.005.067.008.1.014l.095.028.132.036.07.021.067.033.143.069a.322.322,0,0,1,.066.032c.084.06.182.106.269.168l.081.066a1.157,1.157,0,0,1,.161.155,1.275,1.275,0,0,1,.146.168,1.607,1.607,0,0,1,.135.183,2.105,2.105,0,0,1,.167.288l.071.159.015.04c.006.016,0,.005,0,.009l0,0,0,.008Z" transform="translate(-13039.441 1969.285)" fill="#fcde06"/>
      </g>
      <g id="Group_5038" data-name="Group 5038" transform="translate(56.461 12.313)">
        <path id="Path_7752" data-name="Path 7752" d="M13055.354-1963.482l-.179.06c-.083.026-.165.059-.233.079a2.328,2.328,0,0,1-.317.071,24.676,24.676,0,0,1,3.784,13.153,24.918,24.918,0,0,1-.922,6.683h.976a25.851,25.851,0,0,0,.89-6.683,25.62,25.62,0,0,0-3.8-13.464l-.04.024C13055.458-1963.533,13055.407-1963.507,13055.354-1963.482Z" transform="translate(-13054.624 1963.582)" fill="#fcde06"/>
      </g>
      <g id="Group_5039" data-name="Group 5039" transform="translate(9.636)">
        <path id="Path_7753" data-name="Path 7753" d="M13019.093-1940.956a24.865,24.865,0,0,1-.921-6.683,24.859,24.859,0,0,1,24.831-24.832,24.811,24.811,0,0,1,19.981,10.11l.026-.026a1.84,1.84,0,0,1,.192-.218,3.394,3.394,0,0,1,.3-.277,1.381,1.381,0,0,1,.168-.136,25.75,25.75,0,0,0-20.672-10.4,25.8,25.8,0,0,0-25.777,25.776,25.763,25.763,0,0,0,.893,6.683h.975Z" transform="translate(-13017.226 1973.416)" fill="#fcde06"/>
      </g>
      <g id="Group_5040" data-name="Group 5040" transform="translate(14.412 9.818)">
        <path id="Path_7754" data-name="Path 7754" d="M13030.9-1956.758a7.351,7.351,0,0,1-.295-1.941c.008-.235.008-.452,0-.66a7.786,7.786,0,0,0-.393-2.356c-.006-.014-.014-.031-.02-.047a2.673,2.673,0,0,0-.295-.6l-.074-.1a1.117,1.117,0,0,0-.078-.11,1.84,1.84,0,0,0-.229-.3,4.611,4.611,0,0,0-.529-.486c-.057-.042-.105-.073-.168-.115a2.41,2.41,0,0,0-.725-.359.714.714,0,0,1-.139-.038l-.02-.005c.01-.066.02-.131.027-.2s.025-.167.039-.254c.029-.175.059-.357.078-.533h0a.777.777,0,0,0-.15-.617l-.023-.02-.018-.012a.128.128,0,0,0-.064-.03,1.243,1.243,0,0,0-.129-.04,1.164,1.164,0,0,0-.135,0,.12.12,0,0,0-.068.01l-.023.006-.027.012a.78.78,0,0,0-.322.547h0c-.033.174-.059.357-.082.533-.012.087-.025.174-.035.254s-.023.132-.033.2h-.02a.66.66,0,0,1-.143,0,2.474,2.474,0,0,0-.8.133l-.193.061a4.365,4.365,0,0,0-.645.311,1.922,1.922,0,0,0-.307.217c-.035.026-.072.052-.105.083l-.1.076a2.671,2.671,0,0,0-.488.523,8.145,8.145,0,0,0-1.252,2.771,7.554,7.554,0,0,1-.846,1.771,6.136,6.136,0,0,0-1.031,2.588l1.012.12a4.55,4.55,0,0,1,.832-2.229,8.024,8.024,0,0,0,.945-2.008,5.6,5.6,0,0,1,1.07-2.348c.055-.056.127-.12.168-.161.084-.083.205-.168.295-.245a1.352,1.352,0,0,1,.131-.108c.145-.1.293-.179.441-.263,0,0,.107-.056.146-.075a1.124,1.124,0,0,1,.232-.086,3.131,3.131,0,0,1,.424-.074c.078-.014.156-.013.23-.019.113.009.229.012.34.025s.225.05.336.075c.07.028.145.05.215.085a3.316,3.316,0,0,1,.383.194,1.179,1.179,0,0,1,.2.151l.117.113c.117.125.236.244.346.381a1.618,1.618,0,0,1,.094.142c.064.1.154.217.209.32.027.052.08.134.115.2a5.617,5.617,0,0,1,.342,2.558,8.062,8.062,0,0,0,.318,2.2,5.015,5.015,0,0,1,.2,2.144l1,.119A6.779,6.779,0,0,0,13030.9-1956.758Z" transform="translate(-13021.039 1965.575)" fill="#fcde06"/>
      </g>
      <g id="Group_5041" data-name="Group 5041" transform="translate(17.111 17.27)">
        <path id="Path_7755" data-name="Path 7755" d="M13028.135-1956.771a2.488,2.488,0,0,0-2.094-2.825,2.489,2.489,0,0,0-2.823,2.094,2.509,2.509,0,0,0,.031.848l.931.111a1.582,1.582,0,0,1-.1-.832,1.62,1.62,0,0,1,1.838-1.363,1.62,1.62,0,0,1,1.363,1.839,1.6,1.6,0,0,1-.284.691l.928.11A2.423,2.423,0,0,0,13028.135-1956.771Z" transform="translate(-13023.195 1959.623)" fill="#fcde06"/>
      </g>
      <g id="Group_5042" data-name="Group 5042" transform="translate(30.102 8.855)">
        <path id="Path_7756" data-name="Path 7756" d="M13044.146-1957.36c-.136-.293-.271-.592-.394-.9a5.462,5.462,0,0,1-.354-1.172,10.636,10.636,0,0,0-.493-1.929,8.365,8.365,0,0,0-.6-1.3,3.023,3.023,0,0,0-.485-.637l-.1-.1a1.2,1.2,0,0,0-.11-.1,2.013,2.013,0,0,0-.315-.275,5.083,5.083,0,0,0-.686-.417c-.073-.032-.132-.056-.209-.089a2.749,2.749,0,0,0-.877-.237.907.907,0,0,1-.161-.011h-.021c0-.075-.008-.148-.015-.223,0-.091-.008-.189-.011-.288-.007-.2-.016-.4-.033-.6h0a.877.877,0,0,0-.3-.646l-.029-.018-.023-.01a.158.158,0,0,0-.078-.019,1.237,1.237,0,0,0-.149-.015,1.1,1.1,0,0,0-.148.03.148.148,0,0,0-.074.026l-.023.012-.026.02a.881.881,0,0,0-.236.671h0c0,.2.016.4.028.6.006.1.012.2.016.287,0,.075,0,.149.008.224l-.021,0a.691.691,0,0,1-.157.028,2.73,2.73,0,0,0-.85.321c-.075.04-.131.07-.2.11a5,5,0,0,0-.644.482,2.082,2.082,0,0,0-.286.3c-.035.038-.068.074-.1.114l-.094.107a3.06,3.06,0,0,0-.421.681,8.326,8.326,0,0,0-.512,1.526,10.875,10.875,0,0,0-.26,1.793,5.47,5.47,0,0,1-.22,1.149c-.1.331-.208.658-.322.982a6.244,6.244,0,0,0-.5,3.464l1.249.149a4.846,4.846,0,0,1-.164-.5,4.821,4.821,0,0,1,.411-2.765,9.011,9.011,0,0,0,.6-2.414,6.239,6.239,0,0,1,.662-2.812c.046-.074.112-.16.148-.214.075-.11.189-.229.27-.334a1.559,1.559,0,0,1,.122-.148c.136-.139.281-.26.427-.386l.145-.114a1.349,1.349,0,0,1,.235-.147,3.91,3.91,0,0,1,.45-.173,2.446,2.446,0,0,1,.248-.071c.127-.016.255-.036.382-.048s.257.006.383.01c.083.015.17.022.255.046a3.589,3.589,0,0,1,.465.129,1.323,1.323,0,0,1,.251.123l.154.1c.156.11.313.217.462.342a1.808,1.808,0,0,1,.135.135c.09.1.216.2.3.306.041.05.116.129.17.2a6.263,6.263,0,0,1,.934,2.735,9.046,9.046,0,0,0,.832,2.344,4.819,4.819,0,0,1,.68,2.709,4.736,4.736,0,0,1-.212.828l1.252-.15c.02-.089.046-.188.057-.262A6,6,0,0,0,13044.146-1957.36Z" transform="translate(-13033.57 1966.344)" fill="#fcde06"/>
      </g>
      <g id="Group_5043" data-name="Group 5043" transform="translate(32.997 17.311)">
        <path id="Path_7757" data-name="Path 7757" d="M13041.448-1956.942a2.788,2.788,0,0,0-2.918-2.645,2.789,2.789,0,0,0-2.644,2.917,2.769,2.769,0,0,0,1.041,2.021l1.27.152,2.358-.282A2.764,2.764,0,0,0,13041.448-1956.942Zm-2.692,1.947a1.815,1.815,0,0,1-1.9-1.721,1.816,1.816,0,0,1,1.722-1.9,1.816,1.816,0,0,1,1.9,1.723A1.815,1.815,0,0,1,13038.756-1955Z" transform="translate(-13035.884 1959.59)" fill="#fcde06"/>
      </g>
      <g id="Group_5044" data-name="Group 5044" transform="translate(54.712 9.904)">
        <path id="Path_7758" data-name="Path 7758" d="M13054.129-1964.6a1.84,1.84,0,0,0-.192.218l-.026.026-.006.006a2.451,2.451,0,0,0-.337.5l-.072.156a.838.838,0,0,0-.036.08l-.042.1a5.208,5.208,0,0,0-.19.594l.144.039a3.715,3.715,0,0,0,.5.109c.105.018.2.02.295.03.064,0,.111,0,.171.009a2.991,2.991,0,0,0,.643-.054,2.328,2.328,0,0,0,.317-.071c.068-.02.15-.053.233-.079l.179-.06c.054-.025.1-.052.153-.076l.04-.024a1.383,1.383,0,0,0,.17-.1c.074-.066.149-.119.213-.167a1.063,1.063,0,0,0,.174-.149l.157-.159a.681.681,0,0,0,.107-.121l.1-.118.125-.154a1.725,1.725,0,0,0,.1-.17,2.015,2.015,0,0,0,.169-.357.781.781,0,0,0,.037-.466.123.123,0,0,0-.082-.086.069.069,0,0,0,0-.02c0-.046-.02-.106-.127-.17a1.48,1.48,0,0,0-.3-.119l-.034-.009a2.788,2.788,0,0,0-.595-.038c-.1.013-.209.026-.308.034a1.926,1.926,0,0,0-.358.073,1.73,1.73,0,0,0-.189.055l-.182.082c-.094.045-.176.078-.259.126s-.142.073-.208.113l-.009.007a1.381,1.381,0,0,0-.168.136A3.394,3.394,0,0,0,13054.129-1964.6Zm.6.367a1.023,1.023,0,0,1,.148-.134l.073-.056c.081-.052.169-.093.246-.143a.321.321,0,0,1,.059-.028l.131-.056.06-.029.063-.016.119-.029.085-.021c.031,0,.061-.006.091-.01l.18-.02c.121-.01.246,0,.367-.01.057,0,.12,0,.182,0l-.011.012c-.023.033-.044.068-.065.105s-.049.071-.07.112h0l-.1.178c-.036.059-.083.108-.121.163a.908.908,0,0,1-.123.146,2.189,2.189,0,0,1-.451.352c-.05.025-.1.055-.149.079a1.36,1.36,0,0,1-.27.1c-.081.016-.159.036-.241.045a1.716,1.716,0,0,1-.24.029,2.319,2.319,0,0,1-.264,0l-.1-.01-.051-.005-.035,0h-.012v-.009l0,0s0,0,0-.008l.015-.036.067-.14a2.163,2.163,0,0,1,.157-.252,1.643,1.643,0,0,1,.126-.159A1.122,1.122,0,0,1,13054.731-1964.233Z" transform="translate(-13053.227 1965.506)" fill="#fcde06"/>
      </g>
      <g id="Group_5045" data-name="Group 5045" transform="translate(45.827 10.807)">
        <path id="Path_7759" data-name="Path 7759" d="M13056.647-1957.177a8.752,8.752,0,0,0-.106-3.239,2.861,2.861,0,0,0-.267-.714l-.068-.115c-.021-.044-.047-.085-.071-.125a1.992,1.992,0,0,0-.213-.337,4.6,4.6,0,0,0-.51-.568c-.058-.05-.1-.089-.166-.14a2.593,2.593,0,0,0-.732-.456.8.8,0,0,1-.144-.055l-.019-.006c.017-.069.032-.138.048-.208s.046-.174.068-.264c.048-.184.1-.373.138-.558h0a.841.841,0,0,0-.1-.67l-.023-.024-.017-.015a.145.145,0,0,0-.066-.039,1.349,1.349,0,0,0-.132-.055,1.266,1.266,0,0,0-.144-.014.148.148,0,0,0-.075,0l-.022.005-.031.01a.84.84,0,0,0-.4.547h0c-.054.182-.1.372-.141.557-.022.09-.044.182-.064.266-.02.069-.037.136-.057.205l-.018,0a.844.844,0,0,1-.153-.019,2.6,2.6,0,0,0-.86.058l-.213.045a4.831,4.831,0,0,0-.717.263,1.952,1.952,0,0,0-.346.2,1.267,1.267,0,0,0-.121.076l-.114.07a2.88,2.88,0,0,0-.57.5,8.058,8.058,0,0,0-1.177,1.784c-.147.3-.3.64-.44,1.025-.017.043-.039.084-.057.128a8.553,8.553,0,0,1-1.022,1.663,6.018,6.018,0,0,0-1.4,2.949l1.109-.133a4.919,4.919,0,0,1,1.1-2.221,8.631,8.631,0,0,0,1.208-2.033,5.952,5.952,0,0,1,1.378-2.379c.063-.054.146-.114.194-.154.1-.079.234-.156.336-.229a1.484,1.484,0,0,1,.152-.1c.162-.09.328-.159.5-.233l.162-.065a1.287,1.287,0,0,1,.256-.068,3.4,3.4,0,0,1,.456-.034,2.3,2.3,0,0,1,.247,0c.118.02.24.036.359.062s.233.076.347.114a2.462,2.462,0,0,1,.22.113,3.445,3.445,0,0,1,.386.245,1.139,1.139,0,0,1,.194.18c.029.033.114.133.114.133.111.144.226.283.327.439a1.4,1.4,0,0,1,.085.159c.056.113.142.246.19.362.023.056.069.149.1.227a5.969,5.969,0,0,1,.1,2.747,6.875,6.875,0,0,0,.026,1.725l.5-.06h.01l.488-.058A5.928,5.928,0,0,1,13056.647-1957.177Z" transform="translate(-13046.131 1964.785)" fill="#fcde06"/>
      </g>
      <g id="Group_5046" data-name="Group 5046" transform="translate(0 19.808)">
        <path id="Path_7760" data-name="Path 7760" d="M13079.734-1944.944H13067.1V-1957.1a.5.5,0,0,0-.169-.373.5.5,0,0,0-.155-.089.518.518,0,0,0-.23-.035l-.643.078-.488.058h-.01l-.5.06-8.436,1.008-1.109.133-4.392.524-1.252.15-2.515.3-2.358.282-1.27-.152-2.6-.311-1.249-.149-5.639-.674-1-.119-1.713-.206-.928-.11-2.813-.335-.931-.111-1.741-.208-1.012-.12-.341-.041-.484-.058a.486.486,0,0,0-.234.034.487.487,0,0,0-.158.089.5.5,0,0,0-.169.373v12.153h-12.525a.5.5,0,0,0-.5.5.5.5,0,0,0,.5.5H13023l3.811.772h-8.31a.5.5,0,0,0-.5.5.5.5,0,0,0,.5.5h13.024a.4.4,0,0,0,.117-.019l4.876.989a12.868,12.868,0,0,0,7.539,2.634c.213,0,.329-.009.329-.009l.053-.009c.019,0,.039-.006.055-.011a.435.435,0,0,0,.068-.024.358.358,0,0,0,.054-.022.532.532,0,0,0,.06-.038.321.321,0,0,0,.049-.034l0,0,.006,0a.687.687,0,0,0,.061.041.345.345,0,0,0,.048.03.588.588,0,0,0,.065.027.364.364,0,0,0,.056.019c.018.005.038.008.071.014l.038.006s.114.009.327.009a12.862,12.862,0,0,0,7.461-2.577l5.176-1.051a.449.449,0,0,0,.138.022h13.025a.5.5,0,0,0,.5-.5.5.5,0,0,0-.5-.5h-8.346l3.824-.775,13.06,0a.5.5,0,0,0,.5-.5A.5.5,0,0,0,13079.734-1944.944Zm-45.971-1.377c-.1-.178-.187-.362-.277-.55-.033-.066-.063-.131-.1-.2l9.079,7.176a11.9,11.9,0,0,1-3-.914,11.31,11.31,0,0,1-1.232-.653c-.281-.173-.57-.367-.853-.577A12.736,12.736,0,0,1,13033.764-1946.321Zm1.283,3.8-11.49-2.33v-3.233l8.834,1.67A14.9,14.9,0,0,0,13035.047-1942.523Zm-.929-5.483a14.774,14.774,0,0,1,4.457,1.752c.349.213.689.444,1.013.688.27.2.53.421.776.642a10.942,10.942,0,0,1,2.83,4.093Zm8.221,3.471,1.989.377v2.985A12.145,12.145,0,0,0,13042.339-1944.535Zm-1.48-1.485a16.218,16.218,0,0,0-8.8-3.472h-.017a.415.415,0,0,0-.058.005l-.032,0a.61.61,0,0,0-.213.07.679.679,0,0,0-.165.139l-.008,0-.008.021a.637.637,0,0,0-.088.178l-.013.042a.614.614,0,0,0-.015.2c0,.009,0,.019.008.044a.5.5,0,0,0,.019.083c.1.312.216.63.356.988l-8.151-1.541a.591.591,0,0,0-.116-.01v-2.861l20.771,2.927v3.849Zm-17.215-7.3a.585.585,0,0,0-.067-.005h-.02v-3.205l20.771,2.479v3.645Zm42.457-3.209v3.237l-20.772,2.927v-3.685Zm-20.772,12.417a.874.874,0,0,0,.116-.01l1.576-.3a12.047,12.047,0,0,0-1.692,2.756Zm3.637-.691c.24-.225.491-.439.743-.637.307-.24.629-.467.956-.677a14.675,14.675,0,0,1,4.668-1.883l-9.076,7.176A10.934,10.934,0,0,1,13048.965-1944.808Zm7.094-2.261c-.048.1-.095.2-.145.3-.093.189-.187.373-.286.551a12.672,12.672,0,0,1-3.637,4.238c-.28.2-.577.4-.885.583a11.726,11.726,0,0,1-1.3.667,11.977,11.977,0,0,1-2.827.836Zm.954.755,9.088-1.718v3.179l-11.745,2.381A14.812,14.812,0,0,0,13057.013-1946.314Zm.574-1.313c.157-.394.283-.744.4-1.088a.464.464,0,0,0,.021-.1l0-.025a.541.541,0,0,0-.014-.2.2.2,0,0,0-.014-.041.535.535,0,0,0-.084-.175l-.029-.032a.66.66,0,0,0-.169-.138.6.6,0,0,0-.22-.065l0,.1-.023-.1a.188.188,0,0,0-.054,0,16.145,16.145,0,0,0-8.942,3.59l-3.127.595v-3.873c.033,0,.059,0,.09-.006l20.683-2.915v2.863Z" transform="translate(-13009.529 1957.596)" fill="#fcde06"/>
      </g>
    </g>
  </g>
</svg>
