<svg id="Group_5102" data-name="Group 5102" xmlns="http://www.w3.org/2000/svg" width="50.648" height="62.603" viewBox="0 0 50.648 62.603">
  <g id="Group_5099" data-name="Group 5099" transform="translate(0 0)">
    <g id="Group_5098" data-name="Group 5098">
      <path id="Path_7806" data-name="Path 7806" d="M13070.346-296.541a24.926,24.926,0,0,0-20.78-10.884,24.927,24.927,0,0,0-20.78,10.884,25.281,25.281,0,0,0-2.941,23.292,19.871,19.871,0,0,0,3.668,6.059l18.388,21.6a2.184,2.184,0,0,0,1.666.771,2.184,2.184,0,0,0,1.666-.771l18.383-21.591a20,20,0,0,0,3.669-6.051A25.289,25.289,0,0,0,13070.346-296.541Zm-1.163,21.773a15.59,15.59,0,0,1-2.887,4.729l-.01.013-16.721,19.639-16.73-19.651a15.6,15.6,0,0,1-2.893-4.744,20.91,20.91,0,0,1,2.444-19.268,20.6,20.6,0,0,1,17.179-9,20.6,20.6,0,0,1,17.177,9A20.908,20.908,0,0,1,13069.183-274.767Z" transform="translate(-13024.241 307.425)" fill="#fff"/>
    </g>
  </g>
  <g id="Group_5101" data-name="Group 5101" transform="translate(13.066 12.988)">
    <g id="Group_5100" data-name="Group 5100">
      <path id="Path_7807" data-name="Path 7807" d="M13046.936-297.052a12.272,12.272,0,0,0-12.259,12.258,12.273,12.273,0,0,0,12.259,12.258,12.271,12.271,0,0,0,12.258-12.258A12.271,12.271,0,0,0,13046.936-297.052Zm0,20.138a7.889,7.889,0,0,1-7.88-7.88,7.888,7.888,0,0,1,7.88-7.88,7.888,7.888,0,0,1,7.88,7.88A7.889,7.889,0,0,1,13046.936-276.914Z" transform="translate(-13034.677 297.052)" fill="#fff"/>
    </g>
  </g>
</svg>
