<svg id="Group_3911" data-name="Group 3911" xmlns="http://www.w3.org/2000/svg" width="35.281" height="49.722" viewBox="0 0 35.281 49.722">
  <path id="Path_6221" data-name="Path 6221" d="M267.466,834.42l-.035-.057c.642-.085,1.3-.162,1.969-.225Q268.407,834.257,267.466,834.42Z" transform="translate(-257.386 -796.23)" fill="#fff"/>
  <path id="Path_6222" data-name="Path 6222" d="M279.914,834.478c-.73-.132-1.488-.245-2.268-.34q1.181.111,2.312.272Z" transform="translate(-254.752 -796.23)" fill="#fff"/>
  <path id="Path_6223" data-name="Path 6223" d="M277.1,804h-.03a17.645,17.645,0,0,0-15.451,26.129l7.871,12,.035.057,7.56,11.532,7.522-11.474.044-.068,7.9-12.051A17.643,17.643,0,0,0,277.1,804Zm-.015,28.6a10.991,10.991,0,1,1,10.991-10.99A10.989,10.989,0,0,1,277.085,832.6Z" transform="translate(-259.445 -804)" fill="#fff"/>
  <circle id="Ellipse_532" data-name="Ellipse 532" cx="6.404" cy="6.404" r="6.404" transform="translate(11.236 11.203)" fill="#fff"/>
</svg>
