<svg id="Group_3909" data-name="Group 3909" xmlns="http://www.w3.org/2000/svg" width="41.152" height="46.087" viewBox="0 0 41.152 46.087">
  <path id="Path_6212" data-name="Path 6212" d="M291.514,589.105H257.066a3.352,3.352,0,0,0-3.352,3.352v21.5a3.352,3.352,0,0,0,3.352,3.352h34.448a3.352,3.352,0,0,0,3.352-3.352v-21.5A3.352,3.352,0,0,0,291.514,589.105Zm1.474,10.924h-37.4v-5.144h37.4Z" transform="translate(-253.714 -589.105)" fill="#fff"/>
  <g id="Group_3906" data-name="Group 3906" transform="translate(14.732 31.76)">
    <path id="Path_6213" data-name="Path 6213" d="M270.949,617.549a10.917,10.917,0,0,1-5.523-1.361l1.107-1.761c.159.1,3.906,2.343,9.436-.072l.833,1.907A14.546,14.546,0,0,1,270.949,617.549Z" transform="translate(-265.426 -614.355)" fill="#fff"/>
  </g>
  <g id="Group_3907" data-name="Group 3907" transform="translate(10.093 35.496)">
    <path id="Path_6214" data-name="Path 6214" d="M271.672,621.826a18.165,18.165,0,0,1-9.934-2.716l1.2-1.7c.308.215,7.684,5.2,18.54-.083l.912,1.87A24.339,24.339,0,0,1,271.672,621.826Z" transform="translate(-261.738 -617.325)" fill="#fff"/>
  </g>
  <g id="Group_3908" data-name="Group 3908" transform="translate(5.985 40.233)">
    <path id="Path_6215" data-name="Path 6215" d="M272.313,626.945a23.906,23.906,0,0,1-13.841-4.109l1.265-1.652c.443.336,11.036,8.159,26.624-.093l.974,1.839A31.9,31.9,0,0,1,272.313,626.945Z" transform="translate(-258.472 -621.091)" fill="#fff"/>
  </g>
</svg>
