<svg id="Linkedin" xmlns="http://www.w3.org/2000/svg" width="40.972" height="40.898" viewBox="0 0 40.972 40.898">
  <path id="Path_4161" data-name="Path 4161" d="M872.294,3365.476h8.5V3392.8h-8.5Zm4.252-13.58a4.923,4.923,0,1,1-4.925,4.923,4.925,4.925,0,0,1,4.925-4.923" transform="translate(-871.621 -3351.897)" fill="#8bc53f"/>
  <path id="Path_4162" data-name="Path 4162" d="M883.127,3362.813h8.138v3.735h.117a8.919,8.919,0,0,1,8.032-4.413c8.6,0,10.186,5.657,10.186,13.015v14.982h-8.49v-13.285c0-3.168-.054-7.243-4.412-7.243-4.418,0-5.092,3.453-5.092,7.016v13.512h-8.479Z" transform="translate(-868.628 -3349.233)" fill="#8bc53f"/>
</svg>
