<svg xmlns="http://www.w3.org/2000/svg" width="123.512" height="32.876" viewBox="0 0 123.512 32.876">
  <g id="Group_2466" data-name="Group 2466" transform="translate(0 0)">
    <path id="Path_4201" data-name="Path 4201" d="M982,3442.947a32.945,32.945,0,0,0-7.4,1.194l-.576,4.7a20.128,20.128,0,0,1,6.326-1.344c2.443-.074,3.881.447,3.378,2.536-7.26,0-12.149,1.491-13.155,6.19-1.439,8.052,7.4,7.83,10.926,4.325l-.431,1.938h6.47l2.8-12.826C991.484,3444.214,986.525,3442.873,982,3442.947Zm.431,13.124a3.239,3.239,0,0,1-3.377,2.537c-1.437.073-2.732-1.195-1.8-2.686.72-1.268,2.732-1.566,3.953-1.566h1.581C982.643,3454.952,982.569,3455.475,982.427,3456.071Z" transform="translate(-885.51 -3437.767)" fill="#fff" fill-rule="evenodd"/>
    <path id="Path_4202" data-name="Path 4202" d="M991.719,3438.922l-5.352,24.608h6.572l5.418-24.608Z" transform="translate(-881.359 -3438.813)" fill="#fff" fill-rule="evenodd"/>
    <path id="Path_4203" data-name="Path 4203" d="M970.238,3438.982H958.208l-5.332,24.533h6.988l1.8-8.128h4.971a9.866,9.866,0,0,0,10.014-8.054C977.875,3441.592,973.7,3438.982,970.238,3438.982Zm-.214,8.351a4.494,4.494,0,0,1-4.109,3.356h-3.241l1.442-6.71h3.458A2.525,2.525,0,0,1,970.024,3447.333Z" transform="translate(-890.071 -3438.798)" fill="#fff" fill-rule="evenodd"/>
    <path id="Path_4204" data-name="Path 4204" d="M931.953,3442.947a30.8,30.8,0,0,0-7.243,1.194l-.568,4.7a18.7,18.7,0,0,1,6.177-1.344c2.416-.074,3.836.447,3.409,2.536-7.171,0-12,1.491-12.995,6.19-1.42,8.052,7.314,7.83,10.721,4.325l-.425,1.938h6.462l2.769-12.826C941.4,3444.214,936.426,3442.873,931.953,3442.947Zm.5,13.124a3.286,3.286,0,0,1-3.409,2.537,1.725,1.725,0,0,1-1.7-2.686c.709-1.268,2.7-1.566,3.835-1.566h1.633A14.541,14.541,0,0,0,932.45,3456.071Z" transform="translate(-898.474 -3437.767)" fill="#fff" fill-rule="evenodd"/>
    <path id="Path_4205" data-name="Path 4205" d="M938.862,3443.227h6.461l1.042,11.425,6.322-11.425h6.668L944,3470.57h-7.225l4.724-8.039-2.639-19.3Z" transform="translate(-894.26 -3437.694)" fill="#fff" fill-rule="evenodd"/>
    <path id="Path_4206" data-name="Path 4206" d="M920.445,3438.982H908.383l-5.346,24.533h7.08l1.733-8.128H916.9a9.861,9.861,0,0,0,9.968-8.054C928.1,3441.592,923.984,3438.982,920.445,3438.982Zm-.217,8.351a4.416,4.416,0,0,1-4.045,3.356h-3.322l1.516-6.71h3.467A2.486,2.486,0,0,1,920.228,3447.333Z" transform="translate(-903.037 -3438.798)" fill="#fff" fill-rule="evenodd"/>
    <path id="Path_4207" data-name="Path 4207" d="M997.23,3442.125v-2.9h-1.083v-.388h2.607v.388h-1.088v2.9Z" transform="translate(-878.814 -3438.836)" fill="#fff"/>
    <path id="Path_4208" data-name="Path 4208" d="M998.559,3442.125v-3.289h.653l.78,2.328c.072.216.123.379.157.486.038-.119.1-.295.175-.527l.789-2.287h.586v3.289h-.418v-2.753l-.96,2.753h-.392l-.95-2.8v2.8Z" transform="translate(-878.187 -3438.836)" fill="#fff"/>
  </g>
</svg>
