<svg id="Group_3914" data-name="Group 3914" xmlns="http://www.w3.org/2000/svg" width="34.619" height="51.255" viewBox="0 0 34.619 51.255">
  <path id="Path_6228" data-name="Path 6228" d="M285.325,2335.567l-2.628-4.186c-4.939-13.111-12.519-12.157-12-12.2l0,1.024.08-.007a7,7,0,0,1,3.731,1.248c2,1.26,4.888,4.069,7.234,10.294l.037.1,2.629,4.19a45.548,45.548,0,0,1,2.757,14.482h0c.048,11-5.419,17.353-16.25,18.893l.005,1.03C297.716,2366.74,285.325,2335.567,285.325,2335.567Z" transform="translate(-253.567 -2319.179)" fill="#fff"/>
  <path id="Path_6229" data-name="Path 6229" d="M258.093,2350.656h0a45.59,45.59,0,0,1,2.628-14.505l2.594-4.213.035-.1c2.289-6.246,5.148-9.08,7.142-10.358a7.031,7.031,0,0,1,3.719-1.282l.08.006-.005-1.024s-7.187-.536-11.9,12.306l-2.591,4.21s-12.114,31.281,14.714,34.736l-.005-1.03C263.665,2367.961,258.142,2361.655,258.093,2350.656Z" transform="translate(-257.072 -2319.179)" fill="#fff"/>
  <path id="Path_6230" data-name="Path 6230" d="M274.043,2365.866c4.553-.615,8.019-2.206,10.3-4.738,2.355-2.616,3.594-6.4,3.68-11.238h0a42.891,42.891,0,0,0-2.2-13.411l-2.533-4.243-.12-.34c-2.073-5.9-4.648-8.278-6-9.168a5.1,5.1,0,0,0-2.254-.908l-1.109.014-1.108,0a5.091,5.091,0,0,0-2.246.927c-1.342.9-3.9,3.3-5.917,9.222l-.117.34-2.494,4.265a42.837,42.837,0,0,0-2.087,13.43h0c.131,4.839,1.4,8.608,3.781,11.2,2.3,2.512,5.777,4.072,10.336,4.646v.015l.047-.008.048.008Zm-9.642-17.277a12.807,12.807,0,0,1,.98-5,9,9,0,0,1,17.036-.075,12.807,12.807,0,0,1,1.024,4.992c.026,6.034-4.992,10.949-9.982,11.014C268.477,2359.5,264.427,2354.623,264.4,2348.589Z" transform="translate(-256.363 -2318.498)" fill="#fff"/>
</svg>
