<svg xmlns="http://www.w3.org/2000/svg" width="47.964" height="42.068" viewBox="0 0 47.964 42.068">
  <path id="Path_6217" data-name="Path 6217" d="M297.938,1158.284H259.91a.92.92,0,0,0-.21.042l-1.546-5.137a1.272,1.272,0,0,0-.081-.148,1.02,1.02,0,0,0-1.011-.946h-.005l-5.031.021a1.028,1.028,0,0,0,.005,2.055h.005l4.262-.018,9.363,31.078a4.882,4.882,0,1,0,7.611,4.048,4.986,4.986,0,0,0-.087-.85h13.6a4.908,4.908,0,1,0,.893-2.055H272.29a4.706,4.706,0,0,0-4.709-1.894l-1.082-3.588,25.892-.02a1.018,1.018,0,0,0,.962-.707.959.959,0,0,0,.094-.2l5.48-20.213a.96.96,0,0,0,.025-.381c0-.02.013-.038.013-.059A1.028,1.028,0,0,0,297.938,1158.284Zm-4.781,31a1.574,1.574,0,1,1-1.573-1.574A1.573,1.573,0,0,1,293.157,1189.282Zm-23.247.012a1.574,1.574,0,1,1-1.574-1.573A1.574,1.574,0,0,1,269.909,1189.294Zm-4-23.18a2.313,2.313,0,1,1,2.312,2.313A2.312,2.312,0,0,1,265.907,1166.114Zm5.973,8.994a2.313,2.313,0,1,1,2.312-2.312A2.312,2.312,0,0,1,271.88,1175.107Zm1.458-8.994a2.313,2.313,0,1,1,2.312,2.313A2.312,2.312,0,0,1,273.338,1166.114Zm6.089,8.994a2.313,2.313,0,1,1,2.313-2.312A2.311,2.311,0,0,1,279.427,1175.107Zm1.34-8.994a2.313,2.313,0,1,1,2.312,2.313A2.312,2.312,0,0,1,280.767,1166.114Zm6.209,8.994a2.313,2.313,0,1,1,2.312-2.312A2.312,2.312,0,0,1,286.976,1175.107Zm3.533-6.68a2.313,2.313,0,1,1,2.313-2.313A2.311,2.311,0,0,1,290.509,1168.427Z" transform="translate(-251.003 -1152.094)" fill="#fff"/>
</svg>
