<svg xmlns="http://www.w3.org/2000/svg" width="81.273" height="36.883" viewBox="0 0 81.273 36.883">
  <g id="Group_2465" data-name="Group 2465" transform="translate(0 0)">
    <path id="Path_4191" data-name="Path 4191" d="M825,3470.2v-18.729h3.018v1.376a3.658,3.658,0,0,1,1.863-1.364,6.29,6.29,0,0,1,1.975-.319,6.661,6.661,0,0,1,4.9,2.068,7.275,7.275,0,0,1,1.517,7.774,6.933,6.933,0,0,1-3.678,3.841,6.245,6.245,0,0,1-2.6.527,6.372,6.372,0,0,1-2.11-.345,3.8,3.8,0,0,1-1.914-1.319v6.49H825m6.758-16.376a3.792,3.792,0,0,0-2.845,1.148,4.616,4.616,0,0,0-1.118,3.234,4.867,4.867,0,0,0,1.088,3.352,3.724,3.724,0,0,0,2.9,1.137,3.841,3.841,0,0,0,2.794-1.186,4.428,4.428,0,0,0,1.2-3.164,4.779,4.779,0,0,0-1.18-3.34,3.825,3.825,0,0,0-2.838-1.182" transform="translate(-806.434 -3433.315)" fill="#fff"/>
    <path id="Path_4192" data-name="Path 4192" d="M853.046,3470.135l2.547-5.906-5.843-12.823h3.18l4.152,9.627,3.829-9.627h3.2l-7.942,18.729h-3.122" transform="translate(-799.995 -3433.252)" fill="#fff"/>
    <path id="Path_4193" data-name="Path 4193" d="M848.187,3465.124v-1.416a3.8,3.8,0,0,1-1.91,1.319,6.418,6.418,0,0,1-2.112.345,6.268,6.268,0,0,1-2.6-.527,6.735,6.735,0,0,1-2.228-1.563,6.655,6.655,0,0,1-1.448-2.276,7.162,7.162,0,0,1-.531-2.693,7.081,7.081,0,0,1,2.045-5.082,6.672,6.672,0,0,1,4.9-2.068,6.217,6.217,0,0,1,1.971.321,3.633,3.633,0,0,1,1.866,1.361v-1.376h3.014v13.655h-2.97M841.56,3455a4.771,4.771,0,0,0-1.176,3.34,4.428,4.428,0,0,0,1.2,3.164,3.838,3.838,0,0,0,2.792,1.186,3.707,3.707,0,0,0,2.895-1.137,4.837,4.837,0,0,0,1.089-3.352,4.628,4.628,0,0,0-1.113-3.234,3.788,3.788,0,0,0-2.847-1.148,3.829,3.829,0,0,0-2.84,1.182" transform="translate(-803.22 -3433.315)" fill="#fff"/>
    <path id="Path_4194" data-name="Path 4194" d="M865.107,3446.413l-.155-9.118h2.878v11.5h-4.138l-2.866-9.445h-.074l.164,9.445h-2.853v-11.5h4.308l2.674,9.118h.063" transform="translate(-797.833 -3436.923)" fill="#fff"/>
    <path id="Path_4195" data-name="Path 4195" d="M823.149,3438.365l-1.587,10.539h-3.137l2.151-11.61h5.173l2.147,11.61h-3.127l-1.551-10.539h-.069" transform="translate(-808.145 -3436.923)" fill="#fff"/>
    <path id="Path_4196" data-name="Path 4196" d="M834.262,3446.176l1.437-8.882h4.733l.26,11.609h-2.908l-.081-10.439h-.056L835.7,3448.9h-2.94l-1.95-10.439h-.065l-.072,10.439h-2.9l.264-11.609h4.737l1.43,8.882h.058" transform="translate(-805.713 -3436.923)" fill="#fff"/>
    <path id="Path_4197" data-name="Path 4197" d="M853.092,3447.163a1.045,1.045,0,0,0,1.119-.833,2.623,2.623,0,0,0,.024-.445v-8.59h2.949v8.323c0,.217-.024.651-.033.768-.2,2.17-1.922,2.867-4.059,2.867s-3.849-.7-4.045-2.867a7.392,7.392,0,0,1-.029-.768v-8.323h2.94v8.59a2.195,2.195,0,0,0,.023.445,1.043,1.043,0,0,0,1.111.833" transform="translate(-800.186 -3436.923)" fill="#fff"/>
    <path id="Path_4198" data-name="Path 4198" d="M815.658,3445.7a1.551,1.551,0,0,1,.024.861,1.008,1.008,0,0,1-1.138.785,1.034,1.034,0,0,1-1.159-1.056l-.009-1.127h-3.109v.9c0,2.595,2.033,3.372,4.211,3.372,2.111,0,3.838-.714,4.109-2.65a5.736,5.736,0,0,0-.006-1.908c-.489-2.438-4.9-3.153-5.23-4.515a1.389,1.389,0,0,1-.014-.608.956.956,0,0,1,1.06-.785.993.993,0,0,1,1.085,1.047v.729h2.9v-.815c0-2.533-2.277-2.928-3.924-2.928-2.06,0-3.75.687-4.059,2.583a4.257,4.257,0,0,0,.023,1.559c.509,2.379,4.636,3.061,5.236,4.562" transform="translate(-810.267 -3437)" fill="#fff"/>
    <path id="Path_4199" data-name="Path 4199" d="M845.616,3445.677a1.536,1.536,0,0,1,.024.847.991.991,0,0,1-1.119.769,1.026,1.026,0,0,1-1.157-1.042v-1.118h-3.087v.894c0,2.57,2.02,3.333,4.185,3.333,2.07,0,3.784-.706,4.059-2.625a5.585,5.585,0,0,0-.015-1.894c-.485-2.4-4.848-3.114-5.169-4.47a1.52,1.52,0,0,1-.014-.595.944.944,0,0,1,1.05-.771.977.977,0,0,1,1.074,1.03v.716h2.864v-.805c0-2.5-2.251-2.895-3.871-2.895-2.048,0-3.724.667-4.021,2.553a3.674,3.674,0,0,0,.023,1.547c.5,2.356,4.584,3.032,5.175,4.525" transform="translate(-802.46 -3436.987)" fill="#fff"/>
    <path id="Path_4200" data-name="Path 4200" d="M872.328,3447.111a1.083,1.083,0,0,0,1.186-.841,3.316,3.316,0,0,0,.025-.443v-1.68h-1.187v-1.7h4.113v3.12c0,.218-.009.378-.042.768-.193,2.1-2.029,2.868-4.092,2.868s-3.881-.766-4.069-2.868a5.306,5.306,0,0,1-.047-.768v-4.884a6.181,6.181,0,0,1,.054-.764c.252-2.183,2.007-2.872,4.062-2.872s3.875.682,4.08,2.872a5.09,5.09,0,0,1,.023.764l.006.378h-2.927v-.649a2.431,2.431,0,0,0-.04-.445,1.063,1.063,0,0,0-1.164-.837,1.08,1.08,0,0,0-1.152.837,2.629,2.629,0,0,0-.043.553v5.31c0,.147.006.313.02.443a1.089,1.089,0,0,0,1.193.841" transform="translate(-795.192 -3436.989)" fill="#fff"/>
  </g>
</svg>
