<svg xmlns="http://www.w3.org/2000/svg" width="56.974" height="44.026" viewBox="0 0 56.974 44.026">
  <g id="Group_3558" data-name="Group 3558" transform="translate(-230.513)">
    <g id="Group_3557" data-name="Group 3557">
      <path id="Path_2820" data-name="Path 2820" d="M329.073,81h35.5a21.539,21.539,0,0,1,21.476,21.476v1.074a21.539,21.539,0,0,1-21.476,21.476h-35.5" transform="translate(-98.56 -81)" fill="#408148"/>
    </g>
    <g id="Group_1690" data-name="Group 1690" transform="translate(243.364 8.805)">
      <path id="Path_2821" data-name="Path 2821" d="M345.873,97.17a9.171,9.171,0,1,1,9.17,9.17A9.181,9.181,0,0,1,345.873,97.17Zm17.061,0a7.89,7.89,0,1,0-7.891,7.891A7.9,7.9,0,0,0,362.934,97.17Z" transform="translate(-338.591 -88)" fill="#fff"/>
      <rect id="Rectangle_392" data-name="Rectangle 392" width="12.743" height="1.28" transform="translate(0.593 24.113) rotate(-45)" fill="#fff"/>
      <path id="Path_2822" data-name="Path 2822" d="M340.084,108.421a1.914,1.914,0,0,1,.562-1.357l5.823-5.823a1.92,1.92,0,1,1,2.715,2.716l-5.822,5.823a1.92,1.92,0,0,1-3.278-1.359Z" transform="translate(-340.084 -84.73)" fill="#fff"/>
    </g>
  </g>
</svg>
