<svg id="Group_2464" data-name="Group 2464" xmlns="http://www.w3.org/2000/svg" width="84.182" height="39.741" viewBox="0 0 84.182 39.741">
  <g id="Group_2462" data-name="Group 2462">
    <path id="Path_4186" data-name="Path 4186" d="M729.983,3442.831c-.321.293-.645.584-.963.884a7.093,7.093,0,0,0-.943,9.673,5.758,5.758,0,0,0,2.443,2.022c.12.048.242.092.389.147-.133.363-.252.721-.4,1.068a18.609,18.609,0,0,1-3.4,5.524,8.171,8.171,0,0,1-.907.834,3.841,3.841,0,0,1-3.665.816c-.683-.2-1.358-.423-2.038-.634a7.927,7.927,0,0,0-2.147-.407,7,7,0,0,0-2.6.563,17.257,17.257,0,0,1-1.949.639,3.515,3.515,0,0,1-2.853-.659,8.477,8.477,0,0,1-2.161-2.22,22.7,22.7,0,0,1-3.342-6.981,16.206,16.206,0,0,1-.447-6.83,9.732,9.732,0,0,1,2.5-5.387,6.268,6.268,0,0,1,5.45-2,17.184,17.184,0,0,1,3.107.712c.426.124.861.217,1.29.325a3.393,3.393,0,0,0,1.818-.089c.839-.246,1.669-.524,2.506-.774a7.879,7.879,0,0,1,3.8-.227,7.188,7.188,0,0,1,4.079,2.467c.137.158.272.316.408.475A.434.434,0,0,1,729.983,3442.831Z" transform="translate(-704.818 -3432.586)" fill="#fff"/>
    <path id="Path_4187" data-name="Path 4187" d="M721.108,3434.053a8.824,8.824,0,0,1,.045,1.05,7.5,7.5,0,0,1-2.133,4.781,5.7,5.7,0,0,1-2,1.448,6.979,6.979,0,0,1-2.093.373c-.011,0-.023-.011-.034-.016C714.992,3437.556,717.078,3434.883,721.108,3434.053Z" transform="translate(-702.196 -3434.053)" fill="#fff"/>
  </g>
  <g id="Group_2463" data-name="Group 2463" transform="translate(34.047 4.402)">
    <path id="Path_4188" data-name="Path 4188" d="M731.836,3438.056a39.566,39.566,0,0,1,6.557-.511c3.377,0,5.851.785,7.422,2.2a7.114,7.114,0,0,1,2.316,5.536,7.79,7.79,0,0,1-2.042,5.654c-1.807,1.924-4.752,2.906-8.089,2.906a11.731,11.731,0,0,1-2.748-.236v10.6h-3.416Zm3.416,12.761a11.426,11.426,0,0,0,2.826.275c4.123,0,6.636-2,6.636-5.654,0-3.495-2.474-5.183-6.243-5.183a14.291,14.291,0,0,0-3.22.275Z" transform="translate(-731.836 -3437.546)" fill="#fff"/>
    <path id="Path_4189" data-name="Path 4189" d="M757.029,3462.717l-.275-2.4h-.118a7.076,7.076,0,0,1-5.811,2.826,5.414,5.414,0,0,1-5.812-5.458c0-4.594,4.084-7.107,11.427-7.068v-.392c0-1.571-.432-4.4-4.32-4.4a9.472,9.472,0,0,0-4.947,1.413l-.785-2.277a11.8,11.8,0,0,1,6.243-1.688c5.812,0,7.226,3.966,7.226,7.775v7.107a26.769,26.769,0,0,0,.314,4.555Zm-.51-9.7c-3.769-.078-8.05.588-8.05,4.279a3.057,3.057,0,0,0,3.259,3.3,4.728,4.728,0,0,0,4.594-3.18,3.585,3.585,0,0,0,.2-1.1Z" transform="translate(-728.408 -3436.054)" fill="#fff"/>
    <path id="Path_4190" data-name="Path 4190" d="M761.213,3443.622l4.162,11.23c.432,1.256.9,2.749,1.217,3.888h.078c.354-1.139.746-2.592,1.217-3.966l3.77-11.152h3.651l-5.183,13.546c-2.474,6.519-4.162,9.857-6.517,11.9a9.371,9.371,0,0,1-4.24,2.238l-.865-2.906a9.124,9.124,0,0,0,3.023-1.688,10.47,10.47,0,0,0,2.906-3.847,2.477,2.477,0,0,0,.275-.826,2.99,2.99,0,0,0-.236-.9l-7.028-17.513Z" transform="translate(-725.174 -3435.965)" fill="#fff"/>
  </g>
</svg>
