<svg xmlns="http://www.w3.org/2000/svg" width="36.246" height="36.246" viewBox="0 0 36.246 36.246">
  <g id="Facebook" transform="translate(0 0)">
    <path id="Facebook-2" data-name="Facebook" d="M756.111,3354.387H723.866a2,2,0,0,0-2,2v32.245a2,2,0,0,0,2,2h17.359V3376.6H736.5v-5.469h4.723v-4.035c0-4.682,2.859-7.231,7.035-7.231a38.655,38.655,0,0,1,4.222.216v4.893h-2.9c-2.272,0-2.712,1.079-2.712,2.663v3.493h5.416l-.7,5.469h-4.712v14.037h9.237a2,2,0,0,0,2-2v-32.245A2,2,0,0,0,756.111,3354.387Z" transform="translate(-721.865 -3354.387)" fill="#8bc53f"/>
  </g>
</svg>
