<svg xmlns="http://www.w3.org/2000/svg" width="37.115" height="37.115" viewBox="0 0 37.115 37.115">
  <g id="Instagram" transform="translate(0 0)">
    <path id="Instagram-2" data-name="Instagram" d="M829.661,3370.723h-3.23a11.42,11.42,0,1,1-22.09,0H801.11v15.7a1.427,1.427,0,0,0,1.429,1.426h25.693a1.427,1.427,0,0,0,1.429-1.426Zm0-9.992a1.428,1.428,0,0,0-1.429-1.427h-4.281a1.427,1.427,0,0,0-1.428,1.427v4.283a1.428,1.428,0,0,0,1.428,1.428h4.281a1.428,1.428,0,0,0,1.429-1.428Zm-14.276,5.711a7.138,7.138,0,1,0,7.139,7.137,7.137,7.137,0,0,0-7.139-7.137m14.276,25.7H801.11a4.284,4.284,0,0,1-4.282-4.285V3359.3a4.282,4.282,0,0,1,4.282-4.282h28.551a4.281,4.281,0,0,1,4.282,4.282v28.549a4.283,4.283,0,0,1-4.282,4.285" transform="translate(-796.828 -3355.023)" fill="#8bc53f" fill-rule="evenodd"/>
  </g>
</svg>
